<?xml version="1.0" encoding="UTF-8"?>
<svg id="Capa_2" xmlns="http://www.w3.org/2000/svg" viewBox="0 0 110.99 92.92">
  <defs>
    <style>
      .cls-1 {
        fill: none;
        stroke: #000;
        stroke-miterlimit: 10;
        stroke-width: 2.6px;
      }
    </style>
  </defs>
  <g id="Capa_1-2" data-name="Capa_1">
    <g>
      <g>
        <path d="M110.99,3.89c0-3.2-1.38-4.25-4.52-3.48-6.43,1.56-11.98,7.91-12.29,15.21-.43,10.08-.23,20.84-.22,30.94,0,0,0,.02.01.03.08.64.6,1.14,1.24,1.2,0,0,0,0,0,0,0,0,0,0,0,0,.04,0,.09,0,.13,0,.77,0,1.39-.62,1.39-1.39,0,0,0-.01,0-.02,0,0,0,0,0-.01,0-.74,0-1.39,0-1.85,0-8.66.01-17.33,0-25.99,0-3.64.99-7.25,3.1-10.22,2-2.81,4.58-4.74,8.35-5.33,0,1.12,0,2.01,0,2.91,0,25.32,0,50.65,0,75.97,0,1.71,0,3.41-.02,5.12-.02,1.66-.72,2.81-2.48,2.95-1.5.12-2.53-1.13-2.6-3.04-.02-.52,0-1.05,0-1.57,0-11.02,0-22.04.01-33.06,0-1.09-.04-2.3-1.49-2.29-1.34,0-1.36,1.17-1.36,2.19,0,11.55-.02,23.09.04,34.64.02,3.67,2.2,5.97,5.38,5.96,3.21-.02,5.32-2.37,5.33-6,0-27.62,0-55.24,0-82.86Z"/>
        <path d="M16.27,42.4s0-.09,0-.14c0-.77-.62-1.39-1.39-1.39s-1.39.62-1.39,1.39c0,0,0,.01,0,.02,0,0,0,0,0,.01,0,.4-.04,1.39-.04,1.85,0,13.84,0,27.68,0,41.53,0,.66,0,1.31-.05,1.97-.1,1.34-.88,2.12-2.12,2.28-.91.12-1.83-.19-2.36-.95-.69-.97-.57-2.14-.57-3.26,0-16.4,0-32.8,0-49.2,0-1.18.1-2.29-1.26-3.02-3.07-1.66-4.32-4.4-4.31-7.83.02-7.53,0-16.52,0-24.05,0-.03,0-.05,0-.08C2.8.76,2.18.14,1.41.14.7.14.12.67.03,1.35c-.02.04-.03.09-.03.15C0,9.3,0,18.12,0,25.92c0,3.51,1.49,6.96,4.3,9.07,1.03.78,1.27,1.61,1.26,2.8-.04,8.13-.02,16.27-.02,24.4h0c0,8.27-.01,16.53,0,24.8,0,3.92,3.16,6.52,6.75,5.61,2.57-.65,4.02-2.75,4.03-6,.02-11.94.01-23.88,0-35.82,0-2.61.07-5.75-.06-8.38Z"/>
        <path d="M19.41,69.62c-.38,2.7-.12,4.75,1.63,6.8,19.97,23.46,56.37,21.61,73.98-3.72,2.08-2.99,2.54-5.97,2.11-9.47-13.31,32.31-58.51,36.54-77.71,6.39Z"/>
        <path d="M90.7,18.83c.18-.04.36-.08.55-.11-.36-1.46-.26-3.36-1.16-4.32C73.35-3.53,44.67-4.86,26.21,11.24c-1.69,1.47-1.54,2.99-1.19,4.92C41.44-1.28,73.13-2.81,90.7,18.83Z"/>
        <path d="M21.88,14.55c0-1.38,0-2.75,0-4.13,0-2.88.06-5.76-.07-8.63.02-.08.02-.17.02-.26,0-.77-.62-1.39-1.39-1.39s-1.39.62-1.39,1.39c0,0,0,.02,0,.03,0,0,0,0,0,0-.06.74-.06,1.39-.06,1.98,0,7.47-.02,14.93,0,22.4.01,3.3-1.25,5.83-4.13,7.49-.89.51-1.83,1.05-1.12,2.27.7,1.2,1.69.7,2.55.18,3.68-2.2,5.52-5.48,5.57-9.75.04-3.86,0-7.73,0-11.59Z"/>
        <path d="M6.33,12.18h0c0,3.48,0,6.95,0,10.43,0,1.06.14,2.21,1.46,2,.54-.09,1.28-1.24,1.29-1.92.1-6.82.06-13.65.07-20.47,0-1.04-.09-2.13-1.47-2.08-1.36.05-1.36,1.17-1.35,2.19,0,3.28,0,6.56,0,9.84Z"/>
        <path d="M14.13,24.6c.55-.09,1.31-1.23,1.32-1.91.1-6.82.06-13.65.05-20.47,0-1.03-.08-2.13-1.47-2.08-1.36.06-1.37,1.16-1.37,2.19,0,3.28,0,6.56,0,9.84,0,3.48,0,6.95,0,10.43,0,1.07.17,2.21,1.47,1.99Z"/>
      </g>
      <circle class="cls-1" cx="55.8" cy="45.04" r="16.84"/>
      <rect x="54.16" y="11.95" width="3.28" height="11.25" rx="1.64" ry="1.64"/>
      <rect x="54.16" y="66.89" width="3.28" height="11.25" rx="1.64" ry="1.64"/>
      <rect x="73.38" y="19.73" width="3.28" height="11.25" rx="1.64" ry="1.64" transform="translate(39.9 -45.62) rotate(45)"/>
      <rect x="34.69" y="58.98" width="3.28" height="11.25" rx="1.64" ry="1.64" transform="translate(56.32 -6.77) rotate(45)"/>
      <rect x="73.57" y="58.92" width="3.28" height="11.25" rx="1.64" ry="1.64" transform="translate(-23.61 72.08) rotate(-45)"/>
      <rect x="34.75" y="20.04" width="3.28" height="11.25" rx="1.64" ry="1.64" transform="translate(-7.49 33.25) rotate(-45)"/>
      <rect x="26.69" y="39.42" width="3.28" height="11.25" rx="1.64" ry="1.64" transform="translate(-16.72 73.37) rotate(-90)"/>
      <rect x="81.63" y="39.42" width="3.28" height="11.25" rx="1.64" ry="1.64" transform="translate(38.23 128.32) rotate(-90)"/>
    </g>
  </g>
</svg>