<?xml version="1.0" encoding="UTF-8"?>
<svg id="Capa_2" xmlns="http://www.w3.org/2000/svg" viewBox="0 0 59.59 76.53">
  <defs>
    <style>
      .cls-1 {
        fill: #fff;
      }
    </style>
  </defs>
  <g id="Capa_1-2" data-name="Capa_1">
    <g id="AbbiLJ.tif">
      <g>
        <path d="M0,42.6c.29-1.48.5-2.98.87-4.44.68-2.73,1.88-5.24,3.56-7.51,3.07-4.15,4.55-8.79,4.47-13.95-.04-2.27,0-4.53-.02-6.8,0-.29-.26-.57-.39-.86-.14-.33-.39-.66-.4-.99-.04-2.27-.02-4.53-.02-6.8,0-.86.38-1.24,1.22-1.25,3.71,0,7.42,0,11.13,0,.85,0,1.23.39,1.24,1.23.01,2.27.02,4.53-.01,6.8,0,.32-.13.76-.35.92-.42.3-.46.65-.45,1.09.01,2.66-.02,5.33.03,7.99.09,4.46,1.48,8.51,4.1,12.11,2.43,3.35,4.01,7.03,4.54,11.14.15,1.16.21,2.33.21,3.5.02,9.39-.01,18.78.03,28.17,0,1.76-.58,2.98-2.26,3.59H2.24c-1.11-.38-1.86-1.13-2.24-2.24,0-10.56,0-21.13,0-31.69ZM27.6,53.2c0-3.49,0-6.9,0-10.31,0-.5-.09-.99-.16-1.48-.53-3.67-1.93-6.97-4.11-9.97-2.94-4.04-4.47-8.58-4.55-13.58-.04-2.56-.01-5.13-.02-7.7,0-.29-.03-.57-.04-.85h-7.73c0,2.51-.03,4.98,0,7.44.07,5.54-1.52,10.53-4.79,15.01-2.77,3.8-4.1,8.08-4.11,12.78,0,2.64,0,5.28,0,7.92,0,.24,0,.48,0,.7h7.01c-1.41-3.82-.94-6.49,1.45-8.54,2.09-1.78,5.12-2.2,7.46-.77,3.69,2.25,4.3,5.5,2.61,9.34h6.97ZM2.15,55.32v10.99h25.45v-10.99c-.32,0-.59,0-.86,0-2.74,0-5.48,0-8.22,0-.61,0-1.17-.04-1.41-.71-.23-.64.15-1.03.61-1.38.06-.04.12-.09.17-.14,1.42-1.27,1.9-3.27,1.21-5.05-.68-1.77-2.39-2.92-4.3-2.9-1.9.01-3.58,1.21-4.22,3.01-.68,1.88-.13,3.77,1.5,5.15.71.6.82,1.32.2,1.74-.28.19-.69.26-1.05.26-3.01.02-6.02.01-9.1.01ZM2.09,68.5c0,1.6,0,3.16,0,4.72,0,1.04.18,1.23,1.2,1.23,4.25,0,8.51,0,12.76,0,3.48,0,6.97,0,10.45,0,.93,0,1.13-.21,1.14-1.14,0-.92,0-1.84,0-2.76,0-.68,0-1.37,0-2.04H2.09ZM10.2,7.13h9.32V2.13h-9.32v4.99Z"/>
        <path d="M39.86,76.53c-.28-.09-.56-.19-.84-.28-2.43-.78-4.08-2.94-4.09-5.48-.02-10.76,0-21.52,0-32.27,0-.9.38-1.27,1.27-1.27,7.37,0,14.74,0,22.11,0,.89,0,1.27.38,1.27,1.27,0,10.76.01,21.52,0,32.27,0,2.65-1.81,4.89-4.37,5.58-.19.05-.37.12-.55.18h-14.79ZM37.02,39.34v.73c0,10.11,0,20.22,0,30.33,0,2.5,1.55,4.03,4.07,4.04,4.08,0,8.17,0,12.25,0,2.65,0,4.16-1.51,4.16-4.17,0-10.03,0-20.07,0-30.1v-.82h-20.47Z"/>
        <path class="cls-1" d="M0,74.29c.38,1.12,1.13,1.86,2.24,2.24H0v-2.24Z"/>
        <path d="M54.8,62.86c0,2.49,0,4.98,0,7.47,0,1.08-.34,1.42-1.43,1.42-4.08,0-8.16,0-12.24,0-1.08,0-1.42-.34-1.42-1.43,0-5.03,0-10.06,0-15.08,0-1.09.34-1.42,1.43-1.42,4.08,0,8.16,0,12.24,0,1.08,0,1.42.34,1.42,1.43,0,2.54,0,5.08,0,7.62ZM52.68,55.96h-10.82v13.66h10.82v-13.66Z"/>
      </g>
    </g>
  </g>
</svg>