<?xml version="1.0" encoding="UTF-8"?>
<svg id="Capa_2" xmlns="http://www.w3.org/2000/svg" viewBox="0 0 84.38 116.02">
  <defs>
    <style>
      .cls-1 {
        stroke: #000;
        stroke-miterlimit: 10;
        stroke-width: .25px;
      }
    </style>
  </defs>
  <g id="Capa_1-2" data-name="Capa_1">
    <g>
      <path class="cls-1" d="M26.14,115.9c-.12-.08-.23-.17-.37-.23-1.57-.66-2.5-1.82-2.55-3.53-.05-1.76.82-2.99,2.42-3.74,3.65-1.71,7.27-3.46,10.94-5.11.86-.39,1.12-.84,1.11-1.76-.05-4.6,0-9.2-.05-13.79,0-.56-.29-1.25-.69-1.64-4.88-4.87-9.9-9.6-14.71-14.55-8.79-9.04-12.69-19.92-11.74-32.51.06-.73-.09-1.1-.81-1.45C2.41,34.09-1.33,26.09.65,18.36c1.98-7.76,9.18-12.99,17.29-12.56,6.51.35,12.54,4.89,14.66,11.05.08.24.13.5.21.83-.67.21-1.31.41-2.05.64-1.53-4.4-4.36-7.56-8.67-9.28-2.92-1.16-5.93-1.31-8.98-.51-5.93,1.57-10.41,7.07-10.69,13.13-.28,6.04,3.36,12.07,8.42,13.9.04-.08.1-.17.13-.26.49-1.3.12-2.04-1.12-2.87-4.58-3.05-6.34-8.95-4.45-14.09,1.9-5.17,7.04-8.46,12.49-8,5.52.47,10.05,4.63,10.99,10.08.05.29.13.58.22.95.4,0,.77,0,1.14,0,7.08,0,14.17-.02,21.25.03.97,0,1.27-.32,1.48-1.19,1.2-5.09,2.46-10.17,3.7-15.25.79-3.26,2.78-4.82,6.15-4.82,6.52,0,13.04,0,19.56,0,1.63,0,1.87.24,1.87,1.91,0,1.09,0,2.19,0,3.28-.01,1.25-.35,1.59-1.63,1.59-5.92,0-11.83,0-17.75,0-1.6,0-1.73.12-2.12,1.71-.94,3.84-1.88,7.67-2.82,11.51-.09.36-.15.73-.25,1.23,2.39,0,4.72.05,7.04-.02,1.05-.03,1.64.34,2.14,1.25,9.05,16.36,6.04,36.37-7.52,49.75-4.64,4.58-9.3,9.14-13.91,13.75-.39.39-.69,1.08-.69,1.64-.05,4.67-.01,9.35-.05,14.02,0,.76.23,1.12.91,1.43,3.49,1.59,6.94,3.27,10.44,4.85,1.73.78,3.06,1.82,3.13,3.88.06,2.06-1.21,3.2-2.92,3.99H26.14ZM52.11,23.64c-11.46,0-22.73,0-33.99.03-.31,0-.75.33-.91.62-3.87,7.3-5.36,15.07-4.29,23.27,1.21,9.32,5.37,17.14,12.12,23.64,4.69,4.52,9.32,9.11,13.95,13.71.44.44.89,1.12.9,1.7.07,5.5.06,11,0,16.51,0,.5-.48,1.18-.93,1.46-1.02.63-2.15,1.07-3.24,1.58-3,1.4-6,2.8-8.99,4.21-1.27.6-1.72,1.81-.89,2.59.43.4,1.2.64,1.81.64,9.65.04,19.3.02,28.94.03,1.01,0,1.94-.1,2.21-1.27.27-1.17-.5-1.68-1.42-2.11-3.89-1.8-7.76-3.66-11.67-5.43-.96-.43-1.34-1-1.33-2.06.05-5.24.04-10.48,0-15.71,0-.9.28-1.54.92-2.17,5.2-5.08,10.46-10.11,15.54-15.31,11.6-11.86,14.18-30.37,6.43-45.01-.37-.69-.78-.95-1.56-.92-1.88.06-3.77.05-5.65,0-.73-.02-1.03.19-1.2.94-.99,4.25-2.05,8.48-3.09,12.72-.29,1.19-.6,2.37-.9,3.59-.8-.22-1.44-.39-2.15-.59,1.36-5.58,2.69-11.05,4.03-16.6h-2.32c-1.65,6.74-3.29,13.47-4.96,20.3h1.39c5.24,0,10.48.04,15.71-.01,3.18-.03,3.05.25,2.67,3.19-1.14,8.81-5.03,16.23-11.43,22.38-3.91,3.76-7.82,7.53-11.59,11.43-1.4,1.45-2.83,2.18-4.84,1.95-.79-.09-1.41-.23-2-.81-4.47-4.43-8.99-8.81-13.46-13.24-6.42-6.37-10.1-14.05-10.91-23.08-.13-1.47.18-1.78,1.7-1.79,2.6,0,5.2.01,7.8-.02.36,0,.81-.14,1.05-.38,1.34-1.36,2.58-2.83,3.96-4.16,1.28-1.22,3.23-1.23,4.52,0,1.38,1.32,2.63,2.78,3.95,4.17.16.17.4.36.61.36,2.82.02,5.64.02,8.51.02,1.66-6.78,3.3-13.5,4.98-20.35ZM17.36,46.32c0,.21-.02.36,0,.51.91,6.95,3.48,13.23,8.26,18.35,4.86,5.2,10.07,10.07,15.13,15.07.66.65,2.36.54,3.07-.15,4.47-4.38,9-8.69,13.35-13.18,1.92-1.99,3.64-4.23,5.14-6.56,2.73-4.23,4.2-8.96,4.76-13.97-.16-.05-.27-.11-.37-.11-9.31,0-18.61-.01-27.92,0-.25,0-.57.14-.74.33-1.32,1.38-2.57,2.84-3.94,4.18-1.22,1.19-3.07,1.31-4.33.2-1.6-1.41-3.04-3-4.7-4.66h-7.71ZM57.29,21.31c.1-.38.2-.74.29-1.1,1.02-4.16,2.03-8.33,3.06-12.49.56-2.25,1.62-3.07,3.93-3.07,5.39,0,10.78,0,16.16,0,.4,0,.8,0,1.19,0v-2.2c-.19-.02-.33-.06-.47-.06-6.37,0-12.73-.02-19.1,0-1.79,0-2.97,1.01-3.43,2.85-.69,2.77-1.36,5.55-2.04,8.33-.62,2.55-1.24,5.1-1.88,7.73h2.28ZM31.73,49.54c.33-.15.65-.22.85-.41,1.09-1.04,2.16-2.1,3.2-3.19.53-.56.43-1.18-.09-1.71-.97-1-1.96-1.98-2.95-2.96-.62-.62-1.25-.6-1.87.02-.96.96-1.91,1.92-2.88,2.88-.67.66-.64,1.31.01,1.96.96.96,1.91,1.93,2.89,2.87.23.22.55.36.85.55ZM7.06,23.68c.19,2.08.97,3.87,1.79,4.62,1.6-1.6,3.19-3.19,4.62-4.62h-6.41ZM15.69,19.51v-7.13c-1.78.74-3.39,1.4-5.02,2.08,1.8,1.81,3.38,3.4,5.02,5.05ZM18.06,12.37v7.01c1.58-1.59,3.17-3.19,4.93-4.96-1.56-.65-3.15-1.31-4.93-2.05ZM9.02,16.5c-1.17,1.36-1.9,3.19-1.88,4.77h6.65c-1.6-1.6-3.18-3.19-4.76-4.77ZM20.02,21.24h6.98c-.76-1.78-1.42-3.34-2.08-4.91-1.76,1.76-3.34,3.35-4.9,4.91ZM11.92,31.17c.32-1.01.59-1.85.86-2.7-.71.64-1.37,1.23-2.08,1.87.41.28.74.51,1.22.83Z"/>
      <path class="cls-1" d="M40.78,65.26c-.71,0-1.43.02-2.14,0-2.01-.06-3.4-1.43-3.44-3.42-.03-1.5-.04-3.01,0-4.51.05-1.91,1.47-3.31,3.39-3.36,1.5-.04,3.01-.04,4.51,0,1.93.05,3.33,1.45,3.38,3.37.04,1.54.05,3.08,0,4.62-.06,1.87-1.45,3.22-3.33,3.29-.79.03-1.58,0-2.37,0ZM40.84,63h0c.68,0,1.35,0,2.03,0,.93,0,1.37-.46,1.37-1.39,0-1.35,0-2.7,0-4.05,0-.87-.44-1.33-1.31-1.34-1.39-.01-2.78-.01-4.17,0-.87,0-1.31.47-1.31,1.34,0,1.39,0,2.78,0,4.17,0,.81.42,1.26,1.25,1.27.71.01,1.43,0,2.14,0Z"/>
    </g>
  </g>
</svg>