<?xml version="1.0" encoding="UTF-8"?>
<svg id="Capa_2" xmlns="http://www.w3.org/2000/svg" viewBox="0 0 39.29 76">
  <g id="Capa_1-2" data-name="Capa_1">
    <g id="zFowyo.tif">
      <g>
        <path d="M27.52,0c1.39.6,1.87,1.68,1.79,3.15-.07,1.28-.01,2.57-.02,3.86,0,1.89-.62,2.63-2.53,3,0,1.42,0,2.85,0,4.28,0,1.19.03,2.38-.01,3.56-.02.52.14.79.65.97,2.2.77,4.12,2.01,5.86,3.55.57.51.66,1.14.26,1.63-.4.49-1.05.53-1.65.09-.04-.03-.08-.06-.12-.09-1.64-1.48-3.51-2.55-5.58-3.29-1.14-.41-1.66-1.22-1.64-2.44.03-2.47,0-4.95,0-7.42,0-.27,0-.53,0-.85h-9.76c0,.27,0,.53,0,.8,0,2.45,0,4.9,0,7.35,0,1.5-.42,2.11-1.79,2.63-5.73,2.18-9.23,6.28-10.45,12.27-.23,1.13-.27,2.31-.27,3.47-.02,8.16-.01,16.32-.02,24.49,0,.34,0,.7-.09,1.03-.14.55-.55.82-1.11.78-.56-.04-.9-.37-1-.92-.03-.15-.03-.3-.03-.44,0-8.76-.06-17.51.05-26.27.08-7.1,4.88-13.74,11.55-16.25.73-.27.96-.6.94-1.36-.05-2.5-.02-4.99-.02-7.54-.18-.04-.34-.07-.5-.1-1.21-.25-1.99-1.08-2.02-2.31-.04-1.76-.03-3.51,0-5.27.02-1.18.76-1.86,1.76-2.33h15.73ZM12.27,7.64h14.73V2.28h-14.73v5.36Z"/>
        <path d="M2.73,76c-.63-.41-1.4-.7-1.86-1.26-.45-.55-.77-1.36-.81-2.07-.11-1.95-.05-3.91-.04-5.86,0-.79.4-1.25,1.05-1.28.66-.03,1.15.45,1.16,1.25.03,1.76,0,3.51.01,5.27,0,1.36.36,1.72,1.71,1.72,10.49,0,20.97,0,31.46,0,1.2,0,1.64-.38,1.64-1.49,0-12.32,0-24.63-.03-36.95,0-2.73-.83-5.25-2.21-7.6-.09-.15-.18-.29-.27-.45-.39-.71-.27-1.36.3-1.69.57-.32,1.19-.11,1.62.58,1.89,3.01,2.81,6.29,2.81,9.84,0,12.09,0,24.19,0,36.28,0,1.93-1.02,3.05-2.72,3.7H2.73Z"/>
        <path d="M19.57,44.41c-3.44,0-6.87,0-10.31,0-2.15,0-3.27-1.14-3.28-3.3,0-.67-.01-1.34,0-2,.04-1.77,1.22-2.98,2.99-3.01,1.56-.03,3.12,0,4.67,0,5.41,0,10.83,0,16.24,0,2.29,0,3.43,1.13,3.43,3.4,0,.64,0,1.29,0,1.93-.04,1.78-1.21,2.98-2.99,2.99-3.58.02-7.17,0-10.76,0ZM19.62,42.18c3.41,0,6.82,0,10.23,0,1.17,0,1.25-.08,1.25-1.28,0-.44,0-.89,0-1.33,0-1.13-.13-1.26-1.29-1.26-6.35,0-12.7,0-19.05,0-.52,0-1.04.01-1.56,0-.67-.02-1.02.27-.99.97.02.59,0,1.19,0,1.78,0,1,.13,1.13,1.1,1.13,3.43,0,6.87,0,10.3,0Z"/>
        <path d="M19.67,54.91c-2.27,0-4.55,0-6.82,0-1.78,0-2.71-.92-2.72-2.68,0-.59-.02-1.19.01-1.78.05-1.21.85-2.08,2.05-2.26.29-.04.59-.05.89-.06,4.37,0,8.75,0,13.12,0,2.13,0,2.98.84,2.98,2.94,0,.35,0,.69,0,1.04-.01,1.87-.91,2.78-2.76,2.79-2.25,0-4.5,0-6.75,0ZM12.39,52.63h14.51v-2.21h-14.51v2.21Z"/>
        <path d="M16.1,30.01c.01.15.03.3.03.44.01.71-.36,1.2-.97,1.27-.6.07-1.07-.33-1.21-1.05-.72-3.6,2.29-7.01,6.03-6.77,2.42.15,4.13,1.42,5.04,3.64.91,2.21.35,4.73-1.34,6.27-1.82,1.66-3.92,2.08-6.25,1.2-.27-.1-.63-.24-.73-.46-.17-.36-.34-.91-.18-1.2.18-.32.72-.47,1.13-.6.17-.06.42.11.62.19,1.64.6,3.25.17,4.24-1.16.93-1.24.94-2.96.03-4.22-.94-1.29-2.58-1.8-4.09-1.28-1.53.53-2.45,1.98-2.36,3.72Z"/>
        <path d="M19.61,47.39c-2.62,0-5.24,0-7.86,0-.36,0-.8-.04-1.04-.25-.25-.22-.45-.69-.4-1.01.05-.32.39-.66.69-.84.24-.15.62-.12.94-.12,5.14,0,10.28,0,15.43,0,.15,0,.3,0,.44,0,.82.06,1.27.49,1.24,1.17-.03.65-.48,1.04-1.28,1.04-2.72.01-5.44,0-8.16,0Z"/>
        <path d="M19.64,71.16c-.79,0-1.58.02-2.37,0-.78-.02-1.24-.43-1.26-1.07-.02-.63.45-1.12,1.2-1.13,1.63-.03,3.26-.03,4.89,0,.75.02,1.21.52,1.18,1.15-.03.61-.47,1.02-1.2,1.05-.81.03-1.63,0-2.45,0,0,0,0,0,0,0Z"/>
      </g>
    </g>
  </g>
</svg>