<?xml version="1.0" encoding="UTF-8"?>
<svg id="Capa_2" xmlns="http://www.w3.org/2000/svg" viewBox="0 0 111 92.9">
  <defs>
    <style>
      .cls-1 {
        stroke-miterlimit: 10;
      }

      .cls-1, .cls-2 {
        stroke: #000;
        stroke-width: .75px;
      }

      .cls-2 {
        stroke-linecap: round;
        stroke-linejoin: round;
      }
    </style>
  </defs>
  <g id="Capa_1-2" data-name="Capa_1">
    <g>
      <g>
        <path d="M108.2,2.98c-3.65.58-6.18,2.4-8.15,5.06-2.3,3.11-3.31,6.64-3.3,10.5.02,8.66,0,17.32,0,25.97,0,.46.16,1.01-.04,1.36-.39.69-.98,1.28-1.49,1.91-.45-.63-1.28-1.25-1.28-1.88-.01-10.1-.19-20.21.24-30.29.31-7.31,5.86-13.65,12.29-15.21,3.13-.76,4.51.28,4.51,3.48,0,27.61,0,55.23,0,82.84,0,3.63-2.12,5.99-5.32,6-3.18.02-5.36-2.29-5.38-5.96-.05-11.54-.03-23.09-.04-34.63,0-1.02.02-2.18,1.36-2.19,1.44,0,1.49,1.2,1.49,2.29,0,11.02,0,22.04-.01,33.06,0,.52-.02,1.05,0,1.57.08,1.9,1.1,3.16,2.6,3.03,1.76-.15,2.47-1.3,2.48-2.95.02-1.71.02-3.41.02-5.12,0-25.32,0-50.64,0-75.95,0-.9,0-1.79,0-2.91Z"/>
        <path d="M5.57,62.18c0-8.13-.02-16.27.02-24.4,0-1.19-.23-2.03-1.27-2.81C1.4,32.8.03,29.77.03,26.13c0-7.87,0-15.74,0-23.61,0-.46-.13-1.05.1-1.34C.49.72,1.08.24,1.6.21c.37-.02.95.61,1.13,1.06.21.51.1,1.16.1,1.75,0,7.54.02,15.08,0,22.63,0,3.42,1.24,6.17,4.31,7.82,1.36.73,1.26,1.84,1.26,3.02,0,16.4,0,32.79,0,49.19,0,.72-.05,1.46.1,2.15.3,1.4,1.25,2.19,2.68,2.06,1.32-.11,2.16-.9,2.26-2.29.05-.65.05-1.31.05-1.97,0-13.84,0-27.68,0-41.52,0-.46-.16-1.01.03-1.36.39-.7.97-1.3,1.47-1.93.45.62,1.26,1.23,1.29,1.87.15,2.68.07,5.37.07,8.06,0,11.94,0,23.87,0,35.81,0,3.25-1.45,5.35-4.02,6-3.59.91-6.74-1.69-6.75-5.61-.02-8.26,0-16.53,0-24.79h0Z"/>
        <path d="M19.44,69.6c19.2,30.14,64.39,25.91,77.7-6.39.44,3.49-.03,6.48-2.11,9.47-17.61,25.33-53.99,27.18-73.96,3.72-1.75-2.05-2.01-4.1-1.63-6.8Z"/>
        <path d="M90.72,18.82C73.15-2.8,41.46-1.28,25.05,16.15c-.35-1.93-.5-3.44,1.19-4.92,18.45-16.1,47.13-14.77,63.86,3.15.9.96.8,2.86,1.16,4.32-.18.04-.36.08-.55.11Z"/>
        <path d="M21.91,14.54c0,3.86.03,7.73,0,11.59-.05,4.26-1.89,7.55-5.57,9.74-.86.51-1.85,1.02-2.55-.18-.71-1.22.24-1.75,1.12-2.27,2.88-1.67,4.14-4.2,4.13-7.49-.03-7.47,0-14.93,0-22.4,0-.59-.18-1.28.07-1.74.33-.64.98-1.12,1.49-1.67.44.55,1.23,1.08,1.25,1.65.13,2.88.07,5.76.07,8.64,0,1.38,0,2.75,0,4.13Z"/>
        <path d="M6.36,12.18c0-3.28,0-6.56,0-9.84,0-1.02,0-2.14,1.35-2.19,1.37-.05,1.47,1.03,1.46,2.08,0,6.82.03,13.64-.07,20.46,0,.68-.75,1.83-1.29,1.92-1.31.21-1.46-.93-1.46-2,.01-3.48,0-6.95,0-10.43h0Z"/>
        <path d="M12.69,12.18c0-3.28,0-6.56,0-9.84,0-1.02.02-2.13,1.37-2.18,1.39-.06,1.47,1.05,1.47,2.08,0,6.82.04,13.64-.05,20.46,0,.67-.77,1.82-1.32,1.91-1.3.21-1.47-.92-1.47-1.99.01-3.48,0-6.95,0-10.43Z"/>
      </g>
      <g id="TRwRUr.tif">
        <g>
          <path class="cls-2" d="M65.65,16.52c12.11,4.96,19.47,17.17,18.3,30.13-1.22,13.62-11.86,24.67-25.13,26.62-13.99,2.06-26.75-5.73-31.9-18.26,6.1,3.57,12.54,4.87,19.4,3.68,6.89-1.19,12.66-4.48,16.94-9.98,7.89-10.14,8.22-20.95,2.39-32.19ZM30.72,58.78c4.83,8.24,16.22,15.43,29.85,12.55,12.34-2.61,21.86-14.49,21.86-27.35,0-4.85-1.16-9.41-3.51-13.66-2.23-4.03-7.66-9.63-9.74-10.06,4.68,12.3.84,24.65-6.79,31.91-9.15,8.69-19.83,10.5-31.66,6.62Z"/>
          <path class="cls-1" d="M34.01,48.16c.22-1.24.42-2.59.69-3.92.11-.54.01-.9-.4-1.28-.92-.83-1.78-1.72-2.67-2.59-.37-.36-.63-.75-.46-1.29.17-.57.6-.76,1.15-.84,1.29-.17,2.57-.39,3.86-.54.42-.05.64-.22.82-.59.55-1.17,1.15-2.33,1.72-3.5.24-.49.56-.84,1.16-.83.57.01.86.37,1.09.84.57,1.19,1.14,2.38,1.76,3.55.13.24.45.46.71.51,1.32.24,2.65.42,3.97.6.51.07.9.28,1.06.78.17.52-.02.94-.41,1.31-.94.9-1.86,1.82-2.81,2.71-.31.29-.43.56-.34,1,.25,1.23.44,2.48.65,3.72.09.54.12,1.07-.4,1.43-.51.36-.99.21-1.48-.06-1.14-.62-2.29-1.23-3.45-1.81-.23-.11-.6-.11-.82,0-1.24.61-2.45,1.28-3.68,1.9-.87.44-1.73-.08-1.71-1.1ZM39.83,34.99c-.53,1.08-1.05,2-1.45,2.97-.36.86-.93,1.24-1.84,1.31-1.04.08-2.07.29-3.09.44.81.85,1.54,1.69,2.35,2.44.57.54.74,1.09.58,1.85-.23,1.08-.38,2.18-.59,3.4,1.11-.58,2.11-1.06,3.07-1.62.67-.39,1.26-.38,1.94,0,.95.56,1.95,1.04,3.05,1.62-.21-1.25-.35-2.38-.59-3.48-.16-.73.05-1.23.56-1.73.81-.79,1.55-1.65,2.32-2.48-1.03-.15-2.14-.34-3.26-.47-.72-.08-1.18-.39-1.48-1.07-.46-1.03-.99-2.04-1.56-3.19Z"/>
          <path class="cls-1" d="M45.36,30.68c.13-.77.29-1.57.38-2.37.03-.23-.08-.55-.23-.73-.49-.54-1.03-1.04-1.56-1.54-.33-.32-.53-.68-.38-1.14.16-.49.54-.68,1.02-.74.7-.09,1.41-.16,2.11-.31.25-.05.54-.27.67-.49.37-.63.67-1.3.99-1.95.2-.41.49-.69.98-.69.49,0,.77.3.97.71.31.64.65,1.27.93,1.92.16.37.41.5.78.55.69.08,1.38.13,2.04.31.37.1.77.38.97.69.25.42,0,.85-.36,1.18-.43.4-.81.86-1.28,1.22-.53.41-.62.87-.46,1.48.15.57.21,1.16.32,1.74.08.45.04.94-.4,1.12-.35.14-.83.14-1.19,0-.64-.24-1.25-.59-1.83-.95-.38-.23-.69-.21-1.06.01-.63.37-1.28.71-1.94,1.01-.78.36-1.52-.15-1.47-1.03ZM45.9,25.53c.01.06.03.12.04.18.37.37.73.74,1.1,1.09.37.35.52.74.4,1.25-.12.5-.17,1.02-.25,1.54.02.06.03.12.05.18,1.38-1.26,2.76-1.23,4.23.08-.12-.73-.17-1.22-.28-1.68-.15-.61.02-1.07.5-1.45.37-.3.74-.6,1.1-.9-.05-.06-.11-.13-.16-.19-.48-.08-.95-.18-1.43-.22-.6-.05-.96-.34-1.19-.88-.19-.45-.43-.88-.65-1.32l-.17-.07c-.36,1.8-1.47,2.59-3.3,2.39Z"/>
          <path class="cls-1" d="M51.82,39.43c.53-.96,0-1.69-.81-2.4-.38-.33-.13-.89.36-1.04.04-.01.08-.02.12-.02,1.03.05,1.61-.46,1.96-1.41.23-.62.88-.59,1.22-.03.04.07.09.14.11.22.22.84.79,1.17,1.63,1.22.28.02.71.26.78.49.07.24-.14.69-.36.85-.71.52-.84,1.14-.62,1.95.07.26-.02.7-.21.85-.18.14-.66.13-.86-.02-.77-.55-1.44-.47-2.21.02-.58.38-1.11.08-1.12-.69ZM52.56,36.99c.65.44.74,1.05.61,1.76.63-.52,1.21-.34,1.63-.09.2-.6.38-1.15.57-1.72-.59.03-1.05-.34-1.32-1.05-.24.75-.73,1.05-1.49,1.09Z"/>
        </g>
      </g>
    </g>
  </g>
</svg>