<?xml version="1.0" encoding="UTF-8"?>
<svg id="Capa_2" xmlns="http://www.w3.org/2000/svg" viewBox="0 0 64.14 66.34">
  <g id="Capa_1-2" data-name="Capa_1">
    <g id="vGfbQN.tif">
      <g>
        <path d="M.92,0h47.42c.69.33.91.87.91,1.62-.02,5.46,0,10.92,0,16.37v.55c1.32-.02,2.58-.12,3.84-.05,1.64.08,2.59,1.51,2.16,3.11-1.16,4.37-2.33,8.74-3.49,13.11-.21.8-.41,1.61-.63,2.44.72.11,1.36.19,1.99.29,2.79.45,5.56,1,8.13,2.24,1.31.63,2.42,1.48,2.9,2.94v1.94c-.13.87-.23,1.75-.38,2.62-2.65,15.84-20.71,24.16-34.51,15.93-.36-.22-.84-.34-1.26-.35-5.83-.02-11.66,0-17.48-.03-.6,0-1.25-.14-1.8-.37-2.55-1.06-5.06-2.19-7.61-3.25C.3,58.79,0,58.29,0,57.44.01,38.83.01,20.22,0,1.62,0,.86.22.32.92,0ZM25.22,60.26c.04-.07.09-.13.13-.2-.3-.25-.62-.47-.89-.75-4.29-4.47-6.45-9.81-6.58-16-.02-.85.24-1.6.85-2.16.55-.5,1.15-1.03,1.82-1.32,1.46-.62,2.96-1.22,4.5-1.59,5.92-1.41,11.94-1.76,18-1.62.56.01.77-.13.91-.68.73-2.86,1.49-5.72,2.29-8.56.38-1.36.54-2.73.54-4.14-.03-6.67-.01-13.35-.01-20.02v-.72H11.15v57.75h14.07ZM20.71,46.59c1,8.51,9.34,17.86,21.39,17.24,5.97-.31,10.91-2.86,14.76-7.44,2.4-2.85,3.89-6.14,4.5-9.96-3.27,1.5-6.62,2.09-10,2.51-4.87.61-9.76.81-14.66.53-3.92-.22-7.83-.58-11.65-1.55-1.47-.37-2.91-.9-4.34-1.35ZM8.54,59.64V2.51H2.47v.75c0,17.68,0,35.36,0,53.04,0,.15-.03.31.01.45.04.14.13.33.25.38,1.91.84,3.83,1.66,5.8,2.51ZM50.48,39.58c-.1.36-.18.65-.26.94-.08.29-.14.59-.23.87-.23.66-.84.99-1.48.84-.62-.15-1.01-.79-.89-1.45.03-.17.08-.34.12-.5,1.31-4.91,2.62-9.83,3.93-14.74.4-1.51.8-3.03,1.22-4.62-.64,0-1.2.03-1.75,0-.46-.03-.66.11-.78.59-1.64,6.3-3.32,12.59-4.99,18.88-.23.87-.8,1.28-1.53,1.11-.73-.17-1.06-.82-.86-1.68.05-.22.09-.44.14-.7-.5-.02-.93-.07-1.36-.06-2.39.07-4.79.08-7.18.24-3.43.22-6.83.67-10.13,1.66-1.09.33-2.16.75-3.17,1.26-1.2.6-1.18,1.17.02,1.81.72.38,1.48.71,2.25.96,4.16,1.36,8.46,1.82,12.8,2.06,5.01.27,10.01.14,14.99-.51,2.72-.36,5.42-.84,7.98-1.84.71-.28,1.39-.69,2.04-1.1.42-.26.41-.66,0-.94-.44-.3-.9-.61-1.38-.83-2.99-1.33-6.19-1.81-9.47-2.24Z"/>
        <path d="M21.97,17.96c.06-1.04.04-2.1.2-3.13.21-1.42.9-2.65,1.89-3.69,1.08-1.12,2.18-2.21,3.29-3.3.62-.61,1.27-.62,1.88-.02,1.14,1.12,2.3,2.22,3.38,3.4,1.74,1.91,2.29,4.19,1.88,6.82,2.31-.83,4.64-.46,6.95-.52,1.23-.03,1.63.39,1.63,1.62,0,1.43.03,2.85-.01,4.28-.13,4.26-3.41,7.53-7.67,7.64-1.47.04-2.94.02-4.4,0-1,0-1.43-.48-1.44-1.5,0-1.53,0-3.06,0-4.58-.42.19-.81.5-1.21.5-.4,0-.81-.28-1.25-.46,0,1.43,0,2.91,0,4.39,0,1.23-.4,1.65-1.62,1.64-1.55,0-3.12.07-4.66-.05-4.17-.34-7.15-3.54-7.25-7.71-.04-1.45-.02-2.89,0-4.34.01-.98.47-1.45,1.43-1.44,1.83.02,3.67.05,5.5.12.52.02,1.04.22,1.49.33ZM24.6,28.5c0-1.24.09-2.49-.02-3.73-.21-2.31-1.94-4.3-4.13-4.64-1.43-.22-2.91-.16-4.37-.22-.04.22-.07.32-.07.43.01,1.18-.03,2.37.06,3.55.18,2.26,2.08,4.33,4.33,4.58,1.36.15,2.75.03,4.2.03ZM40.53,19.99c-1.24,0-2.45-.08-3.65.02-2.48.21-4.43,1.98-4.77,4.45-.18,1.33-.03,2.7-.03,4.08,1.25,0,2.52.09,3.78-.02,2.34-.2,4.31-1.97,4.63-4.29.19-1.37.03-2.79.03-4.25ZM28.35,22.43c.81-.8,1.68-1.57,2.46-2.44,1.75-1.94,1.87-4.84.2-6.83-.82-.98-1.86-1.78-2.8-2.66-.74.73-1.6,1.51-2.39,2.37-1.8,1.94-1.88,4.99-.13,6.98.81.92,1.76,1.71,2.66,2.58Z"/>
        <path d="M35.64,44.28h-2.34c-.19-.66-.53-1.23-1.34-1.19-.71.03-1.06.49-1.21,1.18h-2.36c-.12-1.92,1.55-3.62,3.57-3.65,2.03-.04,3.74,1.64,3.68,3.67Z"/>
        <path d="M45.54,45.52c-.77,0-1.46.02-2.14-.02-.13,0-.31-.18-.37-.32-.22-.53-.58-.86-1.16-.86-.58,0-.95.31-1.19.83-.08.16-.31.35-.48.36-.64.04-1.29.02-2.02.02.02-1.27.52-2.24,1.49-2.95,1.2-.87,2.51-.99,3.84-.32,1.27.64,1.93,1.72,2.03,3.27Z"/>
      </g>
    </g>
  </g>
</svg>