<?xml version="1.0" encoding="UTF-8"?>
<svg id="Capa_2" xmlns="http://www.w3.org/2000/svg" viewBox="0 0 54.16 72.21">
  <g id="Capa_1-2" data-name="Capa_1">
    <g id="QuEYFd.tif">
      <g>
        <path d="M54.16,38.06v.9c-.05.19-.12.38-.16.57-.75,4.06-1.48,8.11-2.23,12.17-.19,1.02-.68,1.35-1.69,1.2-.61-.09-1.23-.18-1.93-.28v.87c0,5.21-.03,10.41.02,15.62.02,1.48-.47,2.51-1.83,3.1H6.62c-1.36-.59-1.84-1.62-1.83-3.1.05-5.74,0-11.47.04-17.21.01-1.35-.2-2.6-.73-3.85-.83-1.95-1.54-3.96-2.32-5.94C1.2,40.65.59,39.21,0,37.76c0-.3,0-.6,0-.9.37-.33.72-.67,1.11-.97,1.03-.79,2.07-1.59,3.13-2.34.44-.31.58-.65.58-1.18-.02-9.75,0-19.51-.03-29.26,0-1.48.45-2.52,1.83-3.1h39.72c1.36.59,1.83,1.63,1.83,3.1-.04,9.6,0,19.19-.04,28.79,0,.88.23,1.45.94,2,1.74,1.34,3.4,2.78,5.09,4.17ZM33.7,42.97c0-1,0-1.98,0-2.95,0-1.08.42-1.49,1.51-1.5,2.11,0,4.21,0,6.32,0,1.36,0,1.63.22,1.89,1.56.77-.23,1.53-.45,2.28-.67V2.46H7.22c0,.33,0,.6,0,.87,0,5.79,0,11.58,0,17.38,0,5.97,0,11.94,0,17.9,0,.27.04.68.22.79.67.45,1.4.81,2.16,1.23.01-.22.02-.32.02-.42.03-1.38.35-1.7,1.76-1.7,2.13,0,4.26,0,6.39,0,1.04,0,1.47.43,1.47,1.46,0,1.81,0,3.61,0,5.42,0,.83.97,1.54,1.79,1.34.46-.11.64-.31.63-.82-.03-1.96-.02-3.91-.01-5.87,0-1.12.42-1.53,1.55-1.53,2.18,0,4.36,0,6.54,0,1.12,0,1.53.42,1.53,1.55,0,1.17,0,2.35,0,3.61.84-.25,1.6-.47,2.41-.71ZM7.25,63.74h38.43v-11.45c-.84-.13-1.63-.22-2.42-.37-.52-.1-.88.06-1.25.44-1.86,1.9-3.75,3.77-5.63,5.64-1.26,1.26-1.41,1.27-2.85.31-4.1-2.74-8.21-5.47-12.31-8.22-.46-.31-.72-.3-1.12.1-3.1,3.14-6.23,6.25-9.35,9.36-1.01,1-1.86.82-2.39-.5-.34-.86-.68-1.73-1.03-2.59l-.1.04v7.25ZM34.83,56.27c.21-.26.37-.49.56-.69,1.87-1.88,3.76-3.76,5.63-5.64.42-.42.86-.67,1.47-.57.79.13,1.58.24,2.38.35,1.55.22,3.11.44,4.71.66.61-3.38,1.21-6.7,1.84-10.16-9.42,2.79-18.7,5.54-28.14,8.34,3.92,2.61,7.66,5.11,11.55,7.7ZM45.7,66.25H7.26v3.52h38.44v-3.52ZM3.54,40.01c2.22,5.71,4.36,11.22,6.44,16.56,2.77-2.77,5.53-5.52,8.29-8.28-4.78-2.69-9.66-5.43-14.73-8.28ZM28.84,44.41v-3.44h-4.74v4.83c1.6-.47,3.15-.93,4.74-1.4ZM16.79,44.69v-3.73h-4.9c.18.48.21,1.03.48,1.2,1.42.88,2.9,1.67,4.42,2.52ZM40.14,41.06s-.02-.05-.02-.08h-3.98v1.26c1.37-.4,2.69-.79,4.01-1.18ZM48.18,36.23v2.44c.73-.22,1.41-.42,2.21-.66-.76-.62-1.43-1.16-2.21-1.78ZM4.75,37.92v-1.76c-.47.36-.86.65-1.33,1.01.49.27.88.5,1.33.75Z"/>
        <path d="M9.63,12.04c0-1.91,0-3.81,0-5.72,0-1.08.42-1.5,1.5-1.5,2.21,0,4.41,0,6.62,0,1.08,0,1.5.42,1.5,1.5,0,3.81,0,7.62,0,11.43,0,1.08-.42,1.5-1.5,1.5-2.21,0-4.41,0-6.62,0-1.08,0-1.5-.42-1.5-1.5,0-1.91,0-3.81,0-5.72ZM16.8,16.82V7.28h-4.72v9.53h4.72Z"/>
        <path d="M31.29,12.04c0,1.91,0,3.81,0,5.72,0,1.08-.43,1.5-1.5,1.5-2.21,0-4.41,0-6.62,0-1.08,0-1.5-.42-1.5-1.5,0-3.81,0-7.62,0-11.43,0-1.08.42-1.5,1.5-1.5,2.21,0,4.41,0,6.62,0,1.08,0,1.5.42,1.5,1.5,0,1.91,0,3.81,0,5.72ZM28.83,16.82V7.28h-4.72v9.53h4.72Z"/>
        <path d="M33.7,12.03c0-1.91,0-3.81,0-5.72,0-1.08.42-1.5,1.5-1.5,2.21,0,4.41,0,6.62,0,1.08,0,1.5.42,1.5,1.5,0,3.81,0,7.62,0,11.43,0,1.08-.43,1.5-1.5,1.5-2.21,0-4.41,0-6.62,0-1.08,0-1.5-.42-1.5-1.5,0-1.91,0-3.81,0-5.72ZM40.87,16.82V7.28h-4.72v9.53h4.72Z"/>
        <path d="M19.26,28.85c0,1.91,0,3.81,0,5.72,0,1.13-.41,1.54-1.54,1.54-2.18,0-4.36,0-6.54,0-1.13,0-1.54-.41-1.54-1.54,0-3.79,0-7.57,0-11.36,0-1.13.41-1.54,1.54-1.54,2.18,0,4.36,0,6.54,0,1.13,0,1.54.41,1.54,1.54,0,1.88,0,3.76,0,5.64ZM16.81,24.11h-4.73v9.53h4.73v-9.53Z"/>
        <path d="M21.66,28.89c0-1.91,0-3.81,0-5.72,0-1.08.42-1.5,1.5-1.5,2.21,0,4.41,0,6.62,0,1.08,0,1.5.42,1.5,1.5,0,3.81,0,7.62,0,11.43,0,1.08-.43,1.5-1.5,1.5-2.21,0-4.41,0-6.62,0-1.08,0-1.5-.42-1.5-1.5,0-1.91,0-3.81,0-5.72ZM24.11,24.11v9.55h4.72v-9.55h-4.72Z"/>
        <path d="M43.33,28.88c0,1.91,0,3.81,0,5.72,0,1.08-.42,1.5-1.5,1.51-2.21,0-4.41,0-6.62,0-1.08,0-1.5-.42-1.5-1.5,0-3.81,0-7.62,0-11.43,0-1.08.42-1.5,1.5-1.5,2.21,0,4.41,0,6.62,0,1.08,0,1.5.42,1.51,1.5,0,1.91,0,3.81,0,5.72ZM40.87,33.67v-9.53h-4.72v9.53h4.72Z"/>
      </g>
    </g>
  </g>
</svg>