<?xml version="1.0" encoding="UTF-8"?>
<svg id="Capa_2" xmlns="http://www.w3.org/2000/svg" viewBox="0 0 60.02 65.7">
  <g id="Capa_1-2" data-name="Capa_1">
    <g id="rp93Dl">
      <path d="M8.72,24.55c-.51-6.95,1.48-9.93,8.31-12.59.17-1.34.19-2.68.52-3.95C18.82,3.19,23.05.85,26.82.04c1.21-.26,1.96.82,1.52,2.06-.29.79-.72,1.54-.97,2.34-.69,2.2-.22,3.46,1.98,4.08,2.69.75,5.52,1.01,8.24,1.68,2.61.64,5.3,1.23,7.7,2.37,4.1,1.94,5.53,6.07,3.92,10.39.51.31,1.05.63,1.58.96,2.29,1.45,3.44,3.51,3.47,6.24,0,.57.14,1.34.51,1.68,2,1.81,2.88,3.91,1.98,6.56,3.51.61,3.46.64,3.11,4.32-.91,9.46-5.55,16.66-13.2,22.05-.76.54-1.83.88-2.76.88-9.3.06-18.6.06-27.9,0-.84,0-1.82-.26-2.5-.74C5.57,59.39.83,51.94.05,42.17c-.05-.63-.04-1.27-.05-1.91,0-1.11.54-1.67,1.65-1.68,1,0,1.99,0,3.24,0-1.82-2.59-2.52-5.21-1.72-8.11.82-2.95,2.91-4.72,5.55-5.92ZM3,41.5c.57,9.06,4.72,15.88,11.93,20.92.47.33,1.19.39,1.8.39,7.55.03,15.11-.3,22.64.13,4.63.26,7.82-1.46,10.59-4.73.07-.08.15-.15.22-.23,4.2-4.66,6.45-10.12,6.76-16.49H3ZM9.9,27.26c-3.25,1.25-4.66,3.61-4.13,6.77.43,2.58,2.59,4.52,5.38,4.53,13.49.04,26.98.04,40.47-.04.85,0,2.05-.61,2.45-1.3.63-1.08.12-2.38-.98-3.04-1.3-.78-2.7-1.51-4.15-1.9-4.31-1.18-8.71-.97-13.12-.55-4.59.43-9.19,1.02-13.79,1.05-4.73.03-9.19-1.12-12.13-5.51ZM51.34,29.98c.08-1.69-.64-2.85-1.8-3.53-1.68-.98-3.43-2.05-5.29-2.45-4.5-.96-9.09-1.53-13.63-2.3-5-.85-9.82-2.07-12.68-6.93-2.25.49-4.14,1.51-5.42,3.4-2.85,4.2-.56,9.6,4.72,11.09,4.5,1.27,9.07.74,13.61.2,6.81-.81,13.61-1.62,20.49.51ZM24.52,3.91c-2.61,1.25-4.09,3.06-4.46,5.77-.38,2.74.34,5.13,2.8,6.41,2.27,1.18,4.76,2.09,7.26,2.63,5.22,1.14,10.5,1.98,15.76,2.86.34.06,1.05-.55,1.18-.98.52-1.72-.38-4.11-2.25-5.02-2.21-1.07-4.59-1.87-6.98-2.47-2.92-.73-5.99-.9-8.88-1.72-3.77-1.07-5.05-3.39-4.44-7.48Z"/>
    </g>
  </g>
</svg>