<?xml version="1.0" encoding="UTF-8"?>
<svg id="Capa_2" xmlns="http://www.w3.org/2000/svg" viewBox="0 0 71.03 71">
  <g id="Capa_1-2" data-name="Capa_1">
    <g>
      <path d="M32.07,30.17v-.9c0-7.66.02-15.31-.02-22.97,0-1.41.58-2.37,1.69-3.09,1.69-1.1,3.6-1.64,5.54-2.01,8.12-1.57,16.26-1.62,24.37,0,1.73.35,3.42,1,5.06,1.68,1.61.68,2.32,1.93,2.31,3.8-.05,16.27-.04,32.53-.01,48.8,0,1.49-.59,2.5-1.8,3.25-1.92,1.19-4.07,1.71-6.26,2.12-4.76.88-9.56,1.15-14.38.94-.14,0-.27,0-.45,0-.01.21-.04.38-.02.54.16,1.91-.78,3.23-2.25,4.27-2.1,1.48-4.51,2.26-6.97,2.84-6.77,1.58-13.63,1.87-20.54,1.35-4.07-.31-8.1-.88-11.99-2.2-1.61-.55-3.15-1.23-4.49-2.3C.64,65.29,0,64.08,0,62.45c.04-8.04.04-16.07,0-24.11,0-1.63.63-2.85,1.86-3.82,2.01-1.58,4.38-2.39,6.82-3,6.08-1.53,12.28-1.9,18.52-1.65,1.59.06,3.19.2,4.87.31ZM68.7,17.9c-5.59,2.32-11.39,2.71-17.21,2.7-5.82,0-11.61-.4-17.11-2.69v12.53c2.01.42,3.98.83,5.95,1.24,1.84-7.27,9.29-10.05,14.77-8.2,5.56,1.87,8.81,7.59,7.59,13.4-1.14,5.43-7.26,10.64-14.56,8.48v2.62c.19.02.33.05.47.06,4.61.2,9.21.04,13.74-.87,1.85-.37,3.64-1.07,5.44-1.67.67-.22.93-.73.92-1.5-.03-8.42-.02-16.84-.02-25.26v-.85ZM8.09,50.79c-.03.14-.06.23-.06.32,0,5.05,0,10.11.02,15.16,0,.19.26.51.45.55,2.16.47,4.32.99,6.5,1.3,4.59.66,9.21.73,13.84.44,3.59-.23,7.15-.7,10.64-1.67.48-.13.62-.33.62-.82-.02-4.86-.01-9.73-.01-14.59v-.7c-5.29,1.4-10.61,1.9-15.99,1.9-5.4,0-10.75-.5-16.01-1.89ZM5.74,65.92v-.96c0-5.08,0-10.16,0-15.24,0-1.46.57-1.81,1.99-1.47,2.45.59,4.91,1.17,7.4,1.55,4.49.67,9.03.74,13.56.44,3.98-.26,7.92-.77,11.74-1.98,1.37-.43,1.95-.01,1.95,1.41,0,5.13,0,10.25,0,15.38v.96c.97-.61,1.79-1.08,2.55-1.62.64-.45.9-1.09.89-1.91-.03-6.75-.01-13.5-.01-20.25v-.54c-1.82.71-3.57,1.53-5.39,2.09-4.22,1.3-8.58,1.75-12.97,1.94-6.2.27-12.34-.1-18.39-1.55-2.34-.56-4.6-1.35-6.75-2.73,0,.37,0,.63,0,.88,0,6.58.04,13.16-.03,19.74-.01,1.37.53,2.21,1.61,2.85.57.34,1.16.63,1.86,1ZM24.34,32.07c-4.76.03-9.22.34-13.61,1.31-2.45.54-4.87,1.19-6.99,2.58-1.88,1.23-1.94,2.51,0,3.63,1.49.86,3.12,1.54,4.77,2.04,3.96,1.21,8.06,1.63,12.19,1.81,5.59.24,11.15-.03,16.63-1.21,2.43-.52,4.82-1.18,6.95-2.51,2.03-1.28,2.08-2.6,0-3.79-1.45-.83-3.04-1.48-4.65-1.96-5.07-1.5-10.3-1.85-15.28-1.9ZM68.7,8.74c-5.57,2.3-11.36,2.7-17.18,2.7-5.82,0-11.61-.4-17.16-2.7,0,1.95.02,3.85-.01,5.74,0,.5.16.85.57,1.05.7.34,1.41.7,2.15.95,2.89.97,5.88,1.39,8.9,1.63,5.87.45,11.72.33,17.49-.94,1.52-.34,2.99-.94,4.44-1.52.34-.13.75-.63.76-.97.07-1.95.04-3.91.04-5.94ZM48.13,50.36v9.05c.14.02.26.06.38.06,5.43.22,10.82,0,16.11-1.37,1.14-.29,2.23-.8,3.33-1.24.56-.22.81-.65.77-1.3-.06-.97-.02-1.95-.02-2.93v-4.94c-6.66,2.63-13.57,2.74-20.58,2.67ZM51.33,9.19c4.21-.03,8.21-.23,12.12-1.18,1.62-.39,3.2-1.04,4.74-1.7.71-.3.69-.75,0-1.13-.83-.45-1.7-.86-2.6-1.14-4.44-1.35-9.02-1.69-13.63-1.72-4.73-.03-9.43.27-14.01,1.58-1.06.3-2.09.77-3.08,1.28-.7.36-.7.77,0,1.13.99.51,2.02.97,3.08,1.28,4.43,1.27,9,1.55,13.38,1.6ZM60.51,32.73c-.82-4.57-4.87-7.74-9.53-7.51-4.07.2-8.03,3.65-8.33,7.28.57.27,1.14.56,1.73.8.14.06.37,0,.52-.09,3.15-1.71,6.21-1.63,9.23.35,1.6,1.04,3.26,1.08,4.93.13.49-.28.96-.62,1.46-.95ZM46.56,34.81c1.45,1.21,1.63,2.71,1.55,4.31-.05,1,.04,2-.03,3-.04.61.21.82.74.98,4.31,1.35,9.05-.71,10.96-4.83.39-.84.61-1.77.89-2.61-1.24.35-2.33.79-3.46.94-1.72.23-3.27-.37-4.7-1.35-1.83-1.26-3.8-1.07-5.96-.45Z"/>
      <path d="M19.94,62.5c-.19.23-.35.44-.51.63-1.14,1.34-2.59,2.08-4.35,2.14-.99.03-1.61-.71-1.2-1.58.96-2.03.92-3.98-.01-6.01-.38-.84.23-1.58,1.17-1.55,1.71.04,3.13.73,4.27,2,.21.23.39.48.63.78.48-.35.95-.7,1.43-1.05,3.03-2.24,6.86-2.26,9.91-.04.83.6,1.65,1.22,2.46,1.85.84.65.85,1.42,0,2.06-.96.74-1.92,1.49-2.93,2.17-2.72,1.85-6.22,1.84-8.95,0-.65-.44-1.26-.92-1.93-1.4ZM21.47,60.69c3.64,3.5,7.33,2.51,9.71-.05-3.37-3.06-6.58-2.83-9.71.05ZM16.72,62.5c.76-.51,1.44-1.03,1.45-1.79,0-.77-.69-1.29-1.46-1.82.19.69.45,1.23.45,1.77,0,.57-.26,1.13-.44,1.84Z"/>
      <path d="M13.75,41.24c-1.5-.04-2.95-.26-4.23-1.1-1.99-1.29-1.99-3.38-.01-4.68,2.23-1.47,6.31-1.47,8.52,0,1.93,1.29,1.95,3.36,0,4.65-1.3.86-2.77,1.08-4.29,1.12ZM10.36,37.8c.85,1.54,6.08,1.51,6.8-.03-1.09-1.56-6.04-1.39-6.8.03Z"/>
    </g>
  </g>
</svg>