<?xml version="1.0" encoding="UTF-8"?>
<svg id="Capa_2" xmlns="http://www.w3.org/2000/svg" viewBox="0 0 64.97 60.02">
  <g id="Capa_1-2" data-name="Capa_1">
    <g id="J80IHK.tif">
      <g>
        <path d="M37.09,23.8c.88-.72,1.69-1.43,2.55-2.09,6.11-4.7,12.99-7.38,20.7-7.89,1.52-.1,1.77.04,2.32,1.48,2.03,5.33,2.67,10.85,2.14,16.51-.69,7.38-3.4,13.99-7.82,19.89-2.36,3.16-5.26,5.7-9.06,7.02-4.56,1.58-8.84.73-12.9-1.64-.85-.49-1.65-1.08-2.51-1.65-2.12,1.9-4.59,3.2-7.38,3.87-4.31,1.03-8.61,1.02-12.81-.46-5.79-2.03-9.23-6.28-11.03-12C0,42.73-.16,38.51.11,34.27c.39-6.19,1.89-12.1,4.68-17.65C7.99,10.23,12.39,4.84,18.2.64c1.19-.86,1.44-.86,2.64,0,5.27,3.81,9.45,8.6,12.49,14.32,1.37,2.58,2.34,5.37,3.49,8.07.1.23.17.47.28.76ZM19.66,2.8c-2.51,1.86-4.6,3.85-6.49,6.04-6.29,7.32-9.76,15.8-10.45,25.41-.28,3.96-.18,7.91,1.02,11.75,1.44,4.64,4.14,8.2,8.74,10.1.21.09.43.16.81.29-2.38-3.87-3.13-7.99-3.52-12.2-.04-.42.25-1.01.58-1.28.27-.22.93-.25,1.24-.06.35.21.63.72.71,1.14.25,1.24.33,2.51.57,3.75.51,2.65,1.23,5.23,2.86,7.46.69.94,1.54,1.7,2.68,2.02,2.05.56,3.55-.39,4.77-1.9,1.26-1.57,1.97-3.42,2.46-5.35,1.71-6.76,1.58-13.63.96-20.49-.34-3.77-1.11-7.51-1.69-11.26-.09-.56-.04-1.06.43-1.45.82-.67,1.87-.19,2.13.98,1.49,6.53,2.1,13.16,2.1,19.84,0,4.67-.25,9.34-1.66,13.84-.52,1.67-1.3,3.26-1.96,4.86.13-.05.37-.12.59-.21,4.38-1.81,7.06-5.14,8.54-9.53,1.59-4.72,1.58-9.58,1.01-14.45-1.09-9.21-4.75-17.29-11.02-24.13-1.69-1.84-3.6-3.47-5.41-5.19ZM41.1,56.66c1.36.3,2.74.3,4.12.05,3.57-.64,6.41-2.58,8.62-5.32,8.18-10.15,10.43-21.53,6.79-34.07-.21-.71-.54-.93-1.28-.84-8.12.97-15.17,4.22-21.11,9.86-.35.33-.39.63-.29,1.06.75,3.51,1.11,7.06,1.05,10.65-.09,5.34-1.1,10.42-4.27,14.89-.11.15-.08.54.04.7.62.86,1.5,1.24,2.56,1.23,1.43-.01,2.71-.54,3.78-1.41,1.51-1.23,3.02-2.49,4.3-3.95,3.99-4.58,7.02-9.79,9.59-15.27.75-1.6,1.37-3.27,2.06-4.9.33-.77,1.03-1.08,1.73-.8.65.26.93.96.69,1.71-.04.12-.09.24-.13.36-1.85,4.96-4.28,9.62-7.13,14.07-2.19,3.43-4.56,6.72-7.66,9.41-1.08.94-2.29,1.72-3.46,2.59Z"/>
        <path d="M9.56,30.39c.65-6.83,1.79-13.47,4.05-19.89.32-.9.98-1.27,1.74-1.02.66.22,1.03.94.77,1.67-2.2,6.28-3.33,12.77-3.84,19.38-.05.59-.31,1.08-.88,1.18-.4.07-.92-.03-1.24-.26-.3-.21-.4-.7-.59-1.07Z"/>
        <path d="M41.77,33.26c-.49-.4-1-.63-1.11-.97-.13-.41-.08-1.05.16-1.4.85-1.2,1.78-2.34,2.74-3.45,2.64-3.09,5.52-5.94,8.73-8.45.24-.19.47-.39.74-.53.59-.31,1.14-.2,1.58.29.41.45.39,1.2-.01,1.67-.11.13-.26.25-.4.35-4.19,3.26-7.8,7.08-11.05,11.26-.35.45-.86.77-1.38,1.23Z"/>
      </g>
    </g>
  </g>
</svg>