<?xml version="1.0" encoding="UTF-8"?>
<svg id="Capa_2" xmlns="http://www.w3.org/2000/svg" viewBox="0 0 69.98 69.98">
  <g id="Capa_1-2" data-name="Capa_1">
    <g id="SctwUE.tif">
      <g>
        <path d="M42.72,0c.29,0,.58,0,.87,0,2.6,1.48,4.09,3.78,4.82,6.62.18.68.31,1.37.47,2.1,2.5-1.17,5.13-1.66,7.85-1.72.65-.01,1.23.08,1.49.77.25.66-.15,1.07-.56,1.52-1.41,1.57-2.77,3.17-4.15,4.77-.13.15-.2.35-.36.65.33-.14.53-.22.72-.31,2.5-1.14,5.14-1.55,7.86-1.57.54,0,.93.24,1.14.74.21.52.04.95-.33,1.32-.16.15-.32.29-.48.44-2.06,1.98-3.89,4.14-5.12,6.75-.25.52-.2.83.22,1.25,3.01,3.01,4.99,6.61,5.5,10.84.33,2.69.23,5.43.31,8.14.02.65,0,1.3,0,2.01,1.82,0,3.57.03,5.31-.01.71-.02,1.28.15,1.69.74v1.9c-.04.19-.11.37-.13.56-.22,2.09-.76,4.11-1.68,5.99-4.08,8.4-10.82,13.49-19.79,15.74-1.47.37-3,.5-4.51.75h-3.79c-.07-.03-.13-.08-.2-.08-3.59-.28-7.01-1.19-10.28-2.7-.16-.08-.48.05-.66.17-.79.52-1.5,1.17-2.34,1.57-.94.46-1.99.7-2.99,1.04h-2.33c-1.15-.35-2.29-.71-3.44-1.05-.22-.06-.48-.06-.7,0-1.15.33-2.3.69-3.44,1.05h-2.33c-.06-.04-.12-.1-.18-.11-3.49-.6-5.9-2.64-7.53-5.7-1.6-2.98-2.5-6.18-2.94-9.52-.2-1.51-.48-3-.72-4.5,0-.97,0-1.94,0-2.92.05-.18.12-.36.15-.54,1.14-7.8,9.15-11.94,15.69-7.58.21.14.47.22.78.37.15-1.08.28-2.08.45-3.08.33-1.89.71-3.77,1.74-5.44.4-.65,1.04-.81,1.62-.47.58.34.69.96.39,1.65-.39.91-.82,1.82-1.05,2.77-.34,1.34-.51,2.72-.76,4.08,1.51-.59,2.9-1.12,4.28-1.66.09-.95.13-1.95.28-2.93.67-4.36,2.57-8.11,5.73-11.2.29-.29.37-.53.17-.88-.37-.68-.69-1.39-1.1-2.05-1.24-2-2.79-3.73-4.53-5.3-.41-.37-.63-.81-.41-1.36.22-.57.67-.78,1.27-.77,2.62.03,5.17.44,7.59,1.49.25.11.5.23.94.43-1.34-2.17-2.85-3.9-4.56-5.46-.45-.41-.83-.85-.58-1.51.26-.69.83-.79,1.48-.78,2.72.06,5.35.54,7.88,1.72.06-.33.12-.61.17-.9.47-2.35,1.27-4.55,3.04-6.25.62-.6,1.37-1.05,2.06-1.57ZM16.31,44.3c.05-.68.05-1.17.12-1.65.08-.55,0-.89-.65-1.02-.5-.11-.98-.41-1.43-.7-3.07-1.97-6.92-1.58-9.46,1.05-2.16,2.24-2.79,4.99-2.48,8,.16,1.54.45,3.07.65,4.61.44,3.26,1.35,6.36,3.05,9.19,1.75,2.92,4.78,4.34,7.89,3.72.78-.16,1.53-.47,2.28-.74.81-.29,1.61-.29,2.42,0,.75.27,1.5.58,2.28.74,3.07.62,6.15-.76,7.83-3.67.83-1.44,1.52-2.99,2.05-4.56,1.09-3.21,1.38-6.59,1.76-9.94.2-1.81-.2-3.57-1.01-5.23-1.56-3.21-5.6-5.72-10.02-3.69-.88.4-1.73.87-2.58,1.31-.09.05-.19.17-.2.26-.06.71-.09,1.42-.15,2.33.64-.35,1.13-.6,1.6-.89.62-.38,1.22-.33,1.63.17.43.52.34,1.18-.21,1.68-2.02,1.82-6.28,1.84-8.34.03-.56-.49-.67-1.15-.27-1.68.4-.53,1.04-.59,1.68-.18.46.29.96.53,1.55.86ZM32.85,60.92c7.43,3.22,14.51,2.71,21.23-1.74,4.63-3.06,8.89-9.4,8.55-12.49h-27.73c-.2,6.26-.28,6.82-2.05,14.23ZM30.82,65.14c.25.12.46.23.68.32,4.86,2.06,9.91,2.76,15.11,1.76,8.2-1.58,14.5-5.94,18.71-13.2,1.3-2.24,2.07-4.68,2.26-7.36h-2.38c-1.61,7.56-6.07,12.8-12.76,16.16-6.74,3.38-13.64,3.29-20.52.25-.39.73-.73,1.38-1.1,2.08ZM43.15,13.46c1.03-1.02,2.12-2.09,3.19-3.16.14-.14.28-.37.26-.53-.22-2.07-.62-4.11-1.95-5.77-1.49-1.86-1.51-1.85-2.99-.02-1.34,1.66-1.74,3.7-1.96,5.77-.02.16.07.38.19.5,1.1,1.11,2.22,2.2,3.26,3.23ZM49.79,27.08c-1.65,1.8-3.19,3.47-4.55,4.95,1.41,1.54,2.93,3.2,4.55,4.97,1.65-1.78,3.19-3.44,4.58-4.93-1.42-1.55-2.94-3.21-4.57-4.99ZM43.23,43.32c1.57-1.72,3.09-3.39,4.38-4.81-1.36-1.49-2.87-3.15-4.5-4.94-1.6,1.75-3.12,3.41-4.67,5.11,1.47,1.42,3.08,2.98,4.79,4.64ZM32.04,31.97c1.41,1.56,2.92,3.22,4.53,5.01,1.63-1.77,3.15-3.43,4.44-4.85-1.38-1.52-2.9-3.2-4.52-5-1.61,1.75-3.12,3.39-4.46,4.84ZM38.72,25.59c1.37,1.52,2.88,3.19,4.5,4.98,1.63-1.77,3.15-3.43,4.51-4.91-1.41-1.53-2.93-3.18-4.55-4.94-1.62,1.77-3.14,3.42-4.46,4.87ZM51.94,38.48c1.34,1.47,2.85,3.13,4.41,4.84,1.44-1.39,2.83-2.64,4.08-4.02.28-.31.31-1.28.04-1.58-1.26-1.4-2.66-2.67-4.11-4.08-1.56,1.71-3.08,3.37-4.41,4.83ZM32.34,9.66c2.23,2.61,4.12,5.33,4.77,8.65,1.81-.31,3.54-.62,5.27-.92-1.35-3.98-5.36-7.25-10.03-7.74ZM53.96,9.66c-.16-.01-.23-.04-.3-.03-3.83.7-6.88,2.56-8.9,5.95-.53.9-.02,1.95,1.02,2.08.14.02.29.05.43.08.99.2,1.97.41,2.99.62.65-3.42,2.56-6.12,4.76-8.71ZM32.34,40.95c.82-.9,1.58-1.74,2.39-2.62-1.51-1.46-3.14-3.04-4.85-4.69-1.22,1.33-2.38,2.61-3.52,3.85,2.29.41,4.3,1.54,5.98,3.46ZM32.63,23.36c-1.93,1.49-3.43,3.17-4.52,5.05.64.7,1.23,1.33,1.9,2.06,1.56-1.69,3.1-3.36,4.56-4.94-.54-.6-1.22-1.36-1.95-2.18ZM51.8,25.53c1.46,1.6,2.98,3.26,4.55,4.99.69-.74,1.27-1.38,1.88-2.04-1.13-1.94-2.62-3.64-4.51-5.07-.71.78-1.39,1.54-1.92,2.12ZM45.92,44.27h7.82c-1.23-1.34-2.53-2.76-3.93-4.28-1.39,1.53-2.69,2.96-3.89,4.28ZM27.83,15.44c1.3,1.92,2.57,3.8,3.83,5.66.91-.51,1.93-1.07,2.93-1.66.48-.28.27-.6-.02-.87-1.92-1.76-4.22-2.71-6.73-3.13ZM58.49,15.43c-.48.11-1.01.2-1.51.34-1.92.53-3.67,1.39-5.16,2.74-.3.27-.64.6-.12.92,1,.61,2.04,1.17,2.94,1.68,1.29-1.9,2.56-3.77,3.85-5.67ZM33.74,43.12s.11.19.15.37c.16.73.6.88,1.31.86,1.67-.06,3.34-.02,5.01-.02.17,0,.35-.04.52-.05-.06.04-.13.08-.19.11-1.3-1.43-2.6-2.87-3.93-4.34-1,1.07-1.91,2.04-2.88,3.07ZM36.57,24.09c1.31-1.42,2.53-2.75,3.68-3.99-1.88.25-3.78.95-5.54,1.92.59.66,1.17,1.31,1.86,2.07ZM46.15,20.11c1.14,1.25,2.35,2.57,3.54,3.86.68-.69,1.3-1.32,1.92-1.95-1.77-.96-3.65-1.66-5.46-1.91ZM28.1,31.91c-.3-.28-.7-.67-1.22-1.16-.35,1.22-.66,2.3-.97,3.38.04.01.08.03.11.04.68-.74,1.36-1.48,2.08-2.27ZM60.24,34.14c.05-.02.1-.05.16-.07-.31-1.06-.63-2.12-.95-3.21-.51.48-.91.85-1.25,1.18.61.65,1.19,1.26,1.77,1.87.08.08.18.15.27.23ZM60.62,42.42c-.66.7-1.19,1.27-1.73,1.86h1.77c0-.45,0-.86,0-1.26,0-.14-.01-.28-.03-.59Z"/>
        <path d="M57.14,51.31c-.63,0-1.15-.54-1.15-1.17,0-.63.54-1.16,1.17-1.15.63,0,1.16.54,1.15,1.17,0,.63-.54,1.16-1.17,1.15Z"/>
        <path d="M39.65,52.54c-.03.63-.59,1.14-1.22,1.1-.63-.03-1.13-.59-1.1-1.22.03-.63.59-1.14,1.22-1.1.63.03,1.14.59,1.1,1.22Z"/>
        <path d="M45.47,53.65c-.63-.01-1.15-.55-1.14-1.18.01-.63.55-1.15,1.18-1.14.63.01,1.15.55,1.14,1.18-.01.63-.55,1.15-1.18,1.14Z"/>
        <path d="M52.48,55.99c0,.63-.53,1.16-1.16,1.16-.63,0-1.16-.53-1.16-1.17,0-.63.53-1.16,1.16-1.16.63,0,1.16.53,1.16,1.16Z"/>
        <path d="M40.83,59.43c.03-.63.59-1.14,1.22-1.1.63.03,1.14.59,1.1,1.22-.03.63-.59,1.14-1.22,1.11-.63-.03-1.14-.59-1.1-1.22Z"/>
      </g>
    </g>
  </g>
</svg>