<?xml version="1.0" encoding="UTF-8"?>
<svg id="Capa_2" xmlns="http://www.w3.org/2000/svg" viewBox="0 0 38.23 85">
  <g id="Capa_1-2" data-name="Capa_1">
    <g id="kbWcos.tif">
      <g>
        <path d="M24.27,0c.53.27,1.11.49,1.59.83,1.13.8,1.72,1.93,1.74,3.32.02,1.33.01,2.66,0,3.98-.01,1.56-.7,2.78-2.01,3.6-.41.26-.46.48-.4.93.43,3.15,1.75,5.92,3.63,8.44,1.42,1.91,2.92,3.75,4.3,5.69,3.09,4.33,4.48,9.26,4.93,14.5.44,5.16-.03,10.28-.58,15.4-.6,5.54-1.03,11.07-.27,16.63.2,1.44.46,2.93.31,4.36-.34,3.07-2.09,5.23-4.91,6.49-.83.37-1.54.07-1.93-.73-.35-.71-.09-1.43.68-1.88,3.02-1.73,3.75-3.42,3.13-6.96-.63-3.61-.79-7.25-.51-10.9.22-2.78.46-5.56.69-8.34.02-.24,0-.49,0-.83-.38-.02-.73-.05-1.08-.05-7.25,0-14.5,0-21.75,0-.38,0-.78-.01-1.15-.11-.65-.17-1.09-.6-1.07-1.3.02-.76.39-1.33,1.19-1.49.32-.06.66-.06.99-.06,7.39,0,14.78,0,22.17,0,.36,0,.71,0,1.15,0,.07-.92.14-1.77.19-2.62.25-5.14.07-10.23-1.72-15.14-1.01-2.76-2.66-5.14-4.42-7.46-1.33-1.76-2.72-3.5-3.94-5.33-1.96-2.94-2.85-6.26-3.13-9.75-.07-.91.37-1.48,1.3-1.75,1.03-.29,1.3-.63,1.3-1.69,0-1.08.01-2.16,0-3.24-.02-1.12-.51-1.63-1.63-1.64-2.63-.01-5.26-.01-7.89,0-1.16,0-1.66.53-1.67,1.68,0,1.13-.01,2.27,0,3.4.01.99.49,1.48,1.47,1.5.72.02,1.44-.01,2.16-.03,1.04-.02,1.82.55,1.85,1.38.04.95-.67,1.64-1.78,1.63-1.07-.01-2.17,0-3.22-.17-1.95-.33-3.31-2.01-3.36-3.97-.03-1.3-.02-2.6,0-3.9.02-2.07,1.04-3.51,2.99-4.22C13.75.14,13.86.06,13.97,0c3.43,0,6.86,0,10.29,0Z"/>
        <path d="M17.96,85c-1.33-.56-2.66-1.13-4.12-1.75-1.95,1.3-4.3,1.94-6.88,1.34-4.32-1-7.03-5.15-6.21-9.56.93-5.09.8-10.19.35-15.3C.64,54.64-.12,49.57.02,44.43c.15-5.72,1.05-11.25,4.17-16.17,1.42-2.24,3.13-4.28,4.68-6.43.76-1.05,1.48-2.13,2.18-3.23.58-.91,1.36-1.21,2.14-.77.72.4.93,1.3.35,2.18-1.15,1.72-2.36,3.41-3.57,5.08-1.03,1.43-2.11,2.82-3.33,4.45.55,0,.83,0,1.12,0,5.62,0,11.23-.02,16.85-.02,1.22,0,1.87.68,1.66,1.71-.14.71-.58,1.11-1.31,1.17-.27.02-.55.01-.83.01-6.06,0-12.12,0-18.18-.02-.59,0-.88.18-1.09.73-1.34,3.45-1.87,7.04-2.01,10.71-.15,4.05.27,8.06.73,12.07.75,6.55,1.21,13.1-.01,19.66-.5,2.69.89,5.15,3.32,6,1.88.65,3.69.36,5.34-.77-.12-.48-.28-.9-.32-1.33-.08-.76.35-1.37,1.08-1.56.75-.2,1.29.13,1.67.76.13.21.19.46.29.68.74,1.69,2.4,2.84,4.18,2.76,1.89-.09,3.32-.96,4.12-2.73.11-.25.18-.53.33-.76.37-.59.9-.9,1.62-.72.73.17,1.28.81,1.09,1.52-.22.86-.55,1.76-1.08,2.47-1.21,1.62-2.83,2.69-4.89,3.01-.08.01-.15.07-.22.11h-2.16Z"/>
        <path d="M7.26,41.99c-.01-2.99,2.36-5.53,5.26-5.67,1.13-.05,1.72.39,1.8,1.35.08.96-.43,1.46-1.57,1.57-1.36.13-2.43,1.15-2.54,2.42-.12,1.34.73,2.62,1.94,2.92,1.37.34,2.71-.27,3.23-1.52.16-.37.17-.8.26-1.2.2-.97.75-1.42,1.58-1.33.91.11,1.42.76,1.36,1.75-.17,3.05-2.79,5.44-5.86,5.36-3.02-.08-5.46-2.61-5.47-5.65Z"/>
        <path d="M26.48,44.8c1.11,0,2.21-.01,3.32,0,.92.01,1.53.58,1.55,1.38.02.83-.62,1.45-1.57,1.45-2.21.02-4.42.02-6.64,0-.92,0-1.52-.59-1.54-1.4-.02-.85.59-1.43,1.56-1.44,1.11-.02,2.21,0,3.32,0Z"/>
        <path d="M25.23,39.16c-.69,0-1.38.02-2.07,0-.97-.04-1.57-.62-1.55-1.47.02-.82.59-1.36,1.53-1.38,1.43-.02,2.87-.02,4.3,0,.94.02,1.5.56,1.51,1.4,0,.82-.57,1.4-1.49,1.44-.74.03-1.49,0-2.23,0Z"/>
      </g>
    </g>
  </g>
</svg>