<?xml version="1.0" encoding="UTF-8"?>
<svg id="Capa_2" xmlns="http://www.w3.org/2000/svg" viewBox="0 0 76.24 47.51">
  <g id="Capa_1-2" data-name="Capa_1">
    <g id="DrhfuG.tif">
      <path d="M71.18,47.51H5.06c-.3-.43-.71-.82-.89-1.29-.55-1.48-1-2.99-1.51-4.48-.07-.22-.2-.52-.38-.58-1.22-.46-1.87-1.39-2.28-2.55v-1.34c.88-2.76,3.12-2.88,5.47-2.68.87-4.49,1.72-8.85,2.57-13.21.78-3.97,1.45-7.98,2.4-11.91C12.25,2.04,18.51-1.24,25.13.44c.36.09.79.06,1.15-.03,2.35-.6,4.66-.52,6.95.3.27.1.64.1.92,0,2.65-.93,5.29-.93,7.94,0,.29.1.69.08.99-.02,2.19-.77,4.4-.83,6.66-.34.58.12,1.22.11,1.8,0,3.45-.71,6.67-.27,9.57,1.79,2.87,2.04,4.29,5.01,4.96,8.34,1.26,6.2,2.42,12.41,3.63,18.62.35,1.81.71,3.62,1.08,5.49.8,0,1.54-.04,2.28,0,1.72.1,2.63,1.18,3.18,2.68v1.34c-.42,1.16-1.06,2.09-2.28,2.55-.18.07-.3.37-.38.58-.51,1.49-.96,3.01-1.51,4.48-.18.47-.59.86-.89,1.29ZM49.26,34.53c0-.33.02-.58,0-.82-.62-7.59-1.25-15.19-1.86-22.78-.37-4.58-4.05-8.19-8.72-8.52-4.49-.31-8.71,2.84-9.63,7.29-.23,1.11-.25,2.26-.34,3.39-.53,6.33-1.06,12.67-1.58,19-.07.8-.11,1.6-.17,2.44h22.31ZM28.28,4.88c-2.28-2.59-7.35-3.32-10.84-1.4-2.75,1.51-4.14,4.01-4.75,6.94-1.31,6.31-2.51,12.65-3.75,18.97-.33,1.69-.66,3.38-.99,5.1.17.03.26.07.36.07,5.23,0,10.47,0,15.7.01.43,0,.54-.17.57-.56.49-6.19,1-12.37,1.51-18.56.16-1.9.16-3.82.54-5.68.33-1.64,1.07-3.2,1.66-4.89ZM68.3,34.56c-.06-.39-.11-.67-.16-.96-.62-3.2-1.24-6.4-1.87-9.6-.93-4.68-1.78-9.37-2.82-14.02-1-4.45-3.89-7.05-8.19-7.53-2.86-.32-5.36.58-7.5,2.57.09.17.15.3.23.43,1.07,1.68,1.67,3.51,1.79,5.5.11,1.85.3,3.7.45,5.54.48,5.74.97,11.48,1.41,17.22.05.65.2.87.89.86,4.99-.03,9.97-.02,14.96-.02h.8ZM5.07,41.34c.35,1.06.72,2.01.96,2.98.17.65.47.82,1.13.81,20.64-.02,41.28-.02,61.93-.02.17,0,.36.03.52-.01.14-.04.35-.12.39-.24.4-1.15.78-2.31,1.18-3.53H5.07ZM38.11,36.95c-11.34,0-22.67,0-34.01,0-.27,0-.55-.02-.82.02-.54.08-.86.44-.86.96,0,.52.3.89.85.96.27.04.54.03.82.03,22.7,0,45.4,0,68.09,0,1.16,0,1.68-.32,1.65-1.02-.03-.66-.52-.95-1.64-.95-11.36,0-22.72,0-34.08,0ZM30.78,2.55c-.55-.06-1-.11-1.44-.16-.02.04-.04.08-.07.13.26.22.53.44.81.68.24-.22.43-.4.7-.65ZM45.44,2.55c.29.25.5.43.74.65.29-.26.53-.48.93-.83-.66.07-1.1.12-1.67.19Z"/>
    </g>
  </g>
</svg>