<?xml version="1.0" encoding="UTF-8"?>
<svg id="Capa_2" xmlns="http://www.w3.org/2000/svg" viewBox="0 0 55.43 66">
  <g id="Capa_1-2" data-name="Capa_1">
    <g id="fJ3z69.tif">
      <g>
        <path d="M50.83,66H4.6c-.13-.06-.26-.13-.4-.16C1.78,65.17.14,63.21.02,60.85c-.13-2.46,1.26-4.57,3.62-5.49.19-.07.36-.16.57-.25-2.2-11.14-2.19-22.26-.04-33.37C1.1,21.32,0,20.07,0,17.09c0-.88-.02-1.77,0-2.65.06-1.76,1.28-3.23,3.01-3.53.83-.14,1.7-.17,2.54-.1,1.16.1,2.05-.09,2.42-1.36.08-.27.3-.5.48-.73,2.15-2.87,5.08-4.06,8.59-4.02,3.12.03,6.04-.69,8.84-2.07,1.5-.74,3.06-1.37,4.65-1.85,1.36-.41,2.81-.54,4.22-.79,1.35,0,2.71,0,4.06,0,.65.15,1.32.28,1.96.47,4.48,1.33,7.02,4.58,8.61,8.75.57,1.51.55,1.52,2.18,1.58,2.25.08,3.81,1.65,3.84,3.88.01,1.12.03,2.23,0,3.35-.06,1.76-1.29,3.18-3.01,3.54-.36.07-.73.13-1.14.2,2.17,11.17,2.14,22.28-.03,33.37.28.11.47.18.66.26,2.25.89,3.62,2.98,3.53,5.37-.09,2.33-1.71,4.35-4.01,5.03-.19.06-.38.13-.57.2ZM6.62,21.7c-.38,2.59-.83,5.14-1.11,7.7-.96,8.81-.51,17.55,1.33,26.22.27,1.27-.16,1.81-1.47,1.9-1.3.09-2.31.85-2.71,2.04-.7,2.06.8,3.97,3.13,3.97,14.61,0,29.23,0,43.84,0,.21,0,.41,0,.62-.01,1.56-.16,2.74-1.5,2.71-3.07-.03-1.53-1.23-2.8-2.76-2.92-1.52-.13-1.82-.57-1.57-2.04.47-2.78.99-5.56,1.3-8.35.78-6.84.62-13.68-.35-20.49-.23-1.65-.55-3.28-.83-4.93H6.62ZM27.71,19.2c7.68,0,15.35,0,23.03,0,.26,0,.53.01.79,0,.93-.07,1.38-.53,1.41-1.46.02-.79,0-1.59,0-2.38,0-1.77-.32-2.08-2.12-2.08-15.41,0-30.82,0-46.23,0-.24,0-.47-.01-.71,0-.93.06-1.38.53-1.41,1.46-.02.82,0,1.65,0,2.47,0,1.65.35,2,2.03,2,7.73,0,15.47,0,23.2,0ZM10.09,10.76h37.11c-.72-4.03-4.23-7.61-8.18-8.13-3.55-.47-7.03,0-10.35,1.41-1.83.78-3.64,1.63-5.51,2.3-2.33.83-4.79.77-7.23.89-2.47.12-4.4,1.27-5.84,3.52Z"/>
        <path d="M34.37,43.64c1.13.17,1.36.91,1.49,1.78.55,3.67-2.22,7.58-6.92,7.57,0,1.07,0,2.14,0,3.22,0,.69-.27,1.21-.99,1.36-.82.17-1.45-.38-1.47-1.31-.02-1.05,0-2.11,0-3.21-.64-.09-1.25-.13-1.84-.26-3.51-.8-5.75-4.23-4.98-7.74.13-.59.7-1.08,1.15-1.72-.98-1.33-1.49-3.05-1.23-4.98.12-.87.41-1.54,1.17-1.64-.41-1.29-.99-2.56-1.18-3.88-.36-2.57.58-3.52,3.16-3.21,1.24.15,2.44.67,3.75,1.05,0-.44-.01-1.06,0-1.69.02-.86.52-1.42,1.24-1.41.72,0,1.2.57,1.22,1.44.01.61,0,1.21,0,1.98,1.62-1.12,3.27-1.6,5.09-1.36,1.3.17,1.65.52,1.81,1.83.24,1.9-.27,3.6-1.47,5.19,1.18.17,1.39.98,1.49,1.91.2,1.85-.3,3.49-1.5,5.08ZM22.06,39.1c-.38,2.39,1.9,4.68,4.32,4.33.37-2.39-1.92-4.69-4.32-4.33ZM29.04,43.48c2.66.1,4.9-2.26,4.27-4.43-2.53-.13-4.6,2-4.27,4.43ZM26.42,36.47c.19-2.58-2-4.73-4.36-4.34-.38,2.35,1.8,4.55,4.36,4.34ZM28.98,36.44c2.31.47,4.94-2.1,4.34-4.36-2.47-.18-4.43,1.76-4.34,4.36ZM33.37,46.13c-2.37-.43-4.74,1.92-4.32,4.3,2.47.26,4.61-1.87,4.32-4.3ZM22.01,46.12c-.08,2.64,2.1,4.72,4.41,4.26.2-2.5-1.97-4.63-4.41-4.26Z"/>
      </g>
    </g>
  </g>
</svg>