<?xml version="1.0" encoding="UTF-8"?>
<svg id="Capa_2" xmlns="http://www.w3.org/2000/svg" viewBox="0 0 69.79 75.39">
  <g id="Capa_1-2" data-name="Capa_1">
    <g id="IAX4VA.tif">
      <path d="M57.72,0c.25,0,.49,0,.74,0,1.52.84,3.03,1.68,4.55,2.52,1.25.69,1.37,1.09.7,2.34-3.34,6.15-6.68,12.31-10.02,18.46-.13.23-.24.47-.35.69.06.06.07.08.09.09,5.2,2.37,8.28,6.33,9.04,12.04.02.16.33.4.51.41.9.04,1.81,0,2.72.02,2.04.03,3.47,1.18,3.97,3.15.03.12.08.23.13.34v.88c-.5,2.27-2.01,3.29-4.23,3.47-.23.02-.53.36-.64.62-3.32,7.85-9.17,12.43-17.66,13.42-2.52.29-5.09.12-7.64.15-.26,0-.51,0-.75,0v8.97c.33,0,.59,0,.86,0,2.08,0,4.17,0,6.25,0,2.42.01,4.06,1.66,4.08,4.07,0,.74-.03,1.47.01,2.21.04.68-.16,1.2-.75,1.55h-28.86c-.59-.35-.79-.87-.75-1.55.04-.71,0-1.42.01-2.13.01-2.33,1.81-4.13,4.16-4.14,2.09,0,4.17,0,6.26,0,.26,0,.51,0,.82,0,0-.85-.02-1.59,0-2.32.03-.76.46-1.2,1.11-1.2.66,0,1.07.44,1.08,1.22.02.98,0,1.96,0,2.94,0,1.24-.33,1.57-1.57,1.57-2.58,0-5.15,0-7.73,0-.97,0-1.77.56-1.89,1.41-.09.64-.02,1.3-.02,1.94h25.89c0-.47,0-.89,0-1.3,0-1.43-.63-2.04-2.08-2.04-2.5,0-5.01,0-7.51,0-1.37,0-1.67-.3-1.67-1.7,0-2.82,0-5.64,0-8.47,0-.31,0-.63,0-.98h-3.32c-.04.06-.07.08-.07.1-.02.49-.02.98-.04,1.47-.03.77-.44,1.21-1.09,1.21-.65,0-1.07-.44-1.11-1.21-.02-.51,0-1.02,0-1.6-2.09,0-4.1.09-6.1-.03-1.87-.11-3.8-.22-5.59-.7-6.92-1.87-11.7-6.22-14.41-12.87-.1-.24-.37-.56-.59-.58-2.22-.21-3.71-1.27-4.28-3.49,0-.25,0-.49,0-.74.04-.09.1-.17.12-.26.5-2.23,1.85-3.35,4.14-3.38.81-.01,1.62-.02,2.43,0,.45.02.62-.11.69-.6.65-4.92,3.16-8.61,7.44-11.1.48-.28.99-.51,1.5-.77-.14-.26-.26-.48-.37-.69-3.29-6.07-6.59-12.13-9.88-18.2-.96-1.76-.9-1.91.85-2.87C8.3,1.58,9.67.78,11.04,0c.29,0,.59,0,.88,0,.29.39.62.75.85,1.16,2.93,5.38,5.85,10.77,8.78,16.15.12.23.26.44.4.68.08-.07.1-.09.11-.11.1-.17.2-.33.31-.5,2.17-3.47,5.24-5.71,9.23-6.65,1.16-.27,1.75-.04,1.92.72.16.7-.29,1.15-1.41,1.42-3.33.8-5.91,2.68-7.75,5.55-.89,1.39-1.5,2.9-1.72,4.59,5.44.51,9.48,3.15,12.25,7.84,2.78-4.72,6.84-7.32,12.24-7.84-.03-.24-.04-.41-.08-.57-.8-3.53-2.73-6.3-5.86-8.1-1.23-.71-2.66-1.07-4.02-1.55-.56-.2-1.07-.47-.98-1.09.06-.39.39-.81.73-1.04.22-.15.67-.05.99.02,4,.9,7.1,3.08,9.34,6.51.13.2.26.39.43.65.18-.3.31-.53.44-.76,2.9-5.34,5.8-10.69,8.71-16.02C57.07.67,57.43.35,57.72,0ZM7.04,44.43c.11.28.17.47.25.64,3.41,7.13,9.07,11.05,16.97,11.27,7.06.2,14.13.06,21.2.03,1.12,0,2.26-.14,3.35-.37,4.97-1.06,8.76-3.91,11.75-7.91.83-1.11,1.49-2.33,2.3-3.62H29.97c0,.52.02.99,0,1.45-.08,1.68-.65,3.08-2.3,3.79-2.67,1.16-5.41-.58-5.53-3.52-.03-.58,0-1.16,0-1.76H7.04ZM60.25,36.55c-.03-.35-.03-.57-.07-.79-.82-5.1-4.71-9.22-9.69-10.26-5.12-1.07-10.31,1.18-13.17,5.6-1.11,1.72-1.5,3.45-.67,5.45.19,0,.46,0,.72,0,3.02,0,6.03,0,9.05,0,.29,0,.6,0,.87.09.54.17.77.58.72,1.14-.05.53-.36.85-.88.94-.26.05-.54.03-.81.03-5.08,0-10.16,0-15.23,0-.2,0-.42-.06-.58.02-.2.1-.5.29-.51.46-.05.95-.02,1.9-.02,2.95.36,0,.64,0,.93,0,11.43,0,22.86,0,34.29,0,.34,0,.69-.02,1.03-.06.69-.08,1.1-.47,1.25-1.16.25-1.13-.41-2.09-1.56-2.2-.51-.05-1.03-.02-1.54-.02-3.95,0-7.9,0-11.85,0-.22,0-.44,0-.66,0-.75-.03-1.22-.46-1.21-1.1,0-.64.47-1.09,1.22-1.1,2.18-.02,4.37,0,6.55,0,.58,0,1.17,0,1.83,0ZM34.26,36.55c-.56-6.54-6.64-11.73-12.99-11.32-7.57.5-11.63,6.93-11.66,11.32.29,0,.58,0,.86,0,3.65,0,7.31,0,10.96,0,1.9,0,2.89,1,2.9,2.91,0,1.15,0,2.3,0,3.46,0,1.05-.01,2.11,0,3.16.01.71.31,1.29.97,1.61.61.3,1.2.21,1.74-.16.62-.42.72-1.08.72-1.76,0-2.08,0-4.17,0-6.25,0-2.01.98-2.97,2.98-2.98,1.15,0,2.3,0,3.51,0ZM22.12,42.19c0-.9-.04-1.71.01-2.52.04-.7-.18-.94-.9-.93-5.61.03-11.22.01-16.84.02-.31,0-.64.03-.94.12-.74.2-1.22.89-1.2,1.66.02.74.57,1.42,1.31,1.57.31.06.63.07.95.07,5.59,0,11.18,0,16.76,0,.24,0,.48,0,.85,0ZM58.52,2.6c-.67,1.23-1.29,2.36-1.9,3.51-.07.14-.14.34-.1.48.46,1.33.95,2.64,1.48,4.12,1.22-2.25,2.35-4.32,3.51-6.47-1.02-.55-1.97-1.08-3-1.63ZM11.56,10.7c.53-1.43,1-2.72,1.46-4.01.05-.13.07-.31,0-.41-.65-1.22-1.31-2.44-1.99-3.68-1.05.57-2,1.1-3,1.64,1.17,2.15,2.3,4.23,3.51,6.46ZM18.14,15.65c-.53,1.45-1.02,2.77-1.49,4.1-.05.13.02.34.1.48.5.95,1.01,1.9,1.54,2.83.08.15.33.31.48.3,1.49-.09,1.53-.14,1.84-1.61.03-.14.09-.28.11-.43.03-.28.13-.62.02-.83-.82-1.58-1.68-3.14-2.61-4.84ZM51.44,15.65c-.89,1.64-1.71,3.14-2.51,4.65-.06.11-.05.29-.02.43.18.78.37,1.56.57,2.37.41.07.82.18,1.23.19.21,0,.52-.11.62-.28.54-.9,1.04-1.83,1.51-2.77.09-.19.1-.47.03-.68-.43-1.25-.9-2.48-1.41-3.9ZM54.41,17.33c.74-1.36,1.42-2.6,2.08-3.85.06-.11.07-.3.02-.42-.47-1.3-.95-2.6-1.48-4.03-.73,1.35-1.4,2.57-2.05,3.79-.07.13-.1.34-.05.48.46,1.3.95,2.6,1.47,4.03ZM15.17,17.33c.25-.7.37-1.26.65-1.73,1.01-1.74.86-3.34-.36-4.91-.35-.46-.58-1.02-.93-1.65-.52,1.42-.98,2.65-1.42,3.9-.07.2-.06.49.04.68.62,1.19,1.27,2.37,2.01,3.72Z"/>
    </g>
  </g>
</svg>