<?xml version="1.0" encoding="UTF-8"?>
<svg id="Capa_2" xmlns="http://www.w3.org/2000/svg" viewBox="0 0 73.88 57.06">
  <g id="Capa_1-2" data-name="Capa_1">
    <g id="exOBUF.tif">
      <g>
        <path d="M0,55.47c.41-.5.93-.64,1.58-.64,2.79.03,5.58.01,8.37.01h.93c-1.1-1.65-.82-3.4-.84-5.11-.02-2.38,0-4.76,0-7.14,0-.26-.06-.61.08-.77.27-.32.62-.65,1-.76.49-.13.88.22,1.02.71.08.29.08.62.08.93,0,3,0,6.01,0,9.01,0,1.98.99,2.98,2.97,2.98,6.4,0,12.79,0,19.19,0,1.92,0,2.91-.83,3-2.73.11-2.33.06-4.66.08-6.99,0-1.44,0-2.88,0-4.33,0-.42-.08-.68-.51-.89-1.27-.62-1.83-1.71-1.83-3.1,0-2.09,0-4.18,0-6.27,0-.26,0-.52,0-.82h-1c0,.98.05,1.94-.01,2.9-.1,1.59-1.37,2.84-2.94,2.95-1.57.12-3.07-.9-3.38-2.44-.16-.79-.08-1.63-.11-2.44,0-.31,0-.62,0-.98-.29-.02-.52-.04-.76-.04-3.94,0-7.89,0-11.83,0-1.84,0-2.85,1.01-2.86,2.86-.01,1.73,0,3.46,0,5.19,0,.77-.39,1.24-.99,1.29-.63.06-1.17-.43-1.17-1.17-.02-1.97-.06-3.94.03-5.91.13-2.53,2.17-4.41,4.71-4.43,2.91-.02,5.82,0,8.73,0,.23,0,.46,0,.82,0-.8-1.43-.63-2.88-.63-4.31,0-6.1,0-12.21,0-18.31,0-2.26,1.25-4,3.28-4.54.53-.14,1.09-.18,1.64-.18,6.57-.01,13.13-.01,19.7,0,3.11,0,4.93,1.83,4.93,4.93,0,3.29,0,6.59,0,9.88,0,.24.01.49-.05.72-.15.56-.56.86-1.12.83-.56-.03-.92-.38-1-.96-.03-.21-.01-.43-.01-.65,0-3.32,0-6.63,0-9.95,0-1.69-.88-2.6-2.57-2.61-6.69-.01-13.37-.02-20.06,0-1.69,0-2.56.91-2.57,2.61,0,6.66,0,13.31,0,19.97,0,1.68.89,2.55,2.59,2.58,1.01.02,1.37.39,1.38,1.42,0,1.08,0,2.16,0,3.24,0,.76.4,1.22,1.01,1.24.64.02,1.06-.46,1.07-1.26.01-1.08,0-2.16,0-3.24.01-1.02.39-1.39,1.4-1.39.87,0,1.73,0,2.6,0,.97,0,1.36.37,1.36,1.35.01,2.5,0,5,.01,7.5,0,.22,0,.43.01.65.06.71.47,1.1,1.11,1.06.59-.03.95-.43.98-1.11,0-.19,0-.38,0-.58,0-2.45,0-4.9,0-7.35,0-1.17.34-1.52,1.49-1.52,2.53,0,5.05,0,7.58,0,1.68,0,2.59-.91,2.6-2.58,0-1.63,0-3.27,0-4.9,0-.86.39-1.34,1.07-1.33.69,0,1.1.48,1.11,1.31,0,1.75.04,3.51-.02,5.26-.03.72-.27,1.44-.43,2.22.17,0,.42.03.67.03,2.84,0,5.68,0,8.51,0,2.98,0,5,2,5,4.96,0,6.54.02,13.07-.02,19.61,0,.95-.34,1.89-.54,2.92.56,0,1.25,0,1.93,0,1.35,0,2.69.01,4.04,0,.67,0,1.29.08,1.47.84.18.77-.35,1.12-.97,1.37-24.29,0-48.59,0-72.88,0,0-.53,0-1.06,0-1.59ZM41.59,29.53c0,.35,0,.61,0,.87,0,2.16,0,4.32,0,6.48,0,1.17-.5,2.1-1.49,2.71-.38.23-.45.49-.45.87,0,3.79,0,7.59,0,11.38,0,1.83,1.02,2.85,2.87,2.85,6.47,0,12.93,0,19.4,0,1.88,0,2.88-1.03,2.89-2.91,0-6.44,0-12.87,0-19.31,0-1.97-.99-2.94-2.99-2.94-6.44,0-12.88,0-19.32,0-.26,0-.53,0-.9,0Z"/>
        <path d="M21.58,52.6c-1.1,0-2.21,0-3.31,0-1.86-.02-3.25-1.26-3.31-3.09-.07-2.04-.04-4.08-.02-6.12,0-.74.46-1.18,1.09-1.18.63,0,1.08.45,1.08,1.19.02,1.85,0,3.69.01,5.54,0,1.18.32,1.48,1.5,1.48,2.11,0,4.23,0,6.34,0,.89,0,1.41.41,1.41,1.09,0,.68-.52,1.09-1.41,1.09-1.13,0-2.26,0-3.39,0Z"/>
        <path d="M31.07,12.43c0,1.11,0,2.21,0,3.32-.01.81-.4,1.25-1.08,1.25-.66,0-1.09-.45-1.1-1.25-.01-2.31-.04-4.61,0-6.92.04-1.9,1.44-3.23,3.34-3.25,1.9-.02,3.8,0,5.7,0,.86,0,1.33.39,1.35,1.07.02.71-.46,1.11-1.36,1.11-1.83,0-3.66,0-5.48,0-.98,0-1.35.37-1.36,1.35-.01,1.11,0,2.21,0,3.32Z"/>
        <path d="M61.93,45.64c0,1.13.01,2.26,0,3.38-.03,1.68-1.16,3.07-2.84,3.17-2.15.13-4.32.07-6.48.05-.66,0-1.1-.53-1.08-1.11.02-.59.47-1.03,1.15-1.04,1.85-.02,3.7,0,5.55-.01,1.22,0,1.52-.31,1.52-1.54,0-2.04,0-4.08,0-6.12,0-.19-.01-.39.01-.58.08-.61.54-1.02,1.11-1.01.58.02,1.03.43,1.05,1.06.03,1.25,0,2.5,0,3.74h0Z"/>
      </g>
    </g>
  </g>
</svg>