<?xml version="1.0" encoding="UTF-8"?>
<svg id="Capa_2" xmlns="http://www.w3.org/2000/svg" viewBox="0 0 71.3 71.3">
  <g id="Capa_1-2" data-name="Capa_1">
    <g id="oLHB77.tif">
      <path d="M71.3,46.37c-.36,1.21-1.21,1.96-2.28,2.57-2.97,1.68-6.06,2.98-9.48,3.44-4.39.59-8.26-.6-11.7-3.32-2.56-2.02-4.59-4.52-6.26-7.3-.27-.44-.39-.98-.6-1.53-2.35.03-4.7.42-7.04.88-1.24.24-2.15.82-2.99,1.79-4.48,5.17-8.3,10.75-11.09,17.01-.11.25-.22.5-.37.85,1.05-.18,2-.39,2.96-.48,2.88-.29,5.77-.53,8.65-.82.32-.03.65-.23.93-.42.48-.32.91-.72,1.39-1.03,2.4-1.58,4.98-2.78,7.83-3.27,4.08-.7,7.6.54,10.71,3.15,1.79,1.5,3.28,3.28,4.55,5.23.86,1.32.71,2.98-.5,3.89-3.17,2.38-6.65,4.05-10.69,4.27-3.03.17-5.71-.84-8.1-2.63-2.37-1.77-4.31-3.93-5.77-6.52-.08-.15-.36-.28-.54-.27-4.09.12-8.14.62-12.13,1.53-.21.05-.47.32-.53.53-.54,1.94-1.04,3.89-1.55,5.84-.05.18-.06.37-.1.55-.18.7-.74,1.1-1.38.98-.64-.12-1.08-.69-.93-1.4.32-1.63.57-3.3,1.11-4.87.9-2.62,1.95-5.2,3.06-7.75.39-.89.57-1.72.45-2.66-.37-3.08-1.13-6.05-2.34-8.91-.28-.66-.53-1.05-1.42-1.09-2.13-.11-4.24-.59-6.19-1.49-1.52-.7-3.04-1.52-4.36-2.55C1.78,38.35.57,35.22.15,31.74-.12,29.6,0,27.48.3,25.36c.27-1.94,1.7-2.98,3.65-2.71,2.8.38,5.49,1.12,7.98,2.5,3.96,2.2,6.02,5.64,6.6,10.05.3,2.29.31,4.61-.19,6.85-.21.97,0,1.68.35,2.48,1.04,2.34,1.78,4.77,2.23,7.29.03.15.09.3.15.49.94-1.42,1.91-2.75,2.71-4.17.32-.57.35-1.34.41-2.02.35-4.11.67-8.23,1.01-12.34.03-.42-.07-.64-.49-.84-.53-.25-1-.66-1.46-1.05-2.25-1.94-4.18-4.14-5.67-6.73-2.94-5.1-2.75-10.25-.24-15.43,1.05-2.16,2.37-4.14,3.92-5.98,1.31-1.55,3.19-1.72,4.74-.43,2.28,1.89,4.28,4.05,5.86,6.56,3.06,4.85,3.35,9.9,1.1,15.14-1.11,2.58-2.55,4.98-4.47,7-.78.83-.91,1.6-.96,2.61-.16,2.94-.41,5.88-.62,8.81-.01.15-.02.3-.02.4,4.37-4.81,8.74-9.64,13.15-14.49-.95-1.44-.94-3.16-1.12-4.83-.37-3.49-.19-6.95.81-10.34,1.5-5.09,4.85-8.6,9.46-11.03,2.73-1.44,5.63-2.38,8.63-3.02.13-.03.25-.1.37-.15.46,0,.93,0,1.39,0,1.64.51,2.58,1.57,2.86,3.3.56,3.46.73,6.92.18,10.39-.58,3.63-1.95,6.9-4.49,9.62-2.77,2.95-6.22,4.8-10.01,6.06-1.86.62-3.73,1.26-5.74,1.29-.18,0-.4.2-.54.36-2.14,2.29-4.27,4.58-6.4,6.88-.14.15-.26.31-.41.5.13.02.19.04.26.04,2.12-.2,4.24-.39,6.36-.6.18-.02.37-.07.51-.17,1.83-1.29,3.82-2.27,5.92-3.04,3.53-1.3,7.16-1.94,10.83-.8,5.86,1.82,9.62,6.04,12.38,11.3v1.25ZM44.62,27.85c.24-.02.36,0,.46-.05,2.12-.8,4.31-1.45,6.34-2.43,3.29-1.6,5.94-3.98,7.47-7.39,2.15-4.77,2.02-9.73,1.12-14.74-.12-.67-.68-.97-1.38-.83-2.92.58-5.74,1.48-8.38,2.88-4.02,2.13-6.96,5.19-8.25,9.66-.89,3.1-1.02,6.26-.7,9.45.1,1,.27,2,.42,3.15.28-.31.44-.47.59-.65,4.81-5.59,8.51-11.85,11.15-18.73.35-.9.93-1.23,1.63-.95.7.28.91.93.58,1.81-2.54,6.61-6.04,12.67-10.51,18.16-.16.19-.31.39-.53.67ZM43.44,40.14c.12.29.15.4.21.49,1.33,2.17,2.87,4.16,4.78,5.85,2.49,2.19,5.29,3.66,8.7,3.67,4.18,0,7.86-1.55,11.35-3.68.57-.35.56-.87.18-1.38-1.13-1.5-2.2-3.04-3.42-4.46-1.29-1.5-2.87-2.68-4.64-3.61-3.38-1.79-6.88-1.61-10.41-.58-1.29.38-2.53.93-3.79,1.4l.06.21c.2.04.4.08.6.11,4.95.64,9.6,2.21,13.93,4.69.25.14.51.35.65.6.29.5.18,1-.24,1.39-.5.46-1.05.37-1.6.06-3.62-2.06-7.47-3.47-11.58-4.15-1.54-.26-3.1-.39-4.79-.59ZM27.62,29.26c.08.03.15.06.23.1.91-1.58,1.91-3.12,2.7-4.76,1.54-3.19,2.1-6.53.93-9.98-1.33-3.94-3.96-6.92-7.09-9.53-.49-.41-.94-.23-1.32.23-1.53,1.85-2.84,3.84-3.83,6.03-1.55,3.48-2.03,7.02-.55,10.66,1.28,3.17,3.42,5.7,5.94,7.95.15.13.31.24.64.49-.14-2.37-.23-4.57-.42-6.75-.35-4.24-1.14-8.4-2.18-12.52-.21-.82.09-1.4.78-1.6.68-.2,1.27.17,1.49.97,1.19,4.4,1.98,8.86,2.35,13.4.14,1.77.22,3.55.33,5.32ZM34.08,61.9c1.94,2.68,4.03,4.93,6.97,6.23,1.58.7,3.23.92,4.96.7,3.07-.39,5.73-1.74,8.25-3.44.48-.32.46-.68.16-1.12-1.27-1.87-2.73-3.58-4.53-4.96-1.96-1.51-4.13-2.5-6.67-2.34-2.66.17-5.13.97-7.41,2.36-.08.05-.15.13-.29.26.24.02.37.03.51.04,4.09.31,7.97,1.38,11.62,3.28.95.49,1.25,1.11.91,1.79-.35.7-1.01.78-1.99.34-1.35-.61-2.7-1.23-4.09-1.72-2.66-.93-5.42-1.38-8.41-1.41ZM14.84,42.2c-.23-.39-.38-.67-.55-.95-2.41-3.98-5.38-7.49-8.94-10.5-.69-.59-.8-1.25-.34-1.81.47-.57,1.2-.56,1.9.03,3.47,2.89,6.41,6.24,8.83,10.05.13.2.27.38.4.58.07-.02.14-.05.21-.07-.07-1.36-.05-2.73-.22-4.08-.39-3.15-1.68-5.81-4.41-7.63-2.51-1.68-5.33-2.44-8.27-2.85-.53-.07-.78.26-.79.74-.06,1.94-.24,3.89-.1,5.82.17,2.35.95,4.55,2.61,6.31,2.59,2.73,5.97,3.74,9.67,4.36Z"/>
    </g>
  </g>
</svg>