<?xml version="1.0" encoding="UTF-8"?>
<svg id="Capa_2" xmlns="http://www.w3.org/2000/svg" viewBox="0 0 70.97 64.43">
  <g id="Capa_1-2" data-name="Capa_1">
    <g>
      <path d="M35.31,64.43c-4.04,0-7.95-.66-11.81-1.96-1.75-.59-3.72-.46-5.55-.84C8.07,59.54,1.75,53.11.45,43.12-1.36,29.25,2.32,16.78,11.55,6.26c7.4-8.43,15.49-8.26,23.09-.01,5.75,6.24,8.68,13.81,10.21,22.01.19,1.03.51,1.36,1.54,1.53,5.94.98,11.79,2.34,17.25,5,.87.42,1.73.89,2.55,1.41,4.77,3.01,5.98,5.68,3.62,11.76-1.67,4.32-5.12,7.17-8.95,9.55-6.95,4.31-16.55,6.89-25.55,6.92ZM42.45,29.31c-.07-.77-.07-1.37-.19-1.94-1.01-4.72-2.56-9.24-4.98-13.43-2.18-3.78-4.82-7.15-8.52-9.6-3.88-2.56-7.77-2.62-11.55.07-1.62,1.15-3.23,2.46-4.47,3.99C4.9,18.11,1.31,29.24,2.68,41.67c.91,8.24,5.13,14.3,13.36,17.01.41.13.84.18,1.47.3-4.45-5.27-5.44-7.25-6.42-12.69-1.21-6.7,1.2-11.67,7.46-14.35,2.97-1.27,6.23-2.24,9.43-2.53,4.74-.42,9.55-.11,14.47-.11ZM36.56,53.22c7.33-.09,15.7-1.4,23.67-4.64,2.49-1.01,4.86-2.49,7.02-4.11,1.79-1.35,1.74-3.03,0-4.47-1.57-1.3-3.33-2.49-5.19-3.3-10.71-4.61-21.92-6.21-33.5-5.06-4.31.43-8.54,1.44-12.01,4.3-2.57,2.12-3.96,4.8-3,8.2,1.08,3.85,4.16,5.71,7.59,7.02,4.55,1.74,9.34,2.07,15.42,2.06ZM67.22,47.9c-2.21,1.07-4.07,2.14-6.03,2.9-9.59,3.71-19.56,5.24-29.82,4.7-4.88-.26-9.66-1.07-14.01-3.5-.85-.47-1.66-1.03-2.79-1.72,2.78,6.7,7.72,10.11,14.24,11.14,10.49,1.67,20.42-.32,29.73-5.37,3.51-1.91,6.54-4.37,8.68-8.15Z"/>
      <path d="M11.39,17.45c-.17-.66-.69-1.5-.45-1.94,1.8-3.39,4.06-6.46,7.24-8.7.4-.28,1.17-.04,1.77-.04-.11.63,0,1.43-.36,1.87-2.1,2.63-4.31,5.16-6.44,7.77-.34.41-.42,1.04-.62,1.57-.38-.17-.77-.35-1.15-.52Z"/>
      <path d="M33.07,33.69c4.44.27,8.63,1.09,12.5,3.21,2.02,1.1,3.96,2.49,3.95,5.04-.02,2.54-1.95,3.95-4,4.99-6.4,3.25-13.11,3.82-19.96,1.79-3.97-1.18-6.17-3.75-6.2-6.76-.03-3.1,2.19-5.71,6.26-6.87,2.42-.69,4.97-.95,7.46-1.4ZM33.17,36.29c-3.29.17-6.59.35-9.41,2.31-2.66,1.84-2.65,4.73-.01,6.61.59.42,1.24.79,1.92,1.01,6.62,2.17,13.06,1.63,19.18-1.66,3.08-1.66,3.03-3.53,0-5.33-3.59-2.14-7.59-2.77-11.68-2.94Z"/>
    </g>
  </g>
</svg>