<?xml version="1.0" encoding="UTF-8"?>
<svg id="Capa_2" xmlns="http://www.w3.org/2000/svg" viewBox="0 0 70.13 70.13">
  <g id="Capa_1-2" data-name="Capa_1">
    <g id="zrU1Rq.tif">
      <g>
        <path d="M0,56.29c.4-.74,1.02-1,1.86-.97,1.66.05,3.33.01,4.97.01-.28-.82-.64-1.59-.79-2.4-.51-2.81.43-5.22,2.24-7.32.35-.41.41-.71.24-1.2-1.12-3.22-1.63-6.54-1.65-9.94-.01-2.6,0-5.2,0-7.81,0-1.3.47-1.75,1.79-1.75,5.59,0,11.18,0,16.78,0,1.17,0,1.82.5,1.8,1.39-.02.86-.66,1.35-1.78,1.35-4.98,0-9.95,0-14.93,0-.27,0-.55,0-.92,0,.05,5.26-.44,10.52,1.44,15.65.33-.14.66-.28.99-.42,1.8-.71,3.63-.9,5.48-.28,3.11,1.04,4.78,4.27,4.03,7.74-.41,1.88-1.34,3.47-2.73,4.92.24.03.41.06.57.06,8.42,0,16.84,0,25.27-.01.32,0,.72-.16.95-.38,5.84-5.56,8.75-12.39,8.87-20.43.03-2.08,0-4.15,0-6.23,0-.18-.02-.36-.03-.61-.3,0-.57,0-.84,0-4.95,0-9.91,0-14.86,0-.23,0-.46.01-.68-.02-.73-.1-1.25-.71-1.22-1.41.03-.71.58-1.25,1.33-1.3.14,0,.27,0,.41,0,6.64,0,13.28,0,19.93,0,5.62,0,10.24,3.78,11.39,9.28,1.34,6.43-3.29,12.88-9.81,13.59-1.78.19-3.6.09-5.4.15-.24,0-.58.15-.7.34-.75,1.2-1.4,2.46-2.18,3.63-.77,1.15-1.68,2.22-2.59,3.42h.73c4.13,0,8.26,0,12.39,0,1.32,0,1.82.54,1.75,1.85-.21,4.04-3.66,7.38-7.71,7.46-1.46.03-2.92,0-4.42,0-.07.2-.13.39-.19.58-.87,2.88-3.47,4.89-6.47,4.9-8.83.02-17.67.02-26.5,0-2.97,0-5.57-2.01-6.44-4.85-.06-.19-.11-.39-.18-.62-1.29,0-2.57,0-3.85,0-4.3,0-7.36-2.51-8.21-6.73-.02-.09-.07-.17-.11-.25,0-.46,0-.91,0-1.37ZM3,58.11c.43,2.1,2.54,3.76,4.83,3.79,1.8.03,3.61,0,5.41.01,1.01,0,1.5.49,1.56,1.5.15,2.33,1.87,3.97,4.22,3.97,8.69,0,17.39,0,26.08,0,2.34,0,4.05-1.65,4.2-3.99.07-.99.57-1.48,1.58-1.48,1.69,0,3.38,0,5.07,0,.48,0,.96-.05,1.42-.15,1.82-.4,3.48-2.05,3.7-3.65H3ZM56.34,41.96c-.33,1.08-.65,2.13-.98,3.23,1.17,0,2.26.02,3.36,0,5.69-.09,9.79-5.44,8.39-10.95-1.07-4.2-5.19-7.18-9.82-6.49v3.2c.51,0,.97,0,1.42,0,2.82.05,5.16,2.23,5.38,5.02.22,2.81-1.72,5.36-4.5,5.8-1.05.17-2.13.13-3.24.18ZM16.12,45.02c-2.53-.27-4.46.76-5.98,2.63-1.28,1.58-1.9,3.36-1.22,5.51,1.38-2.85,1.97-3.37,4.86-4.44,1.49-.55,2.41-1.95,2.34-3.7ZM18.73,47.08c-.27.57-.44.99-.66,1.38-.89,1.56-2.24,2.53-3.96,3.04-1.74.51-2.81,2.1-2.53,3.78,2.23.24,4.04-.6,5.53-2.2,1.53-1.64,2.27-3.55,1.62-6ZM57.29,33.75c-.12,1.81-.23,3.58-.35,5.39.67,0,1.39.07,2.08-.02,1.34-.17,2.31-1.32,2.34-2.63.03-1.3-.85-2.48-2.14-2.72-.61-.11-1.26-.02-1.92-.02Z"/>
        <path d="M32.46,0c1.17.8,1.27,1.51.35,2.57-1.85,2.13-1.79,5.08.2,7.2,1.62,1.72,2.43,3.72,2.32,6.08-.09,1.97-.84,3.67-2.18,5.11-.62.66-1.41.72-2.01.19-.6-.53-.61-1.32-.04-2.01,2.1-2.55,2.03-5.16-.2-7.61-2.87-3.14-2.89-7.8-.04-10.87C31.09.41,31.38.22,31.64,0c.27,0,.55,0,.82,0Z"/>
        <path d="M43.14,16.82c0-1.18-.5-2.01-1.21-2.78-2.17-2.38-2.16-5.99,0-8.34.39-.43.84-.71,1.45-.57,1.06.25,1.42,1.43.66,2.31-.82.94-1.24,2.02-.87,3.21.21.69.65,1.35,1.13,1.91,2.09,2.4,2.11,6-.02,8.31-.68.74-1.47.84-2.1.27-.59-.53-.58-1.35.04-2.06.59-.68.91-1.46.93-2.25Z"/>
        <path d="M22.36,6.67c-.09.16-.22.53-.45.81-1.32,1.63-1.28,3.37.13,4.93,2.31,2.54,2.31,6.31.01,8.6-.58.58-1.33.65-1.91.18-.54-.44-.67-1.19-.3-1.78.06-.1.14-.18.21-.27,1.36-1.68,1.32-3.35-.12-4.98-1.85-2.08-2.26-4.75-1.03-7.09.3-.58.73-1.1,1.17-1.58.38-.42.91-.51,1.45-.27.53.23.81.65.83,1.45Z"/>
        <path d="M32.04,27.65c-.72,0-1.34-.62-1.36-1.34-.02-.76.61-1.39,1.37-1.39.76,0,1.38.64,1.36,1.4-.02.73-.65,1.33-1.37,1.33Z"/>
      </g>
    </g>
  </g>
</svg>