<?xml version="1.0" encoding="UTF-8"?>
<svg id="Capa_2" xmlns="http://www.w3.org/2000/svg" viewBox="0 0 85.59 85.59">
  <g id="Capa_1-2" data-name="Capa_1">
    <g id="ufihOh.tif">
      <g>
        <path d="M23.12,0c1.11.28,2.23.48,3.31.84,6.43,2.13,10.77,8.1,10.83,14.88.02,2.27,0,4.54,0,6.82,0,.28,0,.56,0,.93.5,0,.92-.02,1.35,0,.86.05,1.4.56,1.41,1.43.02,2.27.02,4.54,0,6.82,0,.86-.55,1.4-1.42,1.4-4.57.02-9.14.02-13.72,0-.86,0-1.39-.55-1.4-1.42-.02-2.27-.02-4.54,0-6.82,0-.86.55-1.36,1.42-1.41.4-.02.8,0,1.33,0,0-.57,0-1.1,0-1.64,0-1.98.02-3.97,0-5.95-.03-2.72-2.16-4.83-4.82-4.83-2.66,0-4.82,2.11-4.83,4.83-.01,16.62,0,33.24,0,49.87,0,.14.02.28.03.47,4.13,0,8.22,0,12.32,0,.79-4.16,2.87-5.73,7.01-5.34.35-.66.73-1.3,1.02-1.98.1-.25.03-.6-.05-.89-.78-2.67-1.1-5.39-.97-8.3.89.04,1.76.08,2.56.12.26,2.39.52,4.71.77,6.97,1.34-.06,2.46-.11,3.79-.17,0-.82.14-1.76-.02-2.64-1.66-9.32,4.91-18.8,14.24-20.49,10.12-1.84,19.33,4.51,21.17,14.63.68,3.73.09,7.32-1.51,10.75-.11.23-.22.46-.31.64,1.13.75,2.24,1.49,3.46,2.3,3.27-6.16,3.87-12.64,1.08-19.17-3.51-8.22-9.9-12.97-18.81-13.55-10.11-.66-17.28,4.17-21.94,13.15-.33-.14-.75-.3-1.16-.48-.39-.17-.78-.35-1.25-.55.11-.27.19-.53.31-.77,4.4-9.41,14.5-15.12,24.85-14.05,11.89,1.22,20.97,10.28,22.3,22.24.02.2.1.38.15.58v3.8c-.05.19-.13.38-.15.58-.36,3.78-1.55,7.29-3.55,10.51-.44.71-.66,1.36-.34,2.2.66,0,1.35.05,2.04-.01.85-.07,1.51.17,2,.87,0,6.15,0,12.31,0,18.46-28.53,0-57.06,0-85.59,0,0-6.15,0-12.31,0-18.46.49-.71,1.15-.92,2-.88,1.16.06,2.33.01,3.52.01,0-.51,0-.88,0-1.25,0-16.35,0-32.7,0-49.05,0-6.8,4.09-12.67,10.43-14.98C17.15.54,18.43.32,19.67,0c1.15,0,2.3,0,3.45,0ZM82.79,69.02c-3.19,0-6.29-.01-9.4.02-.23,0-.55.25-.67.47-.82,1.45-2.04,2.26-3.71,2.25-1.67,0-2.88-.82-3.7-2.27-.13-.23-.5-.45-.77-.46-1.52-.04-3.05,0-4.57-.04-.58-.02-.83.16-1.05.71-.84,2.12-2.89,3.49-5.12,3.42-2.37-.07-4.11-1.22-5.04-3.41-.26-.61-.56-.71-1.14-.71-14.64.01-29.28.01-43.91.01h-.91c0,4.66,0,9.19,0,13.75,26.68,0,53.32,0,79.99,0,0-4.58,0-9.12,0-13.75ZM13.8,66.22c0-.4,0-.74,0-1.08,0-16.36,0-32.72,0-49.07,0-4.38,3.3-7.76,7.54-7.78,4.28-.02,7.61,3.36,7.64,7.77.01,2.18,0,4.37,0,6.55,0,.27,0,.55,0,.81,1.9,0,3.67,0,5.5,0,0-2.82.11-5.61-.02-8.39-.32-6.73-6.06-12.18-12.78-12.27-7.44-.1-13.39,5.71-13.4,13.16-.02,16.5,0,33,0,49.5,0,.25,0,.5,0,.79,1.85,0,3.63,0,5.52,0ZM74.29,57.69c2.38-3.91,2.55-11.18-2-16.49-4.63-5.41-12.53-6.88-18.81-3.46-5.05,2.76-9.02,9.82-7.78,13.86,5.08-4.03,12.36-1.41,13.58,4.91,1.57.2,3.08.39,4.67.59,1.02-2.06,2.78-3.32,5.27-3.22,2.49.1,4.14,1.5,5.06,3.8ZM31.77,66.26c.36,0,.67,0,.98,0,5.52,0,11.04,0,16.56,0,1.22,0,1.63.38,1.77,1.6.17,1.48,1.35,2.55,2.78,2.54,1.43-.02,2.56-1.09,2.72-2.6.12-1.11.56-1.53,1.66-1.54,2.59,0,5.18,0,7.76,0,1.03,0,1.46.39,1.63,1.39.15.88.65,1.37,1.39,1.36.74,0,1.22-.49,1.37-1.39.16-.95.6-1.36,1.56-1.36,1.96-.01,3.91,0,5.87,0,.27,0,.55,0,.83,0,0-.23.01-.35,0-.46-.35-2.57-2.64-4.12-5.22-3.51-.63.15-1.29.21-1.63-.38-.24-.41-.21-1-.23-1.51,0-.3.17-.61.18-.92.09-1.49-1.12-2.8-2.61-2.88-1.61-.08-2.87,1.14-2.89,2.85,0,.69-.15,1.28-.81,1.58-.69.32-1.2-.05-1.79-.45-.76-.51-1.64-.99-2.53-1.14-.79-.14-1.67.18-2.59.32-.21-.96-1.03-1.11-1.97-1.02,0-.47.02-.81,0-1.15-.21-3.07-2.95-5.4-6.02-5.11-3.06.28-5.35,3.09-4.96,6.14.09.73.01,1.33-.65,1.71-.68.39-1.25.12-1.81-.34-.71-.58-1.53-.78-2.43-.53-1.52.42-2.29,1.76-1.94,3.42.14.68.06,1.28-.57,1.66-.61.37-1.21.27-1.74-.2-.15-.13-.3-.27-.47-.37-.9-.56-1.84-.64-2.78-.13-.92.5-1.42,1.29-1.45,2.43ZM26.27,30.31c3.7,0,7.33,0,10.94,0v-4.04c-3.68,0-7.29,0-10.94,0v4.04Z"/>
        <path d="M49.82,7.14c-.76-.33-1.55-.67-2.32-1,.52-1.93,2.86-3.43,5.13-3.34,2.73.11,4.85,1.99,5.3,4.67.4,2.43-1.04,4.96-3.37,5.91-2.4.98-5.1.18-6.62-2.02.72-.5,1.44-1,2.16-1.5,1.3,1.38,3.08,1.71,4.46.17,1.01-1.13.83-2.89-.32-3.86-1.35-1.14-2.92-.81-4.41.96Z"/>
        <path d="M28.76,60.49c-.7-.2-1.37-.36-2-.61-.22-.09-.46-.37-.52-.61-.21-.84-.73-1.33-1.47-1.29-.68.04-1.24.59-1.3,1.27-.06.74.44,1.28,1.26,1.5.26.07.55.33.65.58.25.61.4,1.25.58,1.88-1.4.67-3.34.06-4.43-1.38-1.19-1.56-1.09-3.73.24-5.23,1.28-1.45,3.4-1.8,5.1-.85,1.64.91,2.47,2.91,1.88,4.74Z"/>
        <path d="M74.3,26c-1.77.58-3.65-.19-4.62-1.79-.98-1.63-.71-3.76.65-5.07,1.4-1.34,3.46-1.57,5.08-.56,1.56.97,2.3,2.9,1.7,4.62-.76-.21-1.53-.4-2.28-.65-.14-.05-.24-.34-.28-.54-.19-.85-.72-1.34-1.46-1.3-.68.04-1.25.6-1.3,1.28-.06.74.43,1.27,1.26,1.49.24.06.53.29.62.51.25.63.41,1.31.62,2Z"/>
        <path d="M30.31,46.9c-.91,0-1.76,0-2.7,0,0-1.84,0-3.64,0-5.44s0-3.62,0-5.49h2.7c0,3.61,0,7.24,0,10.93Z"/>
        <path d="M33.2,41.45h2.65c0,1.82,0,3.61,0,5.44h-2.65c0-1.79,0-3.57,0-5.44Z"/>
        <path d="M33.15,38.6v-2.64c.88,0,1.75,0,2.68,0v2.64c-.87,0-1.74,0-2.68,0Z"/>
        <path d="M27.67,49.74h2.66c0,.89,0,1.74,0,2.65h-2.66c0-.86,0-1.72,0-2.65Z"/>
      </g>
    </g>
  </g>
</svg>