<?xml version="1.0" encoding="UTF-8"?>
<svg id="Capa_2" xmlns="http://www.w3.org/2000/svg" viewBox="0 0 41.23 82.04">
  <g id="Capa_1-2" data-name="Capa_1">
    <g id="_x35_KaSrn.tif">
      <g>
        <path d="M11.63,0c5.97,0,11.95,0,17.92,0,.2.06.4.15.6.18,2.39.33,4.29,2.15,4.87,4.66.51,2.19-.47,4.64-2.38,5.95-.39.26-.81.49-1.25.75.13.3.24.57.36.83,1.94,4.06,3.89,8.11,5.81,12.18,1.45,3.09,2.66,6.27,3.24,9.66.17.99.29,1.99.43,2.98v36.39c-.07.36-.15.72-.2,1.08-.54,4.15-2.6,7.35-7.46,7.36-8.66.01-17.33.02-25.99,0-3.31-.01-5.71-1.55-6.69-4.47-.52-1.54-.83-3.23-.84-4.85C-.02,61.17,0,49.63.02,38.09c0-.96.05-1.93.18-2.87.46-3.33,1.51-6.49,2.9-9.52,2.04-4.43,4.18-8.82,6.27-13.22.14-.3.27-.62.42-.95-.25-.14-.44-.24-.62-.34-2.01-1.15-3.14-2.85-3.12-5.21.03-2.34,1.11-4.09,3.17-5.17C9.97.41,10.83.26,11.63,0ZM38.43,38.66c-.05-1.06-.03-2.05-.15-3.02-.43-3.45-1.65-6.67-3.11-9.79-2.09-4.44-4.26-8.84-6.37-13.27-.27-.56-.56-.78-1.2-.77-4.66.03-9.33.03-13.99,0-.68,0-.97.25-1.25.82-2.05,4.31-4.22,8.56-6.17,12.91-1.13,2.52-2.01,5.16-2.84,7.79-.53,1.69-.71,3.48-.51,5.32h35.6ZM2.9,59.38c-.06.13-.1.18-.1.22,0,4.94-.18,9.89.09,14.82.2,3.63,1.94,5.04,5.38,5,7.73-.09,15.46-.03,23.2-.03.83,0,1.65.01,2.48,0,1.8-.05,3.17-.84,3.77-2.56.37-1.07.63-2.23.65-3.35.06-4.38-.01-8.76.02-13.14,0-.85-.3-1.01-1.07-1.01-11.17.02-22.34,0-33.51.01-.31,0-.62.03-.9.05ZM20.59,41.67h0c-5.62-.01-11.25,0-16.87-.03-.73,0-.94.21-.94.94.03,4.35.03,8.71,0,13.06,0,.77.21.98.98.98,11.2-.03,22.39-.03,33.59-.01.8,0,.98-.27.97-1.01-.03-4.3-.03-8.6,0-12.9,0-.79-.18-1.05-1.02-1.04-5.57.04-11.14.02-16.71.02ZM20.55,2.91s0-.02,0-.03c-1.95,0-3.89-.01-5.84,0-1.14,0-2.3-.03-3.43.11-1.41.18-2.35,1.29-2.51,2.72-.14,1.28.66,2.63,1.95,3.09.59.21,1.25.28,1.88.28,5.33.01,10.66,0,15.99-.02.4,0,.8-.03,1.19-.09,1.37-.22,2.4-1.36,2.49-2.74.14-1.93-1.22-3.31-3.34-3.34-2.8-.03-5.6,0-8.39,0Z"/>
        <path d="M10.12,50.96c.62-2.02,1.21-3.78,1.71-5.57.2-.72.55-.95,1.3-.93,1.76.05,1.79.01,1.9,1.78.15,2.37.25,4.74.39,7.11.03.43-.09.68-.56.63-.11,0-.21,0-.32,0-1.14,0-1.15,0-1.16-1.1-.01-1.97,0-3.94,0-5.92-.09,0-.18-.02-.27-.03-.07.18-.16.35-.21.53-.58,1.91-1.19,3.82-1.71,5.75-.19.7-.64.62-1.14.66-.54.04-.82-.13-.95-.69-.47-1.92-.98-3.82-1.48-5.73-.05-.17-.11-.34-.26-.49-.13,2.3-.26,4.59-.4,6.95h-1.88c.07-1.43.14-2.81.21-4.18.09-1.49.22-2.98.27-4.47.02-.56.22-.72.76-.74,2.07-.06,2.08-.08,2.67,1.89.22.71.41,1.44.59,2.16.18.72.33,1.45.55,2.4Z"/>
        <path d="M36.02,53.85c-.82,0-1.46.05-2.08-.02-.22-.03-.48-.29-.61-.52-.64-1.08-1.24-2.18-1.86-3.27-.02-.04-.08-.06-.17-.12-.54.42-.9.91-.84,1.66.05.56-.02,1.12.02,1.68.04.57-.21.78-.75.72-.24-.02-.51.07-.71-.02-.23-.1-.56-.35-.56-.53-.04-2.8-.03-5.61,0-8.41,0-.18.29-.42.5-.52.2-.09.47,0,.71-.03.64-.07.84.21.81.83-.04,1.01-.01,2.02.14,3.1.6-.86,1.32-1.66,1.76-2.59.74-1.55,1.96-1.42,3.49-1.25-.57.72-1.07,1.31-1.54,1.93-.52.67-1.36,1.33-1.41,2.05-.05.68.73,1.42,1.16,2.13.6,1,1.22,2,1.95,3.19Z"/>
        <path d="M27.08,53.97c-1.85,0-3.63.01-5.41-.02-.16,0-.44-.32-.44-.49-.03-2.83-.03-5.66,0-8.49,0-.16.28-.39.47-.47.21-.08.48,0,.71-.03.7-.09.92.18.91.89-.05,2,0,4.01-.03,6.01-.01.67.22.91.87.86.64-.04,1.28,0,1.92,0q1.06,0,1.04,1.06c0,.18-.03.37-.05.69Z"/>
        <path d="M19.31,44.49c0,1.37,0,2.62,0,3.88,0,1.6-.02,3.2.01,4.8.01.62-.17.9-.81.82-.24-.03-.51.06-.71-.03-.23-.11-.56-.35-.56-.54-.04-2.8-.03-5.61,0-8.41,0-.18.26-.48.43-.5.52-.07,1.04-.02,1.65-.02Z"/>
      </g>
    </g>
  </g>
</svg>