<?xml version="1.0" encoding="UTF-8"?>
<svg id="Capa_2" xmlns="http://www.w3.org/2000/svg" viewBox="0 0 70.9 78.91">
  <g id="Capa_1-2" data-name="Capa_1">
    <g id="XIh4G8.tif">
      <g>
        <path d="M60.08,0c.94.31,1.93.52,2.81.95.82.39,1.57.96,2.28,1.54.72.58.78,1.25.29,1.8-.47.53-1.15.5-1.83-.08-2.37-2.03-5.23-2.45-7.86-1.15-3.22,1.59-4.66,5.31-3.34,8.73,1.62-.22,3.21-.19,4.47,1.12.83.87,1.14,1.94,1.12,3.1-.06,2.91-1.97,4.3-5.61,4.02-.65,1.9-.68,3.78.24,5.62,2.07,4.14,7.58,5.16,10.96,1.95,3.01-2.85,4.62-6.42,4.93-10.55.24-3.31-.49-6.42-2.14-9.3-.44-.77-.31-1.46.31-1.8.61-.34,1.26-.09,1.71.68,4.25,7.21,2.91,16.84-3.16,22.63-2.89,2.76-7.36,3.33-10.84,1.39-3.59-1.99-5.39-5.87-4.58-9.9.16-.77.36-1.55.66-2.28.7-1.73.67-3.42-.02-5.16-.85-2.14-1.18-4.38-.49-6.63,1.11-3.6,3.59-5.75,7.27-6.53.17-.04.34-.1.51-.15C58.54,0,59.31,0,60.08,0ZM53.27,17.69c.81.27,1.63.08,2.08-.53.47-.62.49-1.82.05-2.48-.43-.63-1.18-.83-2.13-.6v3.61Z"/>
        <path d="M21.28,59.73c-2.86-1.38-4.84-3.48-5.4-6.57-.24-1.33-.8-1.69-1.98-2.02-6.76-1.87-11.15-6.25-13.22-12.94-.31-1.01-.07-1.64.62-1.87.76-.24,1.28.16,1.61,1.2,1.97,6.38,6.24,10.3,12.77,11.63,1.5.3,3.14.32,4.64.04,2.9-.53,5.02-3.2,5.25-6.18.23-2.91-1.47-5.7-4.16-6.82-2.45,2.77-4.83,3.1-6.91.97-2.04-2.09-1.65-4.54,1.06-6.8-.98-2.6-3.82-4.36-6.72-4.18-3.03.19-5.66,2.37-6.33,5.3-.11.47-.14.96-.19,1.45-.08.87-.57,1.41-1.26,1.35C.38,34.26,0,33.73,0,32.87c.03-3.8,2.68-7.33,6.41-8.54,3.85-1.25,7.88.06,10.28,3.42.64.89,1.13,1.89,1.61,2.88.76,1.57,1.97,2.58,3.64,3.15,1.75-4.25,4.51-7.61,8.57-9.75,4.03-2.12,8.25-3.04,12.79-1.49.87-1.58,1.45-3.3,1.64-5.12.13-1.24.21-2.53.02-3.75-.46-2.91-3.02-5.22-5.85-5.52-3.22-.34-5.98,1.22-7.23,4.08,2.81,2.7,3.09,4.96.87,7.03-2.1,1.96-4.47,1.55-6.68-1.14-2.76.91-4.67,4.32-4.11,7.37.11.58.3,1.14.49,1.69.27.8.08,1.43-.55,1.69-.67.28-1.25-.03-1.62-.86-1.71-3.89-.46-8.45,3.09-11.03.74-.54,1.55-1.02,2.39-1.38,1.73-.73,2.91-1.94,3.64-3.66.71-1.68,1.73-3.16,3.2-4.26,2.93-2.21,6.14-2.54,9.43-1.05,3.37,1.53,5.2,4.28,5.4,7.97.17,3.24-.65,6.3-2.16,9.23,1.26,1.1,2.24,2.4,2.81,3.97.57,1.55.73,3.13.45,4.8,1.04.16,2.06.28,3.05.48,8.54,1.78,14.75,9.44,14.77,18.17,0,4.05-2.6,7.61-6.49,8.89-3.79,1.24-7.87-.11-10.27-3.48-.55-.77-.95-1.64-1.41-2.47-.26-.47-.5-.94-.82-1.56-.3.85-.43,1.6-.8,2.2-.71,1.13-.72,2.17-.41,3.48.97,4.16-.95,7.94-4.9,10.16-.4.23-.81.44-1.24.61-1.61.66-2.7,1.8-3.38,3.39-.65,1.53-1.53,2.92-2.79,4.01-2.89,2.51-6.19,3.05-9.68,1.58-3.49-1.47-5.43-4.25-5.64-8.04-.2-3.43.71-6.65,2.39-9.65.11-.2.22-.4.37-.67ZM44.42,54.45c.24-1.05.43-1.89.62-2.73.12-.53-.06-.82-.58-1.06-2.31-1.06-4.16-2.61-5.23-4.98-.23-.51-.39-1.04-.61-1.62-.18.31-.34.57-.5.83-2.66,4.42-7.27,5.93-12.01,3.91-.45-.19-.64-.03-.9.24-1.37,1.39-3.02,2.28-4.95,2.6-.74.12-1.5.15-2.25.21.16,2.47,1.96,4.88,4.23,5.74.38.15.57.03.84-.23,1.03-.99,2.05-2.02,3.18-2.89,1.87-1.44,4-2.38,6.29-2.94.69-.17,1.26.18,1.43.81.16.59-.15,1.15-.79,1.39-.17.06-.34.1-.52.15-4.94,1.47-8.48,4.57-10.54,9.29-1.09,2.5-1.65,5.14-1.14,7.88.54,2.94,3.15,5.2,6.18,5.48,2.95.26,5.79-1.44,6.9-4.14-2.71-2.61-3.06-4.77-1.08-6.81.81-.84,1.78-1.38,2.98-1.4,1.81-.03,2.98,1.04,3.94,2.38,2.96-1.43,4.53-4.2,4.14-7.21-.41-3.07-2.69-5.45-5.78-6-.4-.07-.82-.05-1.22-.11-.67-.1-1.07-.59-1.04-1.22.04-.63.48-1.05,1.18-1.06.46,0,.92.02,1.38.09,2.27.35,4.14,1.44,5.86,3.39ZM50.68,54.14c.32.48.59.95.92,1.38,1.75,2.27,4.08,3.17,6.85,2.6,2.87-.59,4.69-2.42,5.4-5.27.43-1.73.14-3.47-.23-5.18-1.57-7.09-8.05-12.48-15.24-12.66-.26,0-.64.18-.77.4-1.01,1.7-2.4,2.99-4.12,3.93-.7.38-1.44.68-2.12,1.09-.24.14-.5.46-.54.74-.44,2.95,1.35,6.01,4.13,7.11,1.14-1.59,2.54-2.74,4.65-2.25,1.79.41,2.98,1.6,3.4,3.39.5,2.11-.67,3.51-2.33,4.73ZM42.17,37.38c3.15-1.45,4.74-4.59,4.02-7.85-.71-3.23-3.59-5.47-7.01-5.45-6.51.04-12.57,4.22-14.95,10.28-.18.47-.17.74.26,1.09,2.66,2.2,3.77,5.05,3.27,8.47-.14.92-.46,1.82-.7,2.73,3.24,1.85,7.58.26,9.3-3.43-2.83-2.58-3.12-4.93-.89-7.02,1.7-1.6,4.49-1.98,6.71,1.18ZM31.14,14.65c-.94.94-1.79,1.8-2.71,2.72.28.38.86.94,1.81.75.77-.15,1.57-1.02,1.66-1.74.11-.91-.38-1.48-.77-1.73ZM47.07,49.33c.52.45,1.01.82,1.44,1.25.42.42.79.91,1.19,1.38.7-.54,1.27-1.12,1.06-2.02-.21-.88-.82-1.5-1.71-1.69-.9-.19-1.48.39-1.99,1.08ZM16.33,32.74c-.41.3-.94.88-.77,1.82.13.72.93,1.52,1.65,1.65.95.18,1.53-.36,1.79-.72-.92-.94-1.76-1.81-2.68-2.75ZM39.77,38.09c-.43-.58-1.07-.91-1.78-.74-.77.19-1.55,1.01-1.66,1.75-.12.76.26,1.41.81,1.73.89-.92,1.72-1.78,2.64-2.73ZM37.54,67.28c-.33-.46-.96-.97-1.93-.73-.71.17-1.48,1.07-1.55,1.75-.1.92.44,1.45.85,1.58.85-.84,1.7-1.68,2.64-2.61Z"/>
      </g>
    </g>
  </g>
</svg>