<?xml version="1.0" encoding="UTF-8"?>
<svg id="Capa_2" xmlns="http://www.w3.org/2000/svg" viewBox="0 0 67.8 56.62">
  <defs>
    <style>
      .cls-1 {
        stroke: #000;
        stroke-miterlimit: 10;
        stroke-width: .75px;
      }
    </style>
  </defs>
  <g id="Capa_1-2" data-name="Capa_1">
    <g id="_x30_T4k1F.tif">
      <path class="cls-1" d="M67.42,48.33c-.75,3.45-3.03,5.58-6.11,6.99-1.39.63-2.86.9-4.39.91-1.29,0-2.58.01-3.86,0-.74,0-1.17-.37-1.18-.94-.02-.59.44-1,1.2-1.01,1.55-.03,3.11.06,4.65-.07,3.03-.25,5.45-1.66,7.03-4.29,1.11-1.85.78-4.23-.65-5.69-1.48-1.52-3.93-1.85-5.87-.88-1.02.51-2.08,1.03-3.18,1.3-1.88.45-3.6-.18-5.23-1.14-1.69-1.01-3.44-.96-5.16-.01-.51.28-1.03.58-1.57.8-2.06.81-4.08.67-5.97-.45-1.43-.85-2.9-1.34-4.54-.86-.62.18-1.2.5-1.77.81-2.4,1.31-4.81,1.37-7.15-.03-2.11-1.27-4.1-1.26-6.21.01-2.34,1.42-4.78,1.39-7.13,0-1.71-1.02-3.46-1.33-5.29-.47-2.69,1.27-3.47,4.74-1.64,7.19,1.98,2.65,4.66,3.81,7.93,3.8,12.31-.01,24.62,0,36.93,0,.32,0,.66,0,.97.09.48.13.79.52.64.98-.1.33-.46.62-.76.84-.14.11-.42.05-.64.05-12.42,0-24.84,0-37.26,0-4,0-7.26-1.56-9.54-4.87-.61-.88-.86-2.01-1.28-3.03,0-.52,0-1.05,0-1.57.3-1.23.65-2.44,1.5-3.42.14-.16.26-.37.44-.48.6-.39.65-.84.45-1.54-1.04-3.64-.29-6.98,1.87-10.04,1.42-2,3.21-3.61,5.26-4.94.36-.23.51-.45.42-.89-.62-2.97.38-5.49,2.26-7.73,1.35-1.6,3-2.85,4.79-3.92.22-.13.46-.35.55-.59,1.19-3.27,3.45-5.67,6.2-7.66,3.13-2.28,6.63-3.83,10.3-5.01,1.17-.37,1.51-.17,1.86.98.24.79.78,1.39,1.48,1.76,1.35.7,2.73,1.34,4.12,1.95,2.15.95,4.35,1.78,6.47,2.8,1.54.74,2.87,1.83,3.81,3.3,1.32,2.05,1.37,4.27.78,6.55-.16.63-.38,1.24-.59,1.9.71.3,1.42.57,2.11.88,1.79.81,3.43,1.83,4.6,3.45,1.68,2.34,1.54,4.85.6,7.42-.1.26-.2.52-.31.8.74.43,1.47.81,2.16,1.25,3.1,2.02,4.47,4.83,3.85,8.54-.03.2-.05.5.07.61,1.08,1.09,1.63,2.44,1.99,3.89v1.7ZM19.81,13.79c.87.81,1.9,1.15,2.97,1.38,1,.21,2.01.37,3.02.56.72.13,1.09.55,1.02,1.12-.08.6-.58.92-1.33.82-.24-.03-.47-.08-.71-.12-2.13-.37-4.26-.71-6.13-1.92-.12-.08-.42-.03-.56.07-1.09.8-2.23,1.54-3.21,2.45-1.62,1.51-2.84,3.32-2.76,5.64.09,2.7.45,3.11,2.75,3.75,2.6.72,5.29.88,7.97.99,5.49.22,10.99.34,16.49.55,5.04.2,10.06.56,15,1.69,1.06.24,2.1.54,3.19.82.17-.43.34-.83.48-1.24.95-2.89.18-5.12-2.33-6.81-1.67-1.12-3.52-1.81-5.44-2.34-5.07-1.4-10.28-1.91-15.48-2.48-1.65-.18-3.3-.34-4.95-.52-.63-.07-1.02-.49-.99-1.01.03-.56.49-.95,1.13-.94.13,0,.26.02.39.03,2,.2,4,.36,5.99.62,3.61.48,7.21.99,10.81,1.54,1.11.17,2.2.48,3.32.73.2-.57.41-1.07.55-1.59.57-2.07.57-4.05-.93-5.8-1.14-1.33-2.61-2.18-4.18-2.84-2.37-1-4.78-1.89-7.14-2.9-1.61-.69-3.13-1.56-4.04-3.18-.07-.12-.41-.2-.57-.14-3.34,1.13-6.51,2.63-9.34,4.76-2.19,1.65-4.01,3.63-4.98,6.3ZM63.46,41.4c.25-1.89-.19-3.49-1.43-4.86-1.49-1.64-3.44-2.49-5.5-3.13-4.87-1.51-9.89-2.11-14.95-2.32-5.32-.23-10.64-.23-15.96-.45-3.09-.13-6.18-.42-9.25-.77-1.77-.2-3.53-.61-4.95-1.85-.1-.09-.44-.02-.6.09-1.81,1.18-3.39,2.61-4.63,4.38-1.87,2.65-2.43,5.54-1.44,8.7.11-.01.2-.01.27-.04,2.2-.68,4.24-.33,6.19.88,1.75,1.08,3.56,1.09,5.32.02,2.65-1.62,5.29-1.69,7.95-.04,1.56.97,3.18.96,4.82.27.7-.3,1.35-.72,2.07-.98,2.08-.75,4.1-.61,6.05.47.68.37,1.4.73,2.15.92,1.43.37,2.76-.04,3.99-.81,1.4-.87,2.93-1.19,4.57-1.01,1.22.14,2.27.7,3.32,1.29,1.63.92,3.28.9,4.93.01.48-.26.94-.55,1.44-.77,1.85-.81,3.72-.77,5.64,0Z"/>
    </g>
  </g>
</svg>