<?xml version="1.0" encoding="UTF-8"?>
<svg id="Capa_2" xmlns="http://www.w3.org/2000/svg" viewBox="0 0 88.45 69">
  <g id="Capa_1-2" data-name="Capa_1">
    <g id="TEYav9.tif">
      <g>
        <path d="M26.93,0c1.84,0,3.68,0,5.52,0,.23.04.45.09.68.11,4.42.31,8.84.53,13.25.94,6.31.58,12.52,1.74,18.61,3.48,5.53,1.58,10.84,3.67,15.45,7.2,4.65,3.55,7.71,8.07,7.88,14.09.13,4.6.21,9.21-.02,13.8-.36,7.21-3.78,12.77-9.88,16.64-3.56,2.26-7.52,3.04-11.68,3.08-4.68.05-9.2.94-13.57,2.57-4.09,1.52-8.11,3.23-12.2,4.76-4.96,1.85-10.1,2.73-15.4,2.17-5.67-.59-10.74-2.69-15.13-6.31-4.67-3.86-7.9-8.71-9.41-14.6C.56,46.07.34,44.15,0,42.27c0-5.18,0-10.35,0-15.53.04-.19.11-.38.13-.58.47-5.81,2.55-10.99,6.2-15.52C10.08,6,14.83,2.77,20.6,1.18,22.66.61,24.82.38,26.93,0ZM84.9,38.14c-.97,1.11-1.82,2.19-2.8,3.14-.41.39-1.11.72-1.64.67-.48-.04-1.07-.55-1.34-1.01-.38-.64-.08-1.31.39-1.89,1.01-1.24,2.16-2.42,2.97-3.79,3.73-6.37,3.73-14.5-3.49-20.32-4.01-3.23-8.66-5.18-13.51-6.67-6.34-1.95-12.83-3.22-19.42-3.78-5.78-.49-11.59-.77-17.39-1.01-3.06-.12-6.05.5-8.94,1.58C7.36,9.66.66,23.28,4.58,35.88c3.8,12.22,16.45,19.67,29.01,17.18,4.03-.8,7.83-2.24,11.6-3.8,4.54-1.87,9.06-3.87,13.95-4.61,3.32-.5,6.68-.68,10.03-.94,1.2-.09,1.97.65,1.98,1.67.01,1.01-.66,1.67-1.83,1.74-.95.06-1.9.12-2.84.14-3.64.08-7.24.56-10.68,1.75-4.31,1.49-8.55,3.2-12.8,4.86-5.55,2.17-11.24,3.53-17.25,2.91-7.98-.82-14.48-4.4-19.52-10.61-.91-1.13-1.7-2.36-2.61-3.65,0,.24-.02.37,0,.49.11.82.19,1.66.36,2.47,1.57,7.27,5.54,12.85,11.95,16.63,6.29,3.71,13.06,4.35,19.98,2.42,4.16-1.16,8.18-2.83,12.21-4.44,5.1-2.03,10.27-3.69,15.78-4.09,2.21-.16,4.43-.16,6.62-.47,8.28-1.15,14.72-8.94,14.39-17.41Z"/>
        <path d="M30.88,7.06c1.44,0,2.88-.02,4.31,0,1.23.03,1.94.7,1.93,1.74,0,1.06-.79,1.71-2.06,1.71-2.9,0-5.83-.25-8.7.04-10.28,1.06-17.5,10.8-15.73,20.98,1.74,9.95,11.18,16.51,21.17,14.8,4.24-.73,8.14-2.39,12.07-4,4.77-1.95,9.57-3.81,14.68-4.6,2.92-.45,5.88-.66,8.83-.81,2.84-.15,5.39-.91,7.43-2.93,2.46-2.43,3.58-5.37,3.04-8.84-.28-1.82-1.38-3.2-2.71-4.39-2.57-2.3-5.66-3.7-8.84-4.9-5.57-2.09-11.37-3.22-17.23-4.12-1.08-.16-1.67-.73-1.75-1.6-.07-.75.4-1.48,1.15-1.73.29-.1.63-.14.93-.1,7.32,1.08,14.54,2.58,21.34,5.64,2.66,1.2,5.15,2.68,7.25,4.74,3.52,3.45,4.34,7.59,2.76,12.12-1.98,5.67-6.08,8.83-12.08,9.44-3.23.33-6.49.43-9.69.92-5.35.82-10.29,2.96-15.29,4.93-3.09,1.22-6.22,2.44-9.44,3.22-10.19,2.48-19.7-1.79-24.64-10.42-5.16-9.02-2.64-21.17,5.65-27.45,4.65-3.52,9.88-4.87,15.63-4.4Z"/>
        <path d="M38.87,21.68c0,3.14-2.07,6.01-5.28,7.3-3.54,1.42-7.72.46-10.27-2.35-2.85-3.15-2.48-7.96.81-10.67,3.94-3.24,9.55-2.81,12.95.99,1.08,1.21,1.77,3.06,1.78,4.74ZM35.43,21.33c-.13-.35-.28-1.1-.65-1.72-1.72-2.79-6.21-3.21-8.62-.84-1.87,1.83-1.71,4.56.35,6.17,1.85,1.45,4.65,1.63,6.65.41,1.36-.83,2.2-1.99,2.27-4.03Z"/>
        <path d="M40.74,7.41c1.01,0,1.76.74,1.75,1.73,0,.93-.78,1.69-1.72,1.7-.95,0-1.78-.82-1.76-1.76.02-.94.78-1.67,1.73-1.67Z"/>
        <path d="M76.44,45.05c-.95,0-1.68-.71-1.7-1.67-.02-.95.79-1.77,1.73-1.74.9.03,1.7.84,1.68,1.73-.01.91-.8,1.68-1.71,1.68Z"/>
      </g>
    </g>
  </g>
</svg>