<?xml version="1.0" encoding="UTF-8"?>
<svg id="Capa_2" xmlns="http://www.w3.org/2000/svg" viewBox="0 0 96.56 77.25">
  <g id="Capa_1-2" data-name="Capa_1">
    <g>
      <g>
        <path d="M72.53,38.54h-2.99c0-2.08,0-4.12,0-6.19h2.99c0,2.02,0,4.06,0,6.19Z"/>
        <path d="M72.58,16.55h-3.02c0-2.06,0-4.1,0-6.19h3.02c0,2.07,0,4.11,0,6.19Z"/>
        <path d="M17.57,70.06c-2.98,0-5.95,0-8.93,0-1.51,0-2.05-.55-2.06-2.06,0-3.9,0-7.79,0-11.69,0-1.41.54-1.98,1.93-1.98,6.04-.01,12.09,0,18.13,0,1.41,0,1.96.54,1.97,1.95.01,3.93.01,7.85,0,11.78,0,1.44-.58,1.99-2.03,1.99-3.01,0-6.01,0-9.02,0ZM25.42,57.55c-5.27,0-10.44,0-15.63,0,0,3.15,0,6.22,0,9.31,5.24,0,10.41,0,15.63,0v-9.31Z"/>
        <path d="M44.3,59.11c0,2.08,0,4.09,0,6.16h-3.02c0-2.01,0-4.05,0-6.16h3.02Z"/>
        <path d="M56.82,65.28h-3c0-2.07,0-4.1,0-6.19h3c0,2.02,0,4.05,0,6.19Z"/>
        <path d="M52.14,46.45h-6.15c0-1,0-1.99,0-3.05h6.15c0,.98,0,1.97,0,3.05Z"/>
        <path d="M8.19,43.34c.89.02,1.55.71,1.52,1.6-.03.83-.71,1.51-1.54,1.52-.84,0-1.59-.73-1.59-1.58,0-.86.73-1.56,1.6-1.54Z"/>
        <path d="M14.49,43.34c.89.02,1.54.71,1.51,1.61-.03.84-.71,1.51-1.53,1.52-.85,0-1.59-.74-1.58-1.58,0-.86.73-1.56,1.61-1.54Z"/>
        <path d="M22.29,44.86c.02.88-.67,1.6-1.53,1.61-.85,0-1.58-.73-1.58-1.58,0-.83.67-1.51,1.5-1.54.89-.03,1.59.63,1.61,1.51Z"/>
        <path d="M27.03,43.34c.87,0,1.58.71,1.57,1.57-.01.86-.76,1.58-1.61,1.55-.83-.02-1.49-.71-1.51-1.55-.01-.89.66-1.58,1.55-1.58Z"/>
      </g>
      <g>
        <path d="M96.55,2.39c0-1.94-.44-2.39-2.38-2.39-9.11,0-18.23,0-27.34,0-.64,0-1.12.04-1.47.16-.04,0-.08,0-.13,0-6.01,0-12.03,0-18.04,0-.46,0-.91-.1-1.37-.15h-.7c-.33.05-.67.15-1,.15-6.93,0-13.87,0-20.8,0C22.97.15,22.63.05,22.3,0h-.7c-.45.05-.91.15-1.37.15-6.09.01-12.18,0-18.27.01-1.46,0-1.81.35-1.81,1.77,0,6.24,0,12.48,0,18.72,0,1.26.42,1.68,1.67,1.68,6.56,0,13.11,0,19.67,0,1.32,0,1.73-.42,1.75-1.74.01-1.42,0-2.85,0-4.29,7.06,0,13.98,0,20.87,0,.05.16.09.23.09.3,0,1.2.01,2.4.02,3.6,0,1.78.34,2.12,2.09,2.12,6.01,0,12.03,0,18.04,0,0,5.01,0,10.02,0,15.04v1.19c-11.85,0-23.56,0-35.37,0,0-1.52.02-2.99,0-4.45-.02-1.17-.54-1.86-1.53-1.9-1.6-.06-3.2-.02-4.86-.02,0,1.08,0,2.1,0,3.2h3.1v3.15h-6.43c0-2.15,0-4.23,0-6.3h-3.21c0,2.14,0,4.23,0,6.31h-6.33v-3.18h3.08c0-1.1,0-2.11,0-3.2-1.47,0-2.88,0-4.29,0-1.53,0-2.07.56-2.08,2.12,0,1.4,0,2.81,0,4.3-1.48,0-2.85.04-4.23-.01-.98-.04-1.7.28-2.2,1.12,0,12.51,0,25.02,0,37.52,31.8,0,63.61,0,95.41,0,.91-.49,1.15-1.26,1.15-2.27-.02-24.2-.02-48.39-.02-72.59ZM20.54,19.61c-5.88,0-11.74,0-17.7,0,0-5.54,0-11.09,0-16.73,5.83,0,11.69,0,17.7,0,0,5.58,0,11.1,0,16.73ZM44.14,13.46c-6.93,0-13.84,0-20.82,0,0-3.52,0-7.02,0-10.62,6.98,0,13.86,0,20.82,0,0,3.54,0,7.04,0,10.62ZM3.26,41.88c9.62,0,19.19,0,28.85,0,0,2.08,0,4.16,0,6.32-9.6,0-19.19,0-28.85,0,0-2.15,0-4.21,0-6.32ZM32.15,74c-9.68,0-19.25,0-28.88,0,0-7.47,0-14.9,0-22.42,9.6,0,19.22,0,28.88,0,0,7.48,0,14.91,0,22.42ZM48.2,73.99h-12.73c0-7.47,0-14.9,0-22.41h12.73c0,7.44,0,14.89,0,22.41ZM64.27,73.99h-12.73c0-7.47,0-14.9,0-22.42h12.73c0,7.45,0,14.9,0,22.42ZM64.28,48.22c-9.6,0-19.16,0-28.79,0,0-2.1,0-4.19,0-6.33,9.6,0,19.16,0,28.79,0,0,2.11,0,4.19,0,6.33ZM46.96,19.63V2.88c5.77,0,11.54,0,17.39,0,0,5.58,0,11.17,0,16.75-5.75,0-11.49,0-17.39,0ZM93.29,73.96c-8.52,0-17.05,0-25.67,0,0-16.07,0-32.08,0-48.14,8.57,0,17.1,0,25.67,0,0,16.05,0,32.06,0,48.14ZM93.29,22.52c-8.59,0-17.07,0-25.64,0,0-6.41,0-12.79,0-19.24h25.64c0,6.43,0,12.79,0,19.24Z"/>
        <path d="M9.12,18.25c.85.05,1.7.01,2.55.01.85,0,1.7.03,2.55,0,.79-.04,1.33-.43,1.34-1.29,0-.85-.51-1.31-1.3-1.33-1.7-.05-3.4-.04-5.1,0-.79.02-1.32.45-1.33,1.3-.02.86.5,1.28,1.3,1.33Z"/>
        <path d="M58.26,15.62c-.81-.03-1.63,0-2.44,0-.85,0-1.7-.03-2.55.01-.8.04-1.34.48-1.36,1.3-.02.82.5,1.31,1.31,1.33,1.7.04,3.4.04,5.11,0,.81-.01,1.35-.47,1.35-1.29,0-.88-.57-1.32-1.42-1.35Z"/>
        <path d="M31.27,12.31c.81.02,1.62,0,2.44,0,.85,0,1.7.02,2.55,0,.81-.03,1.34-.48,1.36-1.29.02-.81-.49-1.31-1.31-1.32-1.7-.03-3.4-.03-5.1,0-.82,0-1.35.46-1.36,1.28,0,.87.55,1.33,1.42,1.35Z"/>
      </g>
    </g>
  </g>
</svg>