<?xml version="1.0" encoding="UTF-8"?>
<svg id="Capa_2" xmlns="http://www.w3.org/2000/svg" viewBox="0 0 69.76 69.79">
  <g id="Capa_1-2" data-name="Capa_1">
    <g id="QlVn4z.tif">
      <path d="M36.52,0c.82.36,1.4.91,1.51,1.78,1.35.08,2.64.1,3.92.26,1.54.2,2.92.88,4.05,1.94,1.6,1.5,3.46,2.13,5.63,2.12,5.52-.04,11.03-.01,16.55-.01,1.33,0,1.58.25,1.58,1.59,0,1.09,0,2.18,0,3.27,0,1.09-.33,1.41-1.43,1.42-5.49,0-10.99.05-16.48-.02-2.31-.03-4.25.61-5.95,2.18-1.64,1.52-3.7,2.05-5.9,2.07-.63,0-1.26,0-1.94,0v21.69c2.53.56,4.72,1.8,6.49,3.78.36-.58.66-1.14,1.02-1.65,1.86-2.58,4.49-3.56,7.57-3.52.68,0,1.02.44.98,1.2-.13,2.7-.97,5.11-2.98,7.02-.06.06-.12.13-.22.25.2.1.38.19.55.27,4.82,2.1,7.95,5.67,9.3,10.76.15.57.36.76.95.74,1.54-.04,3.09-.02,4.63-.01,1.71.01,2.91.9,3.29,2.4.37,1.45-.27,2.76-1.75,3.61-.16.09-.33.31-.36.49-.51,3.16-3.39,6.28-7.84,6.15-2.74-.08-5.49-.01-8.24-.02-.82,0-1.27-.44-1.21-1.12.05-.59.47-.91,1.21-.92,2.95,0,5.9.04,8.86-.02,2.31-.04,3.94-1.21,4.88-3.32.12-.26.17-.55.28-.91H4.3c.06.26.1.49.18.72.77,2.18,2.76,3.53,5.22,3.53,12.17,0,24.34,0,36.51,0,.23,0,.46-.02.68.01.57.08.91.43.92,1,0,.58-.34.92-.91,1.01-.22.04-.45.01-.68.01-12.06,0-24.11-.05-36.17.03-4.4.03-7.32-2.95-7.84-6.16-.03-.16-.12-.38-.24-.43-1.04-.45-1.61-1.27-1.98-2.29v-1.23c.65-2.09,2.2-2.74,4.24-2.54.51-5.37,2.93-9.54,7.43-12.37,4.52-2.83,9.35-3.16,14.28-1.33.48-.58.91-1.1,1.33-1.64.1-.13.21-.31.21-.47.01-1.93,0-3.86,0-5.8-.11,0-.17-.01-.23,0-2.06.56-4.07-1.01-4.02-3.43.09-4.88.03-9.76.03-14.64,0-.26,0-.53,0-.85-1.1,0-2.12.02-3.14,0-1.53-.03-2.78-1-3.11-2.38-.46-1.97.91-3.8,2.93-3.88,1.08-.04,2.17,0,3.26,0v-2.2c-1.07,0-2.1.03-3.11,0-2.1-.06-3.51-1.82-3.09-3.82.31-1.47,1.55-2.43,3.25-2.45,2.22-.02,4.45,0,6.67-.02.23,0,.6-.12.65-.28.3-.83.93-1.26,1.69-1.56h7.22ZM29.56,39.85c.6-.3,1.07-.58,1.57-.76.47-.17.63-.41.63-.94-.03-3.7-.02-7.4-.01-11.1,0-.23-.02-.46.02-.68.1-.54.46-.85.99-.85.51,0,.86.28.99.78.06.21.04.45.04.68,0,3.52,0,7.04,0,10.56,0,.23,0,.47,0,.7.78-.06,1.46-.11,2.15-.16V2.09h-2.15c0,.31,0,.58,0,.85,0,6.2,0,12.39,0,18.59,0,.23.02.46-.02.68-.11.56-.47.88-1.05.86-.55-.02-.87-.35-.96-.89-.04-.22-.01-.45-.01-.68,0-6.06,0-12.12,0-18.18q0-1.28-1.31-1.28-.88,0-.88.89c0,12.05,0,24.11,0,36.16,0,.22,0,.45,0,.76ZM34.84,61.36c10.4,0,20.8,0,31.2,0,1.16,0,1.69-.36,1.67-1.11-.02-.73-.55-1.08-1.66-1.08-20.78,0-41.56,0-62.33,0-1.13,0-1.69.38-1.67,1.13.02.73.53,1.06,1.66,1.06,10.38,0,20.75,0,31.13,0ZM33.78,57.09c-.38-6.67-6.39-13.33-14.99-12.67-6.45.49-13.12,7.27-12.36,12.67h2.04c.04-.18.08-.33.1-.48.21-1.67.76-3.22,1.69-4.63.46-.7,1-1.34,1.57-1.96.4-.43,1.02-.4,1.41-.04.39.37.43.94.06,1.42-.15.2-.33.37-.49.56-1.24,1.47-2.01,3.15-2.21,5.13h2.13c1.13-3.96,3.61-6.17,7-6.27,3.79-.11,6.1,1.77,7.69,6.25h2.12c-.43-4.45-4.29-8.16-8.68-8.43-1.43-.09-2.8.09-4.15.56-.65.23-1.19-.03-1.39-.58-.2-.55.09-1.07.73-1.33.13-.05.26-.09.38-.14,6.38-2.15,13.38,1.75,14.92,8.31.13.54.22,1.1.33,1.64h2.11ZM67.68,8.13c-.3,0-.57,0-.83,0-5.2,0-10.39,0-15.59,0-2.31,0-4.43-.62-6.11-2.22-2.04-1.93-4.46-2.21-7.08-1.94v10.51c2.78.31,5.24-.16,7.33-2.15,1.38-1.32,3.17-1.96,5.09-1.98,5.47-.04,10.94-.03,16.4-.03.26,0,.53,0,.79,0v-2.19ZM35.49,54.31c.13-.19.23-.34.33-.49,2.65-3.9,7.28-5.87,11.85-4.91,4.34.91,7.26,3.52,8.79,7.68.07.2.26.49.42.5.64.06,1.29.02,2.01.02-1.13-4.33-3.61-7.42-7.56-9.29-5.69-2.71-12.43-1.23-16.41,3.58-.14.17-.28.45-.23.63.22.75.51,1.48.8,2.28ZM25.33,8.17c0,.24,0,.39,0,.55,0,7.83,0,15.67,0,23.5,0,.14,0,.27.01.41.09.53.4.86.94.93.57.07.98-.19,1.16-.73.08-.25.08-.54.08-.81,0-7.7,0-15.4,0-23.09,0-.24,0-.48,0-.76h-2.19ZM36.53,57.12c.6,0,1.18-.02,1.76,0,.36.02.56-.1.75-.43.3-.53.65-1.04,1.07-1.48,3.37-3.59,9.26-2.89,11.75,1.37.12.21.34.49.53.51.66.06,1.33.02,2.02.02-.8-3.5-5.01-6.45-9.02-6.41-3.99.04-8.17,3.04-8.86,6.42ZM29.63,45.52c.08-.04.1-.05.12-.06,2.89-4,8.53-4.06,11.5-.74.1.11.31.19.45.17.68-.11,1.35-.26,2.13-.41-2.01-2.83-4.65-4.31-8.04-4.31-3.34,0-5.95,1.45-7.91,4.18.63.42,1.19.79,1.76,1.17ZM25.2,57.09c-.2-2.21-2.5-4.17-4.92-4.24-2.67-.07-5.04,1.78-5.38,4.24h10.3ZM39.22,45.72c-2.14-2.24-6.67-1.5-7.91,1.21.75.94,1.5,1.88,2.28,2.85,1.58-1.73,3.43-3.1,5.63-4.06ZM51.99,39.02c-2.93.26-5.22,2.2-5.88,4.88-.08.31-.07.49.32.58,1.32.3,2.47.09,3.45-.95,1.19-1.27,1.85-2.75,2.12-4.51ZM27.48,3.91c-2.53,0-5-.01-7.47,0-.61,0-.97.4-1.01.99-.04.56.24.96.8,1.11.19.05.4.06.6.06,2.18,0,4.35.01,6.53.01.17,0,.35-.03.55-.05v-2.14ZM41.31,57.06h8.33c-1.91-2.79-6.67-2.77-8.33,0ZM23.26,12.38c-1.15,0-2.23-.03-3.31.01-.58.02-.91.43-.94.98-.04.59.28,1.08.87,1.12,1.12.07,2.25.02,3.39.02v-2.13Z"/>
    </g>
  </g>
</svg>