<?xml version="1.0" encoding="UTF-8"?>
<svg id="Capa_2" xmlns="http://www.w3.org/2000/svg" viewBox="0 0 80.34 56.06">
  <g id="Capa_1-2" data-name="Capa_1">
    <g>
      <path d="M57.78,28.36c.05.99.11,2.11.15,3.24.03.82-.38,1.35-1.04,1.41-.67.07-1.24-.44-1.3-1.27-.49-6.83.26-13.47,3.18-19.74.32-.68.2-.83-.49-1-8.03-1.9-15.71-.9-23.1,2.7-3.54,1.72-6.87,3.77-10.03,6.09-.25.19-.51.39-.79.5-.55.2-1.05.07-1.38-.42-.33-.49-.29-1,.12-1.44.18-.19.39-.34.6-.5,2.37-1.77,4.84-3.38,7.44-4.79.52-.28.62-.54.43-1.1-.84-2.47-1.62-4.96-2.42-7.45-.83-2.59.52-4.5,3.23-4.58,5.92-.17,11.61.83,16.93,3.51,2.25,1.13,4.35,2.5,6.24,4.17.34.3.7.49,1.17.58,8.68,1.54,15.77,5.75,21.19,12.72.72.93,1.37,1.91,2.01,2.9.69,1.06.52,1.81-.5,2.55-.55.4-1.07.83-1.49,1.37-.33.41-.38.67.15.94.46.24.89.55,1.33.83,1.02.66,1.23,1.49.58,2.54-1.8,2.88-3.92,5.48-6.48,7.73-4.81,4.23-10.38,6.86-16.69,7.95-.43.07-.85.17-1.21.48-5.85,5-12.7,7.4-20.33,7.71-1.18.05-2.35.11-3.53-.02-1.98-.22-3.3-2.02-2.74-3.94.77-2.66,1.65-5.28,2.53-7.9.21-.62.09-.89-.48-1.2-5.53-3.05-10.46-6.9-15.03-11.24-.45-.43-.72-.45-1.22-.08-2.79,2.08-5.61,4.12-8.9,5.36-1.18.44-2.39.79-3.67.5-1.44-.33-2.24-1.34-2.21-2.82.03-1.44.6-2.75,1.18-4.03.4-.88,1.17-1.73,1.18-2.59,0-.84-.77-1.67-1.17-2.52-.5-1.07-.93-2.16-1.13-3.33-.38-2.2.91-3.68,3.15-3.62,2.08.06,3.87,1,5.64,1.96,2.12,1.15,4.07,2.55,5.99,4.01.44.33.7.35,1.11-.06.85-.85,1.76-1.64,2.65-2.44.68-.61,1.39-.66,1.87-.14.49.53.4,1.23-.26,1.85-1.2,1.13-2.42,2.23-3.62,3.37-.72.68-.72,1.18-.02,1.86,5.53,5.37,11.54,10.06,18.53,13.41,5.71,2.74,11.68,4.21,18.07,3.53,1.77-.19,3.52-.44,5.26-.83.58-.13.71-.28.42-.85-1.03-2.01-1.73-4.14-2.26-6.33-.23-.92.02-1.54.69-1.74.74-.23,1.32.16,1.57,1.1.57,2.18,1.28,4.3,2.29,6.32.23.46.42.59.93.4,6.38-2.43,11.45-6.51,15.29-12.14.26-.38.29-.59-.15-.84-.52-.3-1.01-.65-1.48-1.03-.71-.59-.88-1.33-.53-2.18.44-1.06,1.15-1.93,2.03-2.65.36-.29.41-.49.14-.88-3.84-5.63-8.89-9.72-15.28-12.14-.57-.21-.76-.05-1,.42-1.48,3.01-2.35,6.19-2.85,9.49-.31,2.05-.41,4.11-.46,6.31ZM51.44,7.72c.03-.25-.13-.28-.23-.35-5.76-3.81-12.17-5.18-18.99-4.97-.87.03-1.15.47-.89,1.31.76,2.39,1.55,4.76,2.28,7.15.2.66.39.79,1.05.48,3.8-1.8,7.77-3.03,11.96-3.49,1.6-.17,3.2-.23,4.81-.13ZM51.51,48.43c-.59,0-.99,0-1.4,0-2.39.02-4.74-.24-7.06-.77-2.96-.67-5.81-1.68-8.55-2.97-.45-.21-.65-.2-.82.35-.75,2.44-1.56,4.86-2.34,7.3-.27.84.03,1.28.89,1.31,5.48.17,10.76-.69,15.73-3.1,1.18-.57,2.35-1.19,3.55-2.11ZM3.61,20.96c-1.22-.05-1.36.12-1.17.99.39,1.79,1.22,3.39,2.15,4.93.51.86.49,1.54-.02,2.38-.92,1.55-1.75,3.15-2.14,4.94-.18.81.04,1.07.87,1.01.55-.04,1.08-.19,1.59-.38,3.07-1.16,5.69-3.06,8.33-4.94.51-.37.75-.71.52-1.33-.16-.43-.07-.89.07-1.31.13-.37,0-.56-.29-.77-1.87-1.34-3.71-2.72-5.74-3.82-1.42-.77-2.85-1.54-4.17-1.68Z"/>
      <path d="M51.15,42.5c-1.76-.17-3.05-1.04-3.77-2.65-.72-1.61-.53-3.19.56-4.57.4-.5.36-.74-.02-1.21-1.28-1.55-1.26-3.94.05-5.5.36-.43.38-.65.01-1.09-1.36-1.62-1.35-4.02.03-5.62.35-.41.32-.62-.01-1.02-1.11-1.37-1.34-2.94-.65-4.56.67-1.58,1.9-2.53,3.65-2.71,1-.1,1.51.21,1.62.93.12.77-.31,1.23-1.31,1.4-1.47.26-2.28,1.45-1.85,2.77.29.88.93,1.35,1.84,1.49.94.14,1.36.52,1.35,1.21,0,.67-.42,1.04-1.31,1.17-1.19.18-2,1.05-2,2.15,0,1.08.76,1.91,1.93,2.11.59.1,1.15.22,1.33.9.18.67-.17,1.25-.85,1.44-.15.04-.31.07-.46.09-1.21.22-1.99,1.09-1.95,2.18.04,1.08.82,1.93,1.98,2.07.74.09,1.26.36,1.32,1.17.05.7-.39,1.09-1.33,1.23-1.15.17-1.94,1.01-1.97,2.09-.03,1.09.75,1.96,1.96,2.17.39.07.79.11,1.06.44.34.4.38.86.15,1.32-.27.55-.77.66-1.34.6Z"/>
      <path d="M37.5,34.69c.02-1.08.34-2.06,1.07-2.87.3-.33.35-.52.03-.89-1.48-1.75-1.48-4.05,0-5.8.33-.39.23-.57-.04-.9-1.16-1.42-1.4-3.03-.66-4.7.73-1.63,2.05-2.54,3.86-2.65.81-.05,1.34.37,1.4,1.04.06.68-.38,1.16-1.18,1.3-1.39.24-2.13,1-2.11,2.18.02,1.14.74,1.86,2.1,2.11.79.14,1.23.56,1.19,1.21-.04.76-.52,1.06-1.23,1.17-1.32.2-2.07,1.01-2.07,2.15,0,1.14.75,1.94,2.07,2.14.71.11,1.18.42,1.22,1.17.03.67-.42,1.08-1.28,1.21-1.26.2-2.01.98-2.02,2.1-.01,1.15.75,1.96,2.04,2.16.86.14,1.32.61,1.25,1.31-.07.7-.61,1.08-1.48,1.03-2.29-.11-4.18-2.13-4.17-4.48Z"/>
      <path d="M28.05,30.89c0-.67.33-1.6,1.01-2.37.31-.36.37-.57.03-.97-1.15-1.36-1.36-2.92-.72-4.55.64-1.61,1.9-2.52,3.61-2.78.95-.14,1.57.21,1.7.95.13.73-.34,1.22-1.33,1.37-1.17.18-1.93,1-1.95,2.1-.02,1.12.7,1.95,1.86,2.16.18.03.36.06.54.1.59.14.89.57.88,1.14,0,.54-.3.94-.85,1.09-.2.05-.41.08-.62.12-1.11.21-1.82,1.03-1.82,2.12,0,1.07.74,1.92,1.83,2.12,1.14.21,1.59.66,1.43,1.43-.17.77-.81,1.07-1.88.88-2.23-.4-3.81-2.32-3.73-4.91Z"/>
      <circle cx="64.81" cy="19.86" r="2.2"/>
    </g>
  </g>
</svg>