<?xml version="1.0" encoding="UTF-8"?>
<svg id="Capa_2" xmlns="http://www.w3.org/2000/svg" viewBox="0 0 77.45 64.07">
  <g id="Capa_1-2" data-name="Capa_1">
    <g id="_x39_Ttokc.tif">
      <g>
        <path d="M0,46.42c.29-.52.52-1.09.88-1.55.72-.92,1.73-1.25,2.87-1.25.72,0,1.43,0,2.3,0-.18-.24-.25-.34-.33-.43-2.08-2.39-2.55-5.13-1.7-8.12.76-2.69,2.23-4.94,4.36-6.75.73-.62,1.38-.64,1.85-.07.43.53.32,1.18-.36,1.77-2.08,1.79-3.45,4-3.9,6.72-.69,4.22,2.97,6.94,5.8,6.92,16.59-.08,33.17-.03,49.76-.06,1.2,0,2.43-.13,3.58-.42,2.08-.54,2.98-2.03,2.72-4.16-.3-2.55-1.35-4.83-2.47-7.09-.54-1.08-1.13-2.13-1.75-3.28-.48.82-.89,1.56-1.33,2.29-1.62,2.63-3.61,4.87-6.61,5.95-4.31,1.55-8.34.93-11.81-2.07-3.47-3-4.65-6.89-3.78-11.39.02-.12.06-.24.1-.36.22-.7.73-1.03,1.36-.88.64.15.98.66.82,1.39-.33,1.52-.43,3.04-.04,4.56.9,3.51,3.08,5.88,6.54,6.88,3.46,1,6.7.28,9.19-2.34,3.64-3.83,5.56-8.52,6.03-13.77.06-.67-.03-1.36-.15-2.03-.38-2.05-1.77-3.21-3.95-3.41-2.87-.26-5.55.5-8.15,1.57-2.64,1.09-5.13,2.45-7.19,4.5-.56.55-1.2.55-1.67.07-.46-.47-.47-1.17.11-1.66,1.13-.96,2.32-1.84,3.49-2.75.21-.16.45-.28.65-.59-.71-.1-1.42-.23-2.14-.29-4.88-.39-9.42.55-13.47,3.42-.29.2-.58.41-.82.66-3.15,3.21-7.07,5.11-11.18,6.73-1.71.67-3.4,1.39-5.09,2.1-.84.35-1.47.22-1.77-.39-.32-.66-.03-1.3.82-1.66,2.48-1.05,4.98-2.05,7.46-3.1,2.97-1.25,5.65-2.92,8.04-5.14,3.15-2.93,7.05-4.31,11.27-4.82,3.29-.4,6.53-.1,9.71.87.3.09.69.03,1-.09,2.89-1.11,5.83-1.94,8.98-1.71.23.02.53-.14.7-.31,1.25-1.21,2.48-2.44,3.68-3.69.16-.16.25-.55.17-.75-1.34-3.13.91-6.04,3.43-6.31.07,0,.13-.07.2-.11.3,0,.61,0,.91,0,.07.03.13.09.2.1,2.12.4,3.36,1.67,3.81,3.77.04.2.35.45.58.5,1.81.4,3.05,1.44,3.55,3.22.51,1.78.02,3.37-1.37,4.58-1.39,1.21-3.01,1.45-4.72.72-.35-.15-.56-.16-.84.13-1.23,1.26-2.49,2.49-3.73,3.76-.16.16-.31.43-.29.64.25,2.78-.41,5.4-1.34,7.97-.2.54-.13.92.14,1.39,1.65,2.8,3.23,5.64,4.23,8.74.87,2.68,1.4,5.38-.41,8.09.38,0,.64,0,.91,0,.98.01,1.97-.03,2.95.05,1.61.12,2.87,1.27,3.16,2.79.31,1.63-.44,3.18-1.93,3.88-.4.19-.59.41-.69.86-1.01,4.5-3.12,8.42-6.38,11.7-.8.8-1.71,1.18-2.83,1.18-17.39,0-34.77,0-52.16,0-1.12,0-2.03-.38-2.83-1.18-3.27-3.28-5.38-7.18-6.4-11.69-.06-.25-.17-.61-.35-.68-1.23-.48-1.89-1.43-2.35-2.58,0-.5,0-1.01,0-1.51ZM71.28,50.68c-.56,0-.86,0-1.15,0-9.63,0-19.26,0-28.89,0-.25,0-.51.01-.76-.01-.61-.06-.97-.41-1.01-1.02-.04-.61.26-1.02.85-1.16.29-.07.6-.06.9-.06,10.21,0,20.42,0,30.63,0,1.27,0,1.86-.39,1.89-1.23.02-.88-.6-1.31-1.89-1.31-22.56,0-45.12,0-67.68,0-.3,0-.61,0-.9.06-.65.15-1,.6-.98,1.25.02.65.4,1.08,1.05,1.19.32.05.65.03.98.03,10.18,0,20.37,0,30.55,0,1.14,0,1.71.38,1.7,1.15,0,.76-.55,1.11-1.72,1.11-9.65,0-19.31,0-28.96,0h-.92c.03.27.03.45.07.61.99,3.81,2.79,7.17,5.63,9.92.33.33.92.56,1.38.56,17.29.03,34.58.02,51.87.03.63,0,1.09-.21,1.53-.65,1.6-1.64,2.96-3.45,3.9-5.53.71-1.57,1.25-3.21,1.92-4.95ZM62.94,11.85c.56.45,1.07.78,1.49,1.2.43.44.78.96,1.19,1.47,1.33-1.32,2.64-2.64,3.97-3.95.68-.67,1.15-.69,1.92-.11.96.73,1.98.75,2.84.06.79-.64,1.05-1.73.62-2.66-.44-.95-1.39-1.4-2.52-1.21-1.36.23-1.87-.28-1.61-1.59.22-1.1-.24-2.06-1.19-2.51-.92-.44-2.03-.2-2.67.59-.65.8-.65,1.92,0,2.8.68.92.66,1.26-.15,2.07-1.28,1.28-2.57,2.55-3.88,3.85Z"/>
        <path d="M23.59,27.36c2.42.2,4.69.66,6.65,2.12,1.14.85,2.01,1.9,2.32,3.33.38,1.76-.77,2.94-2.52,2.58-1.46-.3-2.9-.37-4.3.26-.85.38-1.44,1.01-1.38,1.97.15,2.59-1.83,4.22-4.81,3.57-2.08-.46-3.48-1.7-3.96-3.79-.26-1.12-.45-2.28-.46-3.43-.03-2.88,1.48-4.98,4.25-5.82,1.36-.41,2.8-.54,4.21-.8ZM30.18,32.88c-.31-.88-1.19-1.76-2.55-2.32-2.29-.95-4.66-1.04-7.03-.37-2.08.59-3.18,2.07-3.17,4.24,0,.79.15,1.6.35,2.38.39,1.52,1.55,2.34,3.13,2.27.81-.03,1.14-.36,1.18-1.16.12-2.56,1.27-4.12,3.78-4.68,1.4-.31,2.87-.26,4.32-.37Z"/>
      </g>
    </g>
  </g>
</svg>