<?xml version="1.0" encoding="UTF-8"?>
<svg id="Capa_2" xmlns="http://www.w3.org/2000/svg" viewBox="0 0 87.46 87.46">
  <g id="Capa_1-2" data-name="Capa_1">
    <path d="M87.27,51.49s0-.04,0-.06l-.12-14.65c0-.14-.02-.29-.06-.43-4.25-15.28-22.41-25.62-36.8-26.43-2.74-.15-4.8.5-6.85,2.16-.22-.03-.43-.05-.65-.07-.09-1.18-.15-4.42,1.54-6.67.99-1.31,2.41-2.08,4.34-2.34.82-.11,1.4-.87,1.29-1.7-.11-.83-.87-1.4-1.69-1.3-2.74.37-4.88,1.56-6.36,3.53-2.29,3.06-2.25,7.1-2.13,8.69-4.46,1-7.82,4.91-7.99,9.64-7.61,6.38-16.58,13.84-25.9,21.25C1.3,46.77.25,50.52.03,55.38c-.04.91-.03,4.2,0,8.27,0,.02,0,.04,0,.06.01,1.55.02,3.22.04,4.92,0,1.09.02,2.21.02,3.32-.06.2-.08.42-.05.65.01.08.03.16.05.24.03,4.58.05,8.73,0,9.49-.12,1.84.27,3.17,1.2,4.05.9.86,2.12,1.09,3.31,1.09.52,0,1.03-.05,1.51-.1,8.92-1.07,18.02-2.06,26.81-3.02l16.32-1.79c10.71-1.18,21.78-2.4,32.68-3.51,2.82-.29,4.5-1.61,5.46-4.3.06-.17.09-.34.09-.52l-.18-22.72ZM42.03,15c.41,0,.8.04,1.19.11.19.08.39.13.6.13,3.13.8,5.45,3.64,5.45,7.03,0,4-3.25,7.26-7.24,7.26s-7.24-3.26-7.24-7.26,3.25-7.26,7.24-7.26ZM7.76,45.49c8.76-6.96,17.2-13.97,24.51-20.08,1.33,4.13,5.2,7.13,9.76,7.13,5.65,0,10.25-4.61,10.25-10.28,0-3.8-2.08-7.13-5.15-8.9.88-.35,1.83-.48,3-.41,16.31.92,29.67,12.15,33.55,22.62-5.38.88-22.76,3.68-39.65,6.4-20.86,3.36-33.59,5.41-38.98,6.29.68-.98,1.57-1.87,2.71-2.77ZM3.04,55.52c.07-1.52.23-2.81.53-3.95,4.23-.7,22.86-3.7,40.95-6.62,22.26-3.58,35.14-5.66,39.65-6.4l.09,11.62L3.03,61.93c-.02-3.18-.02-5.69,0-6.41ZM3.05,64.98l81.23-11.76.05,5.65L3.09,70.63c0-.65,0-1.33-.02-2.02,0-1.22-.02-2.44-.03-3.63ZM81.61,76.04c-10.91,1.1-21.99,2.33-32.7,3.51l-16.32,1.79c-8.8.96-17.9,1.95-26.84,3.02-1.69.2-2.22-.03-2.39-.18-.22-.21-.32-.83-.26-1.66.05-.78.04-3.95,0-8.84l81.23-11.76.1,12.05c-.55,1.42-1.25,1.91-2.83,2.07Z"/>
  </g>
</svg>