<?xml version="1.0" encoding="UTF-8"?>
<svg id="Capa_2" xmlns="http://www.w3.org/2000/svg" viewBox="0 0 93.75 79.33">
  <g id="Capa_1-2" data-name="Capa_1">
    <g id="RjYmUw.tif">
      <g>
        <path d="M93.75,29.89v4.76c-.06.26-.12.53-.17.79-.34,1.82-.52,3.7-1.05,5.47-3.11,10.46-9.85,17.61-19.98,21.58-.27.1-.7.26-.72.44-.15,1.1-.88,1.42-1.83,1.6-.36.07-.72.36-.97.64-.6.65-1.21,1.31-1.67,2.05-1.39,2.2-3.35,3.1-5.92,3.1-12.66-.04-25.33-.02-37.99-.02-4.49,0-8.97,0-13.46,0-2.24,0-3.99-.88-5.28-2.74-.57-.83-1.22-1.6-1.89-2.35-.29-.32-.72-.64-1.13-.71-.76-.13-1.27-.5-1.68-1.11v-3.85c.45-.76,1.11-1.04,1.99-.99.8.05,1.6.01,2.62.01-.97-1.24-1.59-2.48-2.94-2.86-.72-.2-1.26-.51-1.67-1.11v-3.85c.45-.76,1.11-1.04,1.99-.99.8.05,1.6.01,2.62.01-.98-1.24-1.59-2.48-2.94-2.86C.95,46.73.4,46.42,0,45.82c0-1.28,0-2.56,0-3.85.47-.81,1.19-.99,2.08-.99,9.06.02,18.12.01,27.19.01.36,0,.72,0,1.04,0,.06-.16.1-.22.09-.27-.04-.21-.08-.42-.13-.62-1.31-5.35-1.34-10.7.08-16.02C34.65,7.94,50.03-2.12,66.56.38c12.75,1.92,23.4,11.79,26.28,24.39.39,1.69.6,3.41.9,5.12ZM67.21,49.79c1.02,0,1.77,0,2.53,0,.33,0,.75-.07.99.09.6.4,1.01.11,1.48-.19,5.99-3.83,9.36-9.29,9.77-16.38.75-12.99-10.55-23.23-23.41-21.4-13.15,1.88-21.07,15.76-16.03,28.06.3.73.65,1.05,1.52,1.05,8.45-.04,16.9-.03,25.35-.03.3,0,.61,0,.91.01.89.07,1.42.57,1.45,1.45.04.97.03,1.95,0,2.93-.02.67-.35,1.24-1.02,1.35-1.73.28-2.45,1.65-3.53,3.05ZM71.81,59.62c.35-.14.66-.25.97-.38,12.84-5.42,20-18.66,17.52-32.43C87.32,10.25,70.43-.48,54.17,3.84c-15.45,4.11-24.72,19.42-21.2,34.99q.49,2.16,2.74,2.16c1.1,0,2.2,0,3.3,0,.23,0,.45-.05.73-.08-.12-.34-.2-.59-.29-.85-1.28-3.63-1.69-7.36-1.13-11.18,1.88-12.85,13.5-21.59,26.46-19.9,11,1.43,19.82,10.94,20.14,22.02.28,9.75-3.97,17.07-12.45,21.9-.48.27-.73.53-.7,1.11.05.89-.42,1.43-1.3,1.61-1.6.33-2.26,1.64-3.11,2.82,1.52.51,3.31-.62,4.46,1.18ZM3.03,43.99c1.69,1.04,2.88,2.46,3.88,4.04.83,1.31,1.94,1.77,3.45,1.77,17.02-.03,34.04-.03,51.06,0,1.6,0,2.73-.54,3.57-1.9.92-1.49,2.06-2.8,3.67-3.62.08-.04.1-.18.17-.3-21.98,0-43.88,0-65.79,0ZM3.03,52.78c1.75,1.06,2.93,2.57,3.98,4.19.76,1.17,1.79,1.62,3.16,1.62,17.14-.02,34.28-.02,51.42,0,1.41,0,2.46-.45,3.23-1.67,1-1.58,2.19-3.01,3.9-3.9.05-.02.04-.16.06-.25-21.93,0-43.84,0-65.75,0ZM3.03,61.58c1.66,1.04,2.89,2.45,3.89,4.05.8,1.27,1.88,1.76,3.36,1.76,7.81-.03,15.62-.02,23.42-.02,9.33,0,18.67,0,28,0,1.34,0,2.33-.47,3.08-1.6.55-.84,1.16-1.65,1.86-2.37.64-.66,1.42-1.18,2.23-1.83-22.02,0-43.93,0-65.85,0Z"/>
        <path d="M81.85,79.33c-.44-.53-1.03-.99-1.28-1.59-1.02-2.49-2.7-4.27-5.24-5.21-.25-.09-.49-.25-.72-.39-1.18-.72-1.19-2,0-2.7,1.11-.64,2.26-1.19,3.35-1.86.44-.27.84-.68,1.11-1.12.65-1.06,1.2-2.19,1.82-3.27.73-1.26,1.98-1.27,2.74-.04.06.1.13.21.18.32,1.05,2.84,3.04,4.74,5.84,5.83.66.25,1.15.72,1.15,1.5,0,.78-.49,1.24-1.15,1.5-2.8,1.1-4.78,2.98-5.87,5.82-.18.47-.68.82-1.02,1.23h-.92ZM82.29,74.74c.72-1.98,2.05-3.2,3.95-3.96-1.96-.72-3.2-2.03-3.99-3.97-.66,2.02-2.04,3.2-3.93,3.98,1.93.75,3.22,2.02,3.97,3.94Z"/>
        <path d="M23.74,28.1c-.51.57-.82,1.09-1.29,1.39-1.02.66-2.15,1.15-3.17,1.8-.49.31-.93.76-1.24,1.24-.63,1-1.15,2.08-1.73,3.11-.77,1.35-2.2,1.43-2.79.02-1.23-2.93-3.22-4.94-6.16-6.17-1.43-.6-1.42-2.17,0-2.77,2.93-1.23,4.94-3.22,6.15-6.17.57-1.38,2.15-1.4,2.72-.03,1.23,2.97,3.25,5.03,6.22,6.23.46.18.75.77,1.27,1.34ZM18.87,28.12c-1.93-.74-3.23-2.02-3.98-3.97-.74,1.94-2.03,3.23-3.98,3.99,2.03.66,3.2,2.07,3.99,4.21.72-2.21,2.02-3.49,3.96-4.23Z"/>
        <path d="M24.93,11.76c-3.23.02-5.88-2.62-5.89-5.85,0-3.2,2.59-5.84,5.78-5.87,3.25-.03,5.92,2.58,5.94,5.8.02,3.24-2.6,5.9-5.83,5.92ZM24.88,8.83c1.6,0,2.92-1.29,2.94-2.89.02-1.63-1.32-2.98-2.95-2.96-1.6.02-2.89,1.32-2.9,2.93,0,1.58,1.32,2.92,2.91,2.92Z"/>
        <path d="M4.47,11.79h2.8c0,.96,0,1.88,0,2.85-.93,0-1.83,0-2.8,0,0-.91,0-1.83,0-2.85Z"/>
        <path d="M13.22,77.62c0-.95,0-1.85,0-2.8h2.85c0,.93,0,1.83,0,2.8-.91,0-1.83,0-2.85,0Z"/>
        <path d="M57.73,30.69c-.63.18-1.27.35-1.92.54-.88.25-1.75.55-2.63.77-1.21.3-2.15-.63-1.84-1.83.34-1.3.78-2.57,1.1-3.86.11-.44.1-.96,0-1.41-.31-1.24-.71-2.46-1.05-3.69-.38-1.39.51-2.31,1.9-1.95.94.24,1.91.45,2.8.82,1.15.47,2.22.4,3.35-.02.94-.35,1.92-.6,2.9-.83,1.19-.28,2.08.6,1.79,1.78-.31,1.27-.76,2.51-1.06,3.78-.12.53-.12,1.14,0,1.67.28,1.18.69,2.33,1.01,3.51.4,1.5-.52,2.39-2.02,1.97-1.2-.33-2.4-.7-3.6-1.05-.23-.07-.47-.12-.73-.19ZM60.49,22.84c-1.89.89-3.68.71-5.55,0,.88,1.88.81,3.69.01,5.58,1.88-.86,3.69-.84,5.57-.03-.8-1.88-.83-3.67-.03-5.55Z"/>
        <path d="M74.63,36.63h-2.8c0-.95,0-1.88,0-2.85h2.8c0,.9,0,1.83,0,2.85Z"/>
      </g>
    </g>
  </g>
</svg>