<?xml version="1.0" encoding="UTF-8"?>
<svg id="Capa_2" xmlns="http://www.w3.org/2000/svg" viewBox="0 0 103 103">
  <defs>
    <style>
      .cls-1 {
        fill: #fff;
      }

      .cls-2 {
        stroke-linecap: round;
      }

      .cls-2, .cls-3 {
        fill: none;
        stroke: #000;
        stroke-miterlimit: 10;
        stroke-width: 4px;
      }
    </style>
  </defs>
  <g id="Capa_1-2" data-name="Capa_1">
    <g>
      <path d="M42.52,31.3c-1.51-3.18-1.09-6.57-1.12-9.9-.01-1.2.84-1.73,1.99-1.38.44.14.87.34,1.3.52.39.16.77.35,1.22.54.65-2.86,2.07-5.16,4.31-6.95.9-.72,1.7-.74,2.61,0,2.97,2.4,4.52,5.48,4.56,9.31,0,.31,0,.62,0,.93,0,.04.02.07.07.23.58-.24,1.16-.49,1.75-.71,1.4-.52,2.27,0,2.26,1.47-.01,3.25.4,6.56-1.06,9.71,1.08.57,1.15,1.5,1.13,2.52-.05,3.03.28,6.09-1.1,9.02,1.07.53,1.18,1.45,1.15,2.48-.07,3.03.31,6.1-1.14,9.06,1.15.45,1.2,1.38,1.17,2.39-.04,1.28.04,2.57,0,3.86-.18,5.59-2.82,9.58-7.88,11.96-.21.1-.42.18-.69.29,0,3.55.02,7.09.03,10.63,0,.31.11.72-.04.91-.37.47-.81,1.08-1.33,1.2-.77.18-1.34-.39-1.41-1.2-.07-.93-.04-1.87-.05-2.8-.01-2.65-.02-5.29-.04-7.9-.12-.08-.18-.15-.24-.15-2.49.03-2.97-.28-2.53-2.73.38-2.11-.15-3.37-1.85-4.73-2.77-2.23-3.95-5.42-4.07-8.97-.05-1.52-.09-3.04,0-4.55.04-.68.42-1.35.85-1.98-1.24-3.01-.9-6.28-.89-9.49,0-.68.41-1.37.83-2.02-1.18-2.94-.91-6.12-.88-9.25,0-.79.42-1.58.64-2.37.14.02.28.05.42.07ZM50.32,74.33c5.7-.74,9.39-6.26,8.36-12.37-4.6,2.02-8.1,7.4-8.36,12.37ZM53,39.16c4.17-2.68,6.28-5.99,5.54-11.87-3.58,1.94-6.11,4.75-7.5,8.56-.1.26-.03.69.14.93.57.82,1.21,1.59,1.83,2.39ZM53.15,62.24c4.65-3.49,6.72-8.1,5.38-11.88-3.41,1.92-5.91,4.62-7.32,8.29-.12.32-.17.81,0,1.06.58.86,1.26,1.65,1.95,2.53ZM58.6,38.91s-.03-.02-.06,0c-3.64,1.84-6.07,4.75-7.49,8.53-.09.24-.02.63.13.84.61.84,1.27,1.64,1.89,2.42,4.37-2.74,6.28-6.64,5.53-11.78ZM51.49,16.77c-1.61,1.48-2.58,3.24-2.86,5.35-.04.28,0,.67.16.86,1.43,1.56,2.9,3.08,4.36,4.61,2.54-2.04,1.7-8.09-1.66-10.82ZM44.38,35.07c-.7,4.5,1.22,9.25,4.24,10.6.52-.95.89-2.03,1.59-2.82,1-1.13.62-1.95-.13-2.92-1.55-2.02-3.36-3.71-5.7-4.86ZM48.63,57.14c.69-1.17,1.36-2.26,1.99-3.38.17-.31.38-.8.25-1.03-1.51-2.69-3.66-4.72-6.46-6.17-.66,4.63,1.19,9.17,4.22,10.58ZM44.3,23.51c-.51,4.93.95,8.57,4.2,10.65.77-1.29,1.56-2.57,2.29-3.89.11-.2.02-.6-.11-.83-1.56-2.53-3.61-4.54-6.38-5.93ZM44.49,58.07c-.8,4.32,1.1,9.08,4.17,10.62.75-1.27,1.52-2.52,2.24-3.81.11-.21.07-.6-.06-.82-1.52-2.6-3.72-4.5-6.35-5.99Z"/>
      <circle class="cls-2" cx="51.5" cy="51.5" r="49.5"/>
      <path class="cls-3" d="M59.07,44.07c9.64-9.47,19.61-19.31,27.85-27.55"/>
      <path class="cls-3" d="M16.52,86.04c7.95-7.95,16.97-16.84,26.25-25.97"/>
      <path class="cls-1" d="M58.64,39.47c.11.9.17,2.29-.19,3.93-.35,1.61-.98,2.83-1.45,3.6-.33-1.33-.67-2.67-1-4,.88-1.18,1.76-2.35,2.64-3.53Z"/>
    </g>
  </g>
</svg>