<?xml version="1.0" encoding="UTF-8"?>
<svg id="Capa_2" xmlns="http://www.w3.org/2000/svg" viewBox="0 0 60.86 67.62">
  <g id="Capa_1-2" data-name="Capa_1">
    <g id="Q2qWGf.tif">
      <g>
        <path d="M46.91,67.62H13.95c-.94-.39-1.82-.85-2.29-1.83-.73-1.51-.4-2.86.66-4.03-1.31-1.28-2.66-2.48-3.88-3.8-3.94-4.23-6.78-9.06-7.95-14.78-.21-1-.33-2.02-.5-3.03,0-1.31,0-2.63,0-3.94.04-.25.1-.5.12-.75.35-4.29,1.51-8.33,3.71-12.06.09-.15.15-.31.24-.52-.58-.12-1.08-.25-1.59-.32-1.36-.19-1.71-.9-.97-2.09,1.3-2.09,2.53-4.23,3.94-6.25,1.02-1.46,1.52-2.95,1.33-4.71-.05-.46-.14-.67-.59-.85-1.78-.7-2.86-2.41-2.81-4.31.05-1.87,1.28-3.5,3.09-4.12C6.67.17,6.85.08,7.04,0c15.59,0,31.18,0,46.77,0,.23.09.47.19.7.28,1.73.68,2.75,1.96,2.93,3.79.18,1.81-.48,3.41-2.11,4.2-1.18.57-1.38,1.29-1.24,2.37.02.14.02.28,0,.42-.09.71.16,1.3.54,1.9,1.59,2.49,3.14,5,4.7,7.51.74,1.18.39,1.9-.97,2.09-.52.07-1.04.21-1.61.33.09.19.13.3.19.39,1.61,2.65,2.68,5.52,3.27,8.56.28,1.44.43,2.91.64,4.37v3.8c-.04.2-.1.4-.12.6-.23,2.51-.84,4.93-1.79,7.27-2.12,5.24-5.53,9.53-9.76,13.21-.24.21-.47.42-.71.62,1.09,1.19,1.41,2.46.81,3.89-.45,1.07-1.35,1.62-2.38,2.02ZM6.35,23.64c-.19.3-.32.47-.42.65-3.59,6.22-4.65,12.87-2.88,19.81,1.77,6.94,6.13,12.19,11.69,16.53.21.17.56.22.84.22,9.91.01,19.81.01,29.72,0,.34,0,.76-.13,1.01-.35,1.72-1.56,3.54-3.03,5.07-4.76,6.99-7.88,9.02-16.86,5.68-26.94-.6-1.8-1.43-3.5-2.56-5.14-.96.48-1.9.89-2.79,1.4-4.59,2.63-9.22,2.9-13.91.26-1.12-.63-2.23-1.3-3.4-1.85-2.64-1.25-5.31-1.26-7.94,0-1.03.5-2.02,1.08-3.03,1.64-2.23,1.23-4.56,2.1-7.14,2.08-2.51-.02-4.76-.9-6.94-2.05-.97-.51-1.96-.98-2.99-1.49ZM42.5,13.52c-.7,0-1.34.07-1.96-.01-1.15-.15-2,.09-2.23,1.39-.01.07-.06.13-.09.19-.36.66-.9.85-1.6.53-.41-.18-.82-.36-1.19-.6-1.92-1.24-3.99-1.79-6.27-1.49-.45.06-.93.13-1.33.32-1.17.54-2.31,1.15-3.47,1.71-.87.42-1.4.22-1.82-.66-.16-.34-.27-.7-.45-1.03-.08-.15-.29-.33-.44-.33-1.08-.03-2.15-.02-3.3-.02.24,1,.47,1.93.69,2.86.2.84-.1,1.45-.79,1.61-.64.15-1.17-.25-1.38-1.07-.29-1.13-.58-2.26-.86-3.38h-2.74c-.29,1.16-.57,2.29-.87,3.42-.21.8-.76,1.19-1.41,1.03-.66-.17-.96-.77-.77-1.57.23-.95.46-1.9.71-2.91-.62,0-1.16.03-1.69,0-.53-.04-.84.12-1.12.6-.93,1.57-1.93,3.11-2.9,4.66-.36.57-.71,1.14-.98,1.58,2.81,1.28,5.55,2.58,8.34,3.79,2.61,1.14,5.27,1.05,7.86-.11,1.22-.54,2.39-1.2,3.54-1.86,2.83-1.63,5.81-2.35,9.05-1.59,1.95.46,3.63,1.49,5.34,2.47,2.03,1.15,4.15,1.99,6.54,1.87,2.06-.11,3.89-.96,5.71-1.85,1.62-.79,3.3-1.45,4.95-2.16.34-.14.71-.22,1.07-.34-.03-.11-.03-.19-.06-.24-1.35-2.17-2.7-4.34-4.07-6.5-.09-.15-.32-.28-.49-.29-.68-.03-1.36-.01-2.11-.01.24.99.47,1.92.69,2.84.2.85-.08,1.45-.77,1.62-.64.16-1.18-.23-1.4-1.05-.3-1.13-.58-2.26-.87-3.4h-2.74c-.3,1.17-.58,2.33-.88,3.48-.2.75-.75,1.13-1.38.98-.66-.16-.98-.77-.79-1.55.23-.95.47-1.91.72-2.93ZM30.5,2.25c-7.39,0-14.79,0-22.18,0-.33,0-.66,0-.98.08-1.11.28-1.82,1.33-1.7,2.43.13,1.15,1.1,1.99,2.35,1.99,4.15,0,8.31-.05,12.46.04,1.12.02,1.83-.19,2.06-1.34,0-.05.03-.09.05-.13.4-.79.93-.99,1.73-.63.4.19.82.36,1.19.6,1.92,1.26,4.01,1.75,6.27,1.46.41-.05.84-.11,1.2-.28,1.19-.55,2.35-1.17,3.53-1.75.86-.42,1.4-.22,1.82.65.15.32.24.67.43.96.11.18.35.4.53.4,4.6.02,9.2.02,13.8,0,.93,0,1.71-.64,2.02-1.5.54-1.54-.58-2.99-2.33-2.99-7.42,0-14.84,0-22.25,0ZM30.43,65.37c5.07,0,10.14,0,15.21,0,.23,0,.48.02.7-.02.61-.11.97-.49.97-1.11,0-.62-.37-1-.97-1.11-.2-.04-.42-.02-.63-.02-10.19,0-20.38,0-30.57,0-.21,0-.43-.02-.63.02-.61.11-.97.49-.97,1.11,0,.62.37,1,.97,1.11.23.04.47.02.7.02,5.07,0,10.14,0,15.21,0ZM21.41,9.07h-12.33v2.16h12.33v-2.16ZM39.45,11.22h12.33v-2.16h-12.33v2.16ZM24.23,13.11c.86-.43,1.65-.79,2.4-1.22.19-.11.38-.4.4-.62.05-.75.04-1.5,0-2.24-.01-.21-.16-.49-.33-.59-.79-.44-1.61-.82-2.47-1.25-.76,2-.75,3.92,0,5.93ZM36.64,7.24c-2.81,1.02-2.89,1.13-2.83,3.97,0,.05-.02.1,0,.14.09.17.15.41.29.48.81.44,1.65.84,2.52,1.27.74-2,.75-3.92.01-5.86ZM31.54,9.06h-2.19v2.15h2.19v-2.15Z"/>
        <path d="M43.95,40.64c0,1.31-.03,2.63.01,3.94.02.73-.23,1.24-.78,1.7-2.89,2.37-6.22,3.76-9.89,4.24-5.38.7-10.35-.44-14.81-3.61-.08-.05-.15-.11-.23-.16-1.03-.63-1.43-1.5-1.38-2.76.1-2.51.05-5.02.02-7.53,0-.65.21-1.12.7-1.52,4.22-3.42,9.07-4.81,14.43-4.43,4.15.29,7.9,1.71,11.15,4.37.56.46.81.97.78,1.7-.04,1.36-.01,2.72-.01,4.08ZM19.16,40.5c0,1.15.03,2.3-.01,3.45-.02.48.16.77.53,1.04,2.18,1.58,4.58,2.64,7.23,3.12,5.14.93,9.87-.03,14.17-3.04.44-.31.65-.63.64-1.2-.04-2.23-.03-4.46,0-6.68,0-.48-.15-.76-.53-1.04-2.78-2.03-5.9-3.16-9.32-3.41-4.51-.32-8.65.77-12.29,3.52-.22.16-.39.52-.4.8-.04,1.15-.02,2.3-.02,3.45Z"/>
        <path d="M6.65,39.69c.11-.81.5-1.32,1.16-1.36.61-.04,1.14.38,1.19,1.04.3,3.54,1.73,6.64,3.66,9.55,1.88,2.84,4.24,5.25,6.86,7.41.28.23.56.52.7.85.2.48,0,.93-.44,1.22-.5.34-.99.26-1.42-.13-1.23-1.09-2.49-2.15-3.64-3.31-3.25-3.27-5.81-7-7.18-11.45-.38-1.25-.6-2.55-.89-3.82Z"/>
        <path d="M6.78,34.38c.13-2.07.97-4.03,2.44-5.73.5-.57,1.18-.62,1.67-.17.48.43.51,1.06.04,1.63-1.12,1.33-1.81,2.83-1.9,4.58-.05.89-.46,1.39-1.16,1.37-.72-.02-1.12-.56-1.09-1.68Z"/>
        <path d="M30.43,41.7c1.78,0,3.57,0,5.35,0,.89,0,1.4.42,1.4,1.13,0,.7-.52,1.12-1.4,1.13-3.57,0-7.14,0-10.7,0-.89,0-1.4-.42-1.4-1.13,0-.7.51-1.12,1.4-1.12,1.78,0,3.57,0,5.35,0Z"/>
        <path d="M30.5,37.19c1.41,0,2.82,0,4.23,0,.83,0,1.33.44,1.33,1.12,0,.68-.51,1.12-1.33,1.12-2.86,0-5.73,0-8.59,0-.83,0-1.33-.44-1.33-1.13,0-.69.5-1.12,1.33-1.12,1.46,0,2.91,0,4.37,0Z"/>
      </g>
    </g>
  </g>
</svg>