<?xml version="1.0" encoding="UTF-8"?>
<svg id="Capa_2" xmlns="http://www.w3.org/2000/svg" viewBox="0 0 103.44 96.19">
  <defs>
    <style>
      .cls-1 {
        fill: none;
        stroke: #000;
        stroke-linecap: round;
        stroke-miterlimit: 10;
        stroke-width: 4px;
      }
    </style>
  </defs>
  <g id="Capa_1-2" data-name="Capa_1">
    <g>
      <path class="cls-1" d="M2,40.53c4.6,4.6,9.19,12.64,13.79,20.69,4.09,7.16,9.88,26.44,11.72,32.7.11.37.62.37.74,0,2.73-8.23,7.43-19.35,15.7-30.98,9.56-13.44,20.11-22.27,27.58-27.58"/>
      <path class="cls-1" d="M97.57,2.17c.48-.35,1.16-.13,1.34.43,2.16,6.66,4.03,14.68.77,29.89s-15.61,25.75-19.54,28.73c-4.63,3.51-11.8,7.34-20.69,8.04-2.7.21-7.62.54-12.64-2.3-6.37-3.6-8.61-9.87-9.19-11.49-3.89-10.89,1.82-22.64,8.04-28.73,3.04-2.98,6.55-4.93,8.04-5.75,3.88-2.13,6.49-2.74,12.64-4.6,8.64-2.6,12.96-3.9,17.24-5.75,3.21-1.39,8.75-4.66,13.98-8.48Z"/>
    </g>
  </g>
</svg>