<?xml version="1.0" encoding="UTF-8"?>
<svg id="Capa_2" xmlns="http://www.w3.org/2000/svg" viewBox="0 0 111 89.6">
  <defs>
    <style>
      .cls-1 {
        fill: #fff;
      }
    </style>
  </defs>
  <g id="Capa_1-2" data-name="Capa_1">
    <g>
      <path d="M13.8,48.69c-1.18-1.1-2.29-2.07-3.33-3.11-4.38-4.38-4.8-11.43-.98-16.32.35-.45.41-.73.07-1.24-1.68-2.56-4.21-3.7-7.05-4.34-.41-.09-.84-.12-1.26-.21-.86-.2-1.37-.94-1.24-1.76.13-.79.79-1.39,1.64-1.26,1.26.19,2.49.52,3.73.8.27.06.53.17.93.3-.16-.72-.29-1.35-.43-1.97-.56-2.49-.59-5.01-.27-7.53.12-.98.84-1.58,1.73-1.49.86.09,1.45.78,1.34,1.75-.29,2.57-.2,5.1.49,7.59.06.21.14.42.2.6.71-.97,1.38-1.94,2.12-2.85.45-.54,1-1.01,1.54-1.46.83-.7,1.74-.66,2.34.04.6.69.44,1.58-.33,2.33-.77.75-1.58,1.48-2.19,2.36-1.18,1.69-1.26,3.51-.4,5.17,1.84-.55,3.56-1.31,5.34-1.54,4.5-.6,8.37.87,11.15,4.46,2.81,3.63,5.31,7.5,7.94,11.27,1.8,2.58,3.57,5.18,5.39,7.75.2.28.57.45.86.67.04-.06.08-.12.13-.18-.61-.94-1.32-1.84-1.79-2.85-.52-1.12-.88-2.32-1.19-3.52-.25-.99.43-1.92,1.4-2.08,1.57-.26,3.14-.48,4.71-.72,2.66-.41,5.2.02,7.61,1.21.09.05.2.07.44.16-.37-1.07-.67-2.04-1.05-2.97-.07-.16-.53-.24-.79-.21-1.21.14-2.41.36-3.62.51-6.13.74-12.17-3.69-13.41-9.74-.27-1.33-.77-2.61-1.18-3.9-.37-1.15-.08-2.03.82-2.35.91-.33,1.7.16,2.11,1.29q.72,1.97,2.74,1.7,4.4-.59,9.32,1.11c-.2-.59-.35-1.12-.56-1.63-.06-.14-.27-.3-.43-.32-2.99-.21-4.81-2.04-6.22-4.45-1.99-3.4-2.15-7.05-1.42-10.8.26-1.33.7-2.63.98-3.96.11-.52.06-1.09-.02-1.61-.08-.5-.34-.96-.46-1.46-.2-.8.23-1.58.99-1.84.73-.25,1.49.06,1.87.77.04.07.1.15.11.23.26,1.65,1.35,2.61,2.69,3.46,2.43,1.55,4.31,3.73,5.82,6.13,1.86,2.94,2.52,6.19,1.36,9.6-.26.75-.72,1.52-1.3,2.06-.61.57-.63,1.04-.32,1.69.13.27.23.56.32.78.8-1.14,1.54-2.31,2.41-3.38,1.34-1.64,3.22-2.59,5.04-3.57.65-.35.85-.7.52-1.39-.24-.51-.4-1.06-.54-1.61-.21-.81.22-1.59.97-1.84.72-.25,1.56.06,1.87.77.87,1.96,1.81,3.9,2.52,5.92,1.81,5.19-.19,11.04-4.75,14.11-1.1.74-2.27,1.4-3.45,2.03-.55.29-.63.59-.4,1.15.35.84.61,1.7.92,2.6.1-.09.18-.13.2-.19,1.25-2.88,3.35-4.95,6.1-6.4.98-.51,1.91-1.11,2.88-1.65,1.27-.7,2.22-.4,2.89.87,2.86,5.45,1.36,12.1-3.55,15.77-.17.13-.33.27-.55.46.63.23.99.05,1.35-.41,3.58-4.55,7.27-9.01,10.75-13.64,3.79-5.05,10.26-5.93,14.88-2.78.04.03.11.04.23.08,3.67-3.83,5.53-8.21,4.04-13.6-.1-.35-.21-.73-.16-1.08.1-.76.59-1.23,1.35-1.31.8-.09,1.37.3,1.63,1.07.68,2.01.95,4.08.75,6.2-.04.44-.1.88-.14,1.31,1.64-.95,3.18-1.97,4.83-2.74,1.16-.54,2.46-.84,3.73-1.08,1-.19,1.73.43,1.85,1.31.11.85-.49,1.54-1.5,1.73-2.62.49-5.76,2.13-7.57,3.99,1.02.1,1.98.15,2.93.29.67.09,1.34.26,1.99.45.95.27,1.38,1.08,1.12,1.98-.22.77-1.01,1.22-1.89,1-1.86-.47-3.72-.77-5.63-.36-2.05.44-3.73,1.45-5.03,3.07,3.24,5.26,2.68,10.1-1.54,14.62.23.06.46.13.69.18,2.69.6,4.53,3.22,3.9,5.89-1.69,7.23-4.89,13.7-10.05,19.13-2.73,2.87-5.87,5.17-9.44,6.86-1.6.76-3.29,1.36-4.98,1.94-1.18.41-1.3.47-1.28,1.71.06,2.57-1.76,4.82-4.29,5.28-.33.06-.68.07-1.02.07-8.69,0-17.37,0-26.06,0-3.27,0-5.5-2.16-5.57-5.46-.02-.89-.28-1.34-1.22-1.61-4-1.13-7.59-3.09-10.87-5.64-7.3-5.67-11.36-13.33-13.6-22.1-.57-2.25.61-4.61,2.67-5.65.3-.15.61-.27,1.03-.45ZM15.71,58.46c-.02.17-.04.23-.02.28.03.11.07.22.11.32,1.81,4.76,4.41,9.02,8.09,12.56,3.21,3.09,6.88,5.44,11.18,6.74.76.23,1.63.34,2.23.79.94.71,1.93.7,2.97.68.28,0,.57,0,.85,0,.91.03,1.54.61,1.59,1.44.05.86-.56,1.55-1.5,1.63-.41.04-.84,0-1.24,0-.17,2.28.26,2.6,2.2,2.58,5.31-.05,10.62-.02,15.92-.02,3.04,0,6.07,0,9.11,0,.72,0,1.24-.26,1.38-.98.09-.48.02-.99.02-1.53-.23-.02-.42-.06-.61-.06-5.22,0-10.44.01-15.67.01-.42,0-.86-.02-1.25-.15-.74-.25-1.07-.85-.97-1.61.1-.75.55-1.23,1.34-1.32.31-.03.62-.02.94-.02,5.36.02,10.73.05,16.09.05.69,0,1.4-.06,2.05-.26.69-.21,1.28-.74,1.96-.93,2.55-.72,4.95-1.75,7.2-3.17,6.09-3.83,10.18-9.27,12.85-15.86.15-.38.29-.76.46-1.21-.46,0-.77,0-1.08,0-7.44,0-14.87,0-22.31,0-.28,0-.57.01-.85-.02-.7-.09-1.07-.55-1.1-1.21-.04-.68.35-1.13,1-1.3.27-.07.56-.04.84-.04,7.64,0,15.27,0,22.91,0q1.54,0,1.93-1.51c.29-1.15-.09-1.68-1.27-1.71-1.79-.04-3.57-.09-5.36-.09-8.88,0-17.76-.01-26.64,0-5.16,0-10.32.07-15.48.08-9.71.01-19.41,0-29.12,0-2.43,0-2.63.29-1.92,2.63.14.46.35.61.83.61,1.96-.03,3.92,0,5.88-.01,1.27,0,1.92.44,1.9,1.3-.01.86-.63,1.27-1.93,1.27-1.81,0-3.63,0-5.47,0ZM13.31,43.31c2.19,1.98,4.3,3.91,6.42,5.83.66.6,4.32.65,5,.06,1.05-.91,2.09-1.84,3.14-2.74.73-.63,1.53-.64,2.03-.04.52.61.4,1.33-.33,2.01-.36.33-.72.66-1.18,1.08h10.48c-2.87-4.14-5.66-8.16-8.48-12.24-.98.85-1.86,1.71-2.84,2.42-.37.27-1.05.36-1.47.21-.33-.12-.66-.73-.67-1.13-.01-.37.31-.83.62-1.12.91-.87,1.89-1.68,2.86-2.54-.81-1.17-1.52-2.26-2.3-3.3-2.31-3.09-5.4-4.4-9.17-3.55-3.81.86-6.07,3.4-6.78,7.22-.37,1.99-.02,3.91,1.08,5.75.55-.48,1.01-.89,1.48-1.29.71-.59,1.46-.59,1.96-.02.51.58.43,1.32-.24,1.95-.51.48-1.04.94-1.61,1.46ZM75.81,43.02c.71.89,2.03,1.58,1.06,2.78-1.07,1.32-1.9-.02-2.74-.64-1.12,1.42-2.19,2.78-3.32,4.22.27.04.36.06.44.06,5.02,0,10.05,0,15.07,0,.21,0,.47-.03.63-.16.82-.63,1.62-1.3,2.41-1.94-.56-.58-1.08-1.11-1.58-1.64-.61-.65-.66-1.44-.12-1.96.52-.51,1.27-.48,1.9.09.65.59,1.28,1.19,1.91,1.78,3.02-2.62,3.19-7.22.44-10.07-2.81-2.9-7.51-2.93-10.16.09-2.07,2.36-3.95,4.9-5.94,7.39ZM44.84,7.4c-.68,2.53-1.11,4.88-.7,7.27.35,2.01,1.14,3.87,2.77,5.23,1.55,1.29,3.49.67,3.95-1.29.16-.7.18-1.47.11-2.19-.42-4.03-3.23-6.44-6.12-9.02ZM44.34,43.35c1.46,3.61,6.99,7.92,12.46,5.46-1.1-3.58-5.45-7.53-12.46-5.46ZM61.19,46.86c5.06-1.97,7.84-6.7,6.14-11.4-6.11,2.64-7.49,7.54-6.14,11.4ZM62.19,20.99c-5.17,2.11-8.05,7.48-6.14,11.37,5.09-2.02,7.68-6.79,6.14-11.37ZM39.62,28.88c1.47,4.06,5.97,6.87,11.86,5.05-1.53-4.23-6.21-6.86-11.86-5.05Z"/>
      <path class="cls-1" d="M67.33,35.46c1.7,4.71-1.09,9.43-6.14,11.4"/>
      <path d="M42.96,58.46c-5.22,0-10.44,0-15.66,0-.31,0-.63.01-.94-.02-.74-.09-1.12-.59-1.12-1.28,0-.66.39-1.12,1.07-1.25.25-.05.51-.02.76-.02,10.61,0,21.23,0,31.84,0,.2,0,.4-.02.6,0,.71.09,1.2.65,1.15,1.34-.05.73-.46,1.14-1.18,1.21-.28.03-.57.01-.85.01-5.22,0-10.44,0-15.66,0Z"/>
      <path d="M86.18,67.22c-.24.45-.35.78-.56,1.03-2.25,2.72-4.93,4.92-8.09,6.5-.4.2-1.01.2-1.42.04-.27-.11-.51-.71-.47-1.05.04-.35.38-.78.7-.95,2.92-1.54,5.43-3.57,7.58-6.08.27-.32.96-.45,1.41-.39.31.04.56.58.85.91Z"/>
      <path d="M46.43,79.85c1.2,0,1.8.43,1.91,1.35.1.79-.4,1.48-1.21,1.69-1.19.31-2.29-.09-2.62-.96-.45-1.18.39-2.09,1.92-2.08Z"/>
      <path d="M71.68,76.91c-.85-.02-1.32-.31-1.43-.96-.1-.61.23-1.04.8-1.22.62-.2,1.24-.37,1.87-.54.67-.18,1.11.13,1.33.73.22.61.03,1.16-.58,1.4-.7.27-1.45.43-1.99.59Z"/>
      <path d="M64.19,58.46c-.84.01-1.39-.47-1.42-1.23-.03-.81.52-1.34,1.39-1.34.81,0,1.38.52,1.39,1.28,0,.77-.53,1.28-1.36,1.3Z"/>
    </g>
  </g>
</svg>