<?xml version="1.0" encoding="UTF-8"?>
<svg id="Capa_2" xmlns="http://www.w3.org/2000/svg" viewBox="0 0 44.12 74.2">
  <g id="Capa_1-2" data-name="Capa_1">
    <g id="NvqYL8.tif">
      <g>
        <path d="M36.38,0c.23.36.55.69.66,1.08,2.18,7.27,4.45,14.52,6.46,21.85,1.47,5.39.37,10.36-3.8,14.26-2.6,2.43-5.79,4.07-9.12,5.3-2.2.82-4.5,1.36-6.76,2.02-.18.05-.36.1-.61.16v.82c0,6.84,0,13.68-.01,20.52,0,.56.16.88.64,1.18,2.48,1.51,4.93,3.08,7.4,4.6.61.37,1.09.79.86,1.58-.23.76-.85.82-1.52.81-5.68,0-11.36,0-17.03,0-.67,0-1.3-.04-1.53-.8-.24-.79.23-1.2.84-1.58,2.5-1.54,4.99-3.09,7.45-4.68.27-.17.57-.56.57-.86.03-7.11.02-14.23.02-21.34,0-.08-.03-.16-.04-.23-1.67-.45-3.35-.85-4.99-1.36-3.87-1.22-7.46-3.05-10.69-5.5-2.98-2.26-4.48-5.39-5.01-9.04C.13,28.55.06,28.29,0,28.03c0-.71,0-1.43,0-2.14.2-1.01.33-2.05.62-3.04C2.74,15.59,4.9,8.33,7.07,1.08c.12-.39.44-.72.66-1.08,9.55,0,19.1,0,28.65,0ZM4.66,17.26c-.31,1.04-.62,1.95-.86,2.87-.49,1.96-1.2,3.92-1.35,5.91-.31,4.02.94,7.57,4.28,10.07,4.03,3.02,8.56,4.97,13.47,6.04.79.17,1.64.34,2.42.22,5.05-.82,9.66-2.78,13.91-5.62,3.94-2.62,5.52-6.4,5.11-10.96-.19-2.1-.95-4.15-1.5-6.21-.06-.21-.46-.43-.72-.47-5.18-.81-10.27-.37-15.27,1.23-3.93,1.26-7.91,1.43-11.92.41-2.71-.68-5.2-1.85-7.57-3.51ZM9.09,2.33c-1.17,3.95-2.31,7.84-3.5,11.71-.21.68-.07,1.02.5,1.4,5.43,3.65,11.27,4.66,17.54,2.67,4.26-1.35,8.6-1.89,13.05-1.63.84.05,1.68.12,2.62.19-1.44-4.85-2.85-9.59-4.26-14.34H9.09ZM17.21,71.84h9.72c-1.65-1.04-3.12-1.96-4.6-2.86-.13-.08-.39-.08-.52,0-1.48.9-2.95,1.83-4.6,2.87Z"/>
        <path d="M39.37,25.43c-.14,3.76-1.19,6.64-3.75,8.85-.44.38-.91.63-1.49.33-.77-.39-.85-1.35-.12-1.98,1.84-1.57,2.79-3.6,2.94-5.96.07-1.13-.14-2.29-.29-3.42-.11-.83.1-1.38.76-1.58.65-.2,1.26.16,1.44.97.24,1.07.39,2.15.5,2.79Z"/>
      </g>
    </g>
  </g>
</svg>